<?xml version="1.0" encoding="utf-8"?>
<!-- Generator: Adobe Illustrator 15.0.0, SVG Export Plug-In . SVG Version: 6.00 Build 0)  -->
<!DOCTYPE svg PUBLIC "-//W3C//DTD SVG 1.1//EN" "http://www.w3.org/Graphics/SVG/1.1/DTD/svg11.dtd">
<svg version="1.1"
	 id="svg3728" sodipodi:version="0.32" sodipodi:docname="Night.svg" inkscape:version="0.46" inkscape:output_extension="org.inkscape.output.svg.inkscape" inkscape:export-filename="C:\Documents and Settings\Will\Desktop\SpriteLand.com\Games\Kryptal Platform Game\Backgrounds\Night_bg.png" inkscape:export-xdpi="90" inkscape:export-ydpi="90" xmlns:inkscape="http://www.inkscape.org/namespaces/inkscape" xmlns:sodipodi="http://sodipodi.sourceforge.net/DTD/sodipodi-0.dtd" xmlns:rdf="http://www.w3.org/1999/02/22-rdf-syntax-ns#" xmlns:svg="http://www.w3.org/2000/svg" xmlns:cc="http://creativecommons.org/ns#" xmlns:dc="http://purl.org/dc/elements/1.1/"
	 xmlns="http://www.w3.org/2000/svg" xmlns:xlink="http://www.w3.org/1999/xlink" x="0px" y="0px" width="1024px" height="768px"
	 viewBox="-192 -144 1024 768" enable-background="new -192 -144 1024 768" xml:space="preserve">
<filter  width="1.4894824" height="1.4583305" y="-0.22916524" x="-0.24474119" id="filter4412" inkscape:collect="always">
	<feGaussianBlur  id="feGaussianBlur4414" inkscape:collect="always" stdDeviation="8.2730041"></feGaussianBlur>
</filter>
<defs>
	
	
		<inkscape:perspective  sodipodi:type="inkscape:persp3d" inkscape:vp_z="640 : 240 : 1" inkscape:vp_x="0 : 240 : 1" inkscape:vp_y="0 : 1000 : 0" inkscape:persp3d-origin="320 : 160 : 1" id="perspective3736">
		</inkscape:perspective>
	
		<inkscape:perspective  sodipodi:type="inkscape:persp3d" inkscape:vp_z="1 : 0.5 : 1" inkscape:vp_x="0 : 0.5 : 1" inkscape:vp_y="0 : 1000 : 0" inkscape:persp3d-origin="0.5 : 0.33333333 : 1" id="perspective4331">
		</inkscape:perspective>
</defs>
<sodipodi:namedview  id="base" pagecolor="#ffffff" bordercolor="#666666" inkscape:cx="519.44283" borderopacity="1.0" inkscape:pageopacity="0.0" inkscape:pageshadow="2" inkscape:zoom="0.70710678" inkscape:cy="181.98716" inkscape:current-layer="layer1" inkscape:document-units="px" showgrid="false" inkscape:window-width="1024" inkscape:window-height="712" inkscape:window-x="-4" inkscape:window-y="-4" inkscape:window-maximized="1">
	</sodipodi:namedview>
<g id="layer1" inkscape:groupmode="layer" inkscape:label="Layer 1">
	
		<linearGradient id="rect3740_1_" gradientUnits="userSpaceOnUse" x1="332.7415" y1="649.1113" x2="332.7414" y2="25.4323" gradientTransform="matrix(1 0 0 -1 -8.3599 504.0547)">
		<stop  offset="0" style="stop-color:#071C26"/>
		<stop  offset="0.5" style="stop-color:#1A3245"/>
		<stop  offset="1" style="stop-color:#344F77"/>
	</linearGradient>
	<rect id="rect3740" x="-191.79" y="-145.056" fill="url(#rect3740_1_)" width="1032.344" height="774.696"/>
	<g id="path4354" sodipodi:nodetypes="ccsscscsscc" opacity="0.5701" filter="url(#filter4412)" enable-background="new    ">
		<path fill="#FFFFFF" d="M91.77-63.013c-0.194,0.041-0.382,0.103-0.562,0.187C59.191-49.015,36.797-17.14,36.797,19.914
			c0,49.706,40.333,90.04,90.039,90.04c29.072,0,54.983-13.794,71.445-35.192c0.681-0.896,0.671-2.251-0.019-3.139
			c-0.692-0.889-2.002-1.229-3.038-0.792c-10.302,4.442-21.63,6.926-33.571,6.926c-46.919,0-84.921-38.003-84.921-84.924
			c0-19.467,6.531-37.413,17.532-51.728C95.537-60.531,93.807-63.382,91.77-63.013L91.77-63.013z"/>
	</g>
	
		<linearGradient id="path4297_1_" gradientUnits="userSpaceOnUse" x1="330.7366" y1="60.4995" x2="330.7366" y2="195.8916" gradientTransform="matrix(1 0 0 -1 -8.3599 504.0547)">
		<stop  offset="0" style="stop-color:#314B71"/>
		<stop  offset="1" style="stop-color:#3C5D8C"/>
	</linearGradient>
	<path id="path4297" sodipodi:nodetypes="ccsc" fill="url(#path4297_1_)" d="M471.704,443.556H173.049
		c46.394-37.799,142.481-93.123,158.576-94.415C354.725,347.282,424.426,417.875,471.704,443.556z"/>
	
		<linearGradient id="path4383_1_" gradientUnits="userSpaceOnUse" x1="533.5696" y1="92.6812" x2="533.5696" y2="179.8929" gradientTransform="matrix(1 0 0 -1 -8.3599 504.0547)">
		<stop  offset="0" style="stop-color:#2E486C"/>
		<stop  offset="1" style="stop-color:#35547E"/>
	</linearGradient>
	<path id="path4383" sodipodi:nodetypes="cccc" fill="url(#path4383_1_)" d="M531.011,352.341
		c12.397,0.784,51.869,42.802,87.881,59.033H431.527C460.632,387.661,524.186,352.602,531.011,352.341z"/>
	
		<linearGradient id="path4289_1_" gradientUnits="userSpaceOnUse" x1="624.6135" y1="-2.2729" x2="624.6135" y2="218.9057" gradientTransform="matrix(1 0 0 -1 -8.3599 504.0547)">
		<stop  offset="0" style="stop-color:#344F77"/>
		<stop  offset="1" style="stop-color:#4B71AC"/>
	</linearGradient>
	<path id="path4289" sodipodi:nodetypes="cccz" fill="url(#path4289_1_)" d="M646.264,400.644
		c-17.151,0-145.676,73.13-217.9,105.685h375.779C745.77,458.765,665.682,400.644,646.264,400.644z"/>
	
		<linearGradient id="path4395_1_" gradientUnits="userSpaceOnUse" x1="54.1868" y1="92.6812" x2="54.1868" y2="172.7194" gradientTransform="matrix(1 0 0 -1 -8.3599 504.0547)">
		<stop  offset="0" style="stop-color:#2E486C"/>
		<stop  offset="1" style="stop-color:#34527B"/>
	</linearGradient>
	<path id="path4395" sodipodi:nodetypes="cccs" fill="url(#path4395_1_)" d="M58.689,346.62c9.251-0.985,44.809,48.522,80.82,64.754
		H-47.854C-18.75,387.661,48.718,347.682,58.689,346.62z"/>
	<path id="path3276" opacity="0.0556" enable-background="new    " d="M55.357,347.574c-16.876,6.229-76.37,41.93-103.225,63.811
		h71.069c10.779-10.156,19.873-20.667,22.589-29.2C49.656,370.033,52.96,357.393,55.357,347.574z"/>
	
		<linearGradient id="path4276_1_" gradientUnits="userSpaceOnUse" x1="-39.9954" y1="196.0708" x2="-39.9954" y2="-66.331" gradientTransform="matrix(1 0 0 -1 -8.3599 504.0547)">
		<stop  offset="0" style="stop-color:#5078B3"/>
		<stop  offset="1" style="stop-color:#344F77"/>
	</linearGradient>
	<path id="path4276" sodipodi:nodetypes="cccz" fill="url(#path4276_1_)" d="M-62.888,372.136
		c14.464,2.273,225.226,130.499,344.237,198.115H-378.06C-218.091,488.006-79.557,369.517-62.888,372.136z"/>
	<path id="path3281" opacity="0.0556" enable-background="new    " d="M331.62,349.13c-16.098,1.29-112.172,56.609-158.566,94.407
		h100.569c22.873-13.966,43.874-28.159,49.833-36.411c8.945-12.384,10.8-38.918,10.868-57.896
		C333.367,349.113,332.459,349.062,331.62,349.13z"/>
	
		<linearGradient id="path4264_1_" gradientUnits="userSpaceOnUse" x1="333.4485" y1="-18.9214" x2="333.4485" y2="-163.1636" gradientTransform="matrix(1 0 0 -1 -8.3599 504.0547)">
		<stop  offset="0" style="stop-color:#43679B"/>
		<stop  offset="1" style="stop-color:#2D4669"/>
	</linearGradient>
	<path id="path4264" sodipodi:nodetypes="csssccccc" fill="url(#path4264_1_)" d="M853.649,346.563c0,0-33.099-74.472-41.375-68.267
		C804,284.506,644.066,621.575,413.008,545.163c-104.53-34.569-208.309-170.826-243.805-180.989
		c-15.5-4.435-372.674,253.396-372.674,253.396v49.648l1050.911-6.205L853.649,346.563L853.649,346.563z"/>
	<path id="path4317" opacity="0.0374" enable-background="new    " d="M126.836-67.567c-12.267,0-23.972,2.492-34.567,7.051
		C80.899-45.755,74.172-27.241,74.172-7.167c0,48.314,39.169,87.482,87.482,87.482c12.294,0,23.955-2.536,34.569-7.113
		c11.35-14.756,18.095-33.232,18.095-53.287C214.317-28.4,175.149-67.567,126.836-67.567L126.836-67.567z"/>
	<path id="path4315" fill="#FFFFFF" d="M92.207-60.455C61.112-47.042,39.355-16.102,39.355,19.914
		c0,48.312,39.169,87.481,87.481,87.481c28.256,0,53.395-13.405,69.386-34.194c-10.614,4.578-22.275,7.113-34.569,7.113
		c-48.312,0-87.482-39.168-87.482-87.482C74.172-27.208,80.869-45.704,92.207-60.455L92.207-60.455z M196.222,73.201
		c0.706-0.919,1.389-1.86,2.059-2.808C197.608,71.344,196.932,72.279,196.222,73.201z M175.756-52.655
		c2.327,1.572,4.58,3.27,6.738,5.055C180.336-49.383,178.083-51.083,175.756-52.655z M185.677-44.855
		c1.036,0.941,2.006,1.943,2.996,2.932C187.672-42.922,186.724-43.903,185.677-44.855z M194.351-35.745
		c1.782,2.16,3.482,4.411,5.053,6.738C197.833-31.334,196.134-33.585,194.351-35.745z M213.07,34.64
		c-0.202,1.195-0.437,2.377-0.687,3.556C212.636,37.019,212.866,35.834,213.07,34.64z"/>
	<path id="path3261" opacity="0.0556" enable-background="new    " d="M168.798,364.104
		c-20.635-0.369-372.277,253.477-372.277,253.477v49.634l138.984-0.803c60.126-50.896,155.289-133.576,188.466-174.294
		c34.14-41.896,44.937-96.514,48.332-126.811c-1.074-0.465-2.133-0.875-3.104-1.152C169.075,364.12,168.96,364.107,168.798,364.104z
		"/>
	<path id="path3266" opacity="0.0556" enable-background="new    " d="M812.68,278.059c-0.144,0.059-0.272,0.154-0.4,0.252
		c-8.277,6.206-168.22,343.26-399.272,266.848c-13.878-4.588-27.728-10.989-41.42-18.633l-2.805,1.855
		c0,0,198.148,92.352,283.327,63.457c75.085-25.472,151.827-163.194,156.363-213.06C811.11,349.787,812.217,308.157,812.68,278.059z
		"/>
	<path id="path3271" opacity="0.0556" enable-background="new    " d="M-63.744,372.118
		c-19.262,1.061-145.247,107.27-293.994,187.364l1.352,10.769h87.947c69.076-30.222,159.546-72.798,183.911-98.515
		c27.66-29.199,28.242-72.946,25.743-98.115c-1.869-0.822-3.329-1.381-4.106-1.503C-63.154,372.077-63.424,372.101-63.744,372.118z"
		/>
	<path id="path3286" opacity="0.0556" enable-background="new    " d="M531.006,352.333c-6.825,0.266-70.363,35.335-99.469,59.052
		h65.012c12.354-9.75,26.538-22.177,30.4-30.753c3.604-8.014,5.009-19.031,5.509-28.046
		C531.948,352.455,531.447,352.361,531.006,352.333z"/>
	<path id="path3291" opacity="0.0455" enable-background="new    " d="M646.249,400.665c-17.151,0-145.642,73.122-217.865,105.678
		h115.544c31.589-18.174,73.987-43.434,87.998-55.993c13.604-12.199,17.882-33.4,19.081-48.933
		C649.182,400.913,647.554,400.665,646.249,400.665z"/>
</g>
</svg>
