<?xml version="1.0" encoding="utf-8"?>
<!-- Generator: Adobe Illustrator 15.0.0, SVG Export Plug-In . SVG Version: 6.00 Build 0)  -->
<!DOCTYPE svg PUBLIC "-//W3C//DTD SVG 1.1//EN" "http://www.w3.org/Graphics/SVG/1.1/DTD/svg11.dtd">
<svg version="1.1" id="Layer_1" xmlns="http://www.w3.org/2000/svg" xmlns:xlink="http://www.w3.org/1999/xlink" x="0px" y="0px"
	 width="100.5px" height="100.5px" viewBox="0 399.5 100.5 100.5" enable-background="new 0 399.5 100.5 100.5"
	 xml:space="preserve">
<g id="Layer_1_1_" display="none">
	<g display="inline">
		<path fill="#848484" stroke="#D1D3D4" stroke-miterlimit="10" d="M32.077,249.072c0,14.478-0.062,28.951,0.011,43.436
			c0.231,47.229-0.847,94.521,1.145,141.688c2.211,52.405,39.641,74.176,87.478,52.638c10.393-4.679,20.3-10.504,30.206-16.18
			c74.021-42.431,148.062-84.833,221.94-127.515c25.712-14.854,52.219-28.757,76.151-46.148
			c37.147-27.004,36.61-67.286,0.705-95.903c-6.526-5.203-13.696-9.694-20.933-13.876c-96.968-56.009-194.02-111.875-290.999-167.86
			C125.825,12.45,113.489,6.583,99.985,3.525C73.232-2.532,49.601,9.76,38.639,35.02c-6.256,14.417-6.52,29.669-6.558,44.902
			C31.945,136.306,32.027,192.691,32.077,249.072z"/>
		<path fill="#848484" stroke="#D1D3D4" stroke-miterlimit="10" d="M32.052,249.072c-0.025-56.381-0.107-112.766,0.029-169.15
			c0.038-15.233,0.302-30.485,6.558-44.902C49.601,9.76,73.232-2.532,99.984,3.524c13.504,3.058,25.842,8.925,37.797,15.826
			C234.76,75.336,331.812,131.201,428.78,187.21c7.235,4.182,14.405,8.673,20.933,13.876c35.905,28.617,36.442,68.9-0.705,95.903
			c-23.934,17.393-50.439,31.295-76.151,46.147c-73.879,42.684-147.918,85.085-221.94,127.516
			c-9.906,5.676-19.813,11.501-30.206,16.18c-47.836,21.538-85.267-0.231-87.478-52.638c-1.99-47.167-0.912-94.458-1.145-141.688
			C32.016,278.023,32.077,263.55,32.052,249.072z"/>
	</g>
</g>
<g id="Layer_2" display="none">
	<path display="inline" fill="#848484" stroke="#D1D3D4" stroke-miterlimit="10" d="M205.599,432.457
		c0,27.914-22.628,50.543-50.543,50.543H83.284c-27.914,0-50.543-22.629-50.543-50.543V68.543C32.74,40.629,55.37,18,83.284,18
		h71.771c27.915,0,50.543,22.629,50.543,50.543V432.457z"/>
	<path display="inline" fill="#848484" stroke="#D1D3D4" stroke-miterlimit="10" d="M474,432.457
		C474,460.371,451.371,483,423.456,483h-71.771c-27.915,0-50.544-22.629-50.544-50.543V68.543c0-27.914,22.629-50.543,50.544-50.543
		h71.771C451.371,18,474,40.629,474,68.543V432.457z"/>
</g>
<g id="Layer_3" display="none">
	<g display="inline">
		<path fill="#848484" stroke="#F1F2F2" stroke-miterlimit="10" d="M26.003,113.082c0.02-12.032,0.15-24.079,3.334-35.467
			c5.571-19.953,17.58-29.662,31.176-24.878c6.863,2.416,13.134,7.05,19.209,12.501c49.286,44.221,98.612,88.348,147.892,132.59
			c3.679,3.302,7.32,6.85,10.639,10.96c18.248,22.604,18.521,54.422-0.358,75.752c-12.164,13.735-25.634,24.717-38.701,36.453
			c-37.546,33.711-75.175,67.202-112.794,100.719c-5.036,4.484-10.069,9.086-15.353,12.779
			c-24.312,17.014-43.332-0.183-44.456-41.576c-1.014-37.256-0.466-74.608-0.583-111.916c-0.035-11.44-0.004-22.875-0.004-34.307
			C25.975,202.156,25.934,157.618,26.003,113.082z"/>
		<path fill="#848484" stroke="#F1F2F2" stroke-miterlimit="10" d="M25.99,246.692c-0.017-44.536-0.058-89.074,0.013-133.61
			c0.02-12.032,0.15-24.079,3.334-35.467c5.571-19.953,17.58-29.662,31.176-24.878c6.863,2.416,13.134,7.05,19.209,12.501
			c49.286,44.221,98.612,88.348,147.892,132.59c3.679,3.302,7.32,6.85,10.639,10.96c18.248,22.604,18.521,54.422-0.358,75.752
			c-12.164,13.735-25.634,24.717-38.701,36.453c-37.546,33.711-75.175,67.202-112.794,100.719
			c-5.036,4.484-10.069,9.086-15.353,12.779c-24.312,17.014-43.332-0.183-44.456-41.576c-1.014-37.256-0.466-74.608-0.583-111.916
			C25.971,269.559,26.002,258.124,25.99,246.692z"/>
	</g>
	<g display="inline">
		<path fill="#848484" stroke="#F1F2F2" stroke-miterlimit="10" d="M255.005,121.757c0.018-11.291,0.148-22.596,3.273-33.282
			c5.474-18.722,17.271-27.833,30.632-23.345c6.739,2.268,12.9,6.615,18.87,11.73c48.423,41.498,96.883,82.905,145.301,124.419
			c3.613,3.101,7.193,6.43,10.451,10.286c17.93,21.211,18.196,51.068-0.353,71.083c-11.949,12.893-25.186,23.195-38.022,34.205
			c-36.889,31.637-73.857,63.065-110.819,94.516c-4.945,4.206-9.894,8.523-15.08,11.992c-23.887,15.964-42.576-0.172-43.679-39.018
			c-0.995-34.959-0.456-70.011-0.572-105.019c-0.036-10.733-0.005-21.464-0.005-32.194
			C254.978,205.342,254.937,163.549,255.005,121.757z"/>
		<path fill="#848484" stroke="#F1F2F2" stroke-miterlimit="10" d="M254.989,247.132c-0.012-41.791-0.053-83.583,0.017-125.375
			c0.018-11.291,0.148-22.596,3.273-33.282c5.474-18.722,17.271-27.833,30.632-23.345c6.739,2.268,12.9,6.615,18.87,11.73
			c48.423,41.498,96.883,82.905,145.301,124.419c3.613,3.101,7.193,6.43,10.451,10.286c17.93,21.211,18.196,51.068-0.353,71.083
			c-11.949,12.893-25.186,23.195-38.022,34.205c-36.889,31.637-73.857,63.065-110.819,94.516c-4.945,4.206-9.894,8.523-15.08,11.992
			c-23.887,15.964-42.576-0.172-43.679-39.018c-0.995-34.959-0.456-70.011-0.572-105.019
			C254.971,268.593,255.002,257.863,254.989,247.132z"/>
	</g>
</g>
<g id="Layer_4">
	<g>
		<path fill="#848484" stroke="#F1F2F2" stroke-miterlimit="10" d="M97.104,449.99c0,2.375,0.007,4.751,0,7.128
			c-0.024,7.753,0.089,15.514-0.121,23.254c-0.234,8.602-4.186,12.175-9.238,8.639c-1.097-0.767-2.143-1.723-3.189-2.655
			c-7.816-6.964-15.636-13.922-23.437-20.928c-2.715-2.438-5.514-4.719-8.041-7.574c-3.923-4.432-3.866-11.042-0.075-15.738
			c0.689-0.854,1.446-1.592,2.21-2.278c10.239-9.192,20.488-18.36,30.729-27.549c1.262-1.134,2.565-2.096,3.991-2.598
			c2.826-0.994,5.321,1.023,6.478,5.169c0.662,2.366,0.689,4.869,0.693,7.369C97.117,431.482,97.11,440.736,97.104,449.99z"/>
		<path fill="#848484" stroke="#F1F2F2" stroke-miterlimit="10" d="M97.107,449.99c0.003-9.254,0.012-18.508-0.003-27.762
			c-0.004-2.5-0.031-5.003-0.693-7.369c-1.157-4.146-3.653-6.163-6.478-5.169c-1.426,0.502-2.729,1.464-3.991,2.598
			c-10.241,9.188-20.489,18.356-30.729,27.549c-0.764,0.687-1.521,1.424-2.21,2.278c-3.792,4.696-3.848,11.307,0.075,15.738
			c2.527,2.855,5.326,5.137,8.041,7.574c7.801,7.006,15.62,13.964,23.437,20.928c1.046,0.933,2.093,1.889,3.19,2.655
			c5.052,3.536,9.003-0.038,9.237-8.639c0.211-7.74,0.097-15.501,0.121-23.254C97.111,454.741,97.104,452.365,97.107,449.99z"/>
	</g>
	<g>
		<path fill="#848484" stroke="#F1F2F2" stroke-miterlimit="10" d="M49.522,450.081c0,2.23,0.006,4.459-0.001,6.69
			c-0.024,7.273,0.087,14.557-0.119,21.82c-0.229,8.071-4.113,11.424-9.076,8.107c-1.078-0.721-2.106-1.618-3.133-2.491
			c-7.68-6.535-15.362-13.065-23.027-19.64c-2.667-2.287-5.417-4.428-7.9-7.106c-3.854-4.159-3.798-10.362-0.073-14.771
			c0.677-0.801,1.421-1.493,2.171-2.137c10.061-8.626,20.129-17.229,30.191-25.852c1.24-1.063,2.521-1.967,3.921-2.438
			c2.776-0.934,5.227,0.96,6.364,4.85c0.649,2.222,0.677,4.57,0.681,6.916C49.535,432.715,49.527,441.398,49.522,450.081z"/>
		<path fill="#848484" stroke="#F1F2F2" stroke-miterlimit="10" d="M49.525,450.081c0.002-8.684,0.011-17.366-0.003-26.05
			c-0.004-2.346-0.031-4.695-0.68-6.916c-1.137-3.89-3.588-5.783-6.364-4.851c-1.4,0.472-2.681,1.375-3.921,2.438
			c-10.062,8.622-20.131,17.226-30.191,25.852c-0.75,0.644-1.495,1.336-2.171,2.137c-3.725,4.408-3.781,10.611,0.073,14.77
			c2.483,2.68,5.233,4.819,7.9,7.107c7.665,6.574,15.347,13.104,23.026,19.639c1.027,0.874,2.055,1.771,3.133,2.492
			c4.963,3.316,8.847-0.036,9.076-8.107c0.207-7.264,0.095-14.547,0.119-21.82C49.529,454.541,49.522,452.312,49.525,450.081z"/>
	</g>
</g>
<g id="Layer_5" display="none">
	<g display="inline">
		<path fill="none" d="M303.283,405.896c9.038,0,18.075-0.078,27.11,0.016c22.135,0.229,19.451-2.774,19.629,19.186
			c0.076,9.349,0.184,18.702-0.047,28.045c-0.197,8.062,2.752,8.286,8.738,4.43c30.639-19.75,61.416-39.291,92.082-58.999
			c6.057-3.894,11.395-8.689,15.606-14.611c8.988-12.637,7.973-26.487-3.152-37.165c-3.553-3.408-7.725-6.361-12.043-8.748
			c-30.815-17.02-61.782-33.768-92.602-50.781c-5.904-3.261-8.537-2.481-8.469,4.67c0.119,12.463-0.324,24.938,0.096,37.39
			c0.252,7.544-2.174,10.712-10.09,10.373c-11.82-0.507-23.703-0.609-35.514-0.019c-19.033,0.955-31.988-7.498-40.955-23.809
			c-18.761-34.124-37.829-68.078-56.75-102.114c-13.471-24.234-26.851-48.518-40.38-72.718
			c-8.447-15.108-20.661-25.124-38.609-25.487c-22.116-0.447-44.251-0.357-66.371-0.044c-17.374,0.247-29.322,13.681-29.243,32.035
			c0.09,20.229,11.427,33.184,29.698,33.6c10.901,0.248,21.819-0.14,32.717,0.174c13.325,0.385,23.686,5.416,30.444,17.941
			c17.162,31.799,34.959,63.256,52.517,94.842c14.683,26.414,28.999,53.041,44.195,79.153
			c12.565,21.593,30.123,35.416,57.097,32.764C287.016,405.229,295.182,405.896,303.283,405.896z M297.938,115.378
			c0,0.013,0,0.025,0,0.039c-13.705,0-27.408-0.024-41.11,0.007c-14.258,0.032-25.354,6.367-32.867,18.125
			c-5.685,8.896-10.176,18.552-15.205,27.866c-1.717,3.181-2.264,6.239-0.354,9.707c9.319,16.906,18.553,33.861,27.671,50.876
			c2.731,5.096,5,4.543,7.854,0.174c6.127-9.381,12.503-18.6,18.581-28.012c5.799-8.977,14.307-12.723,24.537-12.832
			c18.062-0.193,36.131,0.124,54.188-0.193c7.135-0.126,9.168,3.015,9.006,9.59c-0.305,12.45,0.011,24.914-0.16,37.371
			c-0.082,6.061,1.029,9.231,7.869,5.48c31.396-17.217,63.267-33.609,94.197-51.612c26.209-15.252,27.014-39.423,1.818-56.433
			C422.491,104.283,389.98,84.574,358,64.071c-6.507-4.172-7.82-1.667-7.716,4.784c0.203,12.454-0.215,24.92,0.074,37.371
			c0.158,6.919-2.701,9.375-9.442,9.24C326.594,115.18,312.264,115.378,297.938,115.378z M97.277,405.896c0-0.02,0-0.039,0-0.06
			c12.468,0,24.935-0.014,37.401,0.005c12.094,0.019,20.897-5.417,26.359-16.126c5.807-11.381,11.394-22.873,17.162-34.274
			c1.813-3.586,2.176-6.949,0.13-10.631c-9.541-17.154-19.016-34.349-28.42-51.578c-3.447-6.312-6.12-4.547-8.896,0.487
			c-4.664,8.458-9.4,16.878-14.168,25.278c-6.235,10.984-15.364,17.423-28.126,19.312c-11.517,1.705-23.013,1.029-34.52,1.248
			c-16.633,0.313-28.027,9.148-31.236,25.225c-3.789,18.976,2.925,43.412,32.532,41.236
			C76.035,405.245,86.68,405.896,97.277,405.896z"/>
		<path d="M303.283,405.896c-8.103,0-16.269-0.668-24.294,0.121c-26.975,2.652-44.531-11.17-57.097-32.764
			c-15.196-26.113-29.514-52.738-44.195-79.152c-17.558-31.586-35.354-63.043-52.517-94.843
			c-6.759-12.525-17.12-17.557-30.444-17.941c-10.897-0.313-21.814,0.074-32.717-0.174c-18.271-0.416-29.608-13.371-29.698-33.6
			c-0.079-18.354,11.869-31.789,29.243-32.035c22.12-0.313,44.254-0.403,66.371,0.044c17.948,0.363,30.163,10.378,38.609,25.487
			c13.529,24.2,26.91,48.483,40.38,72.718c18.921,34.036,37.989,67.99,56.75,102.114c8.967,16.312,21.922,24.765,40.955,23.81
			c11.811-0.593,23.692-0.488,35.514,0.018c7.916,0.339,10.342-2.829,10.09-10.373C349.814,316.875,351,293,351,293
			c2.86-5.936,10.346-4.26,16.25-1c30.817,17.016,53.143,29.027,83.959,46.048c4.317,2.386,8.489,5.341,12.043,8.748
			c11.125,10.679,12.141,24.528,3.151,37.165c-4.213,5.922-9.551,10.719-15.606,14.611c-30.666,19.708-61.443,39.249-92.082,58.999
			c-5.986,3.856-8.937,3.633-8.738-4.43c0.229-9.343,0.123-18.696,0.047-28.045c-0.178-21.96,2.506-18.956-19.629-19.186
			C321.359,405.818,312.322,405.896,303.283,405.896z"/>
		<path d="M297.938,115.378c14.326,0,28.656-0.198,42.979,0.088c6.742,0.135,9.603-2.321,9.443-9.24
			c-0.289-12.451,0.129-24.917-0.074-37.371c-0.104-6.451,1.209-8.956,7.715-4.784c31.98,20.503,64.492,40.211,95.966,61.459
			c25.194,17.01,24.391,41.181-1.818,56.433c-30.932,18.003-62.803,34.396-94.197,51.612c-6.84,3.751-7.95,0.58-7.869-5.48
			c0.171-12.457-0.145-24.921,0.16-37.371c0.162-6.575-1.871-9.716-9.006-9.59c-18.059,0.317-36.127,0-54.188,0.193
			c-10.23,0.109-18.738,3.855-24.537,12.832c-6.078,9.412-35.38,60.459-41.508,69.84c-2.854,4.369-8.27,5.096-11,0
			c-9.119-17.016-6.682-28.094-16-45c-1.912-3.468-7.717-18.819-6-22c5.029-9.313,30.274-54.555,35.959-63.451
			c7.513-11.758,18.609-18.094,32.867-18.125c13.702-0.031,27.405-0.007,41.11-0.007
			C297.938,115.403,297.938,115.391,297.938,115.378z"/>
		<path d="M97.277,405.896c-10.597,0-21.241-0.65-31.781,0.123c-29.607,2.176-36.321-22.262-32.532-41.236
			c3.209-16.075,14.604-24.91,31.236-25.225c11.507-0.219,23.003,0.457,34.52-1.248c12.762-1.89,21.891-8.328,28.126-19.312
			c4.769-8.4,29.491-57.54,34.155-65.998c2.775-5.035,14.553,9.688,18,16c9.405,17.229,9.459,23.845,19,41
			c2.046,3.682-17.987,41.854-19.801,45.441c-5.769,11.4-11.355,22.894-17.162,34.273c-5.461,10.709-14.266,16.145-26.359,16.126
			c-12.467-0.019-24.935-0.005-37.401-0.005C97.277,405.856,97.277,405.877,97.277,405.896z"/>
	</g>
</g>
<g id="Layer_6">
</g>
</svg>
