<?xml version="1.0" encoding="utf-8"?>
<!-- Generator: Adobe Illustrator 15.0.0, SVG Export Plug-In . SVG Version: 6.00 Build 0)  -->
<!DOCTYPE svg PUBLIC "-//W3C//DTD SVG 1.1//EN" "http://www.w3.org/Graphics/SVG/1.1/DTD/svg11.dtd">
<svg version="1.1" id="Layer_1" xmlns="http://www.w3.org/2000/svg" xmlns:xlink="http://www.w3.org/1999/xlink" x="0px" y="0px"
	 width="44.765px" height="42.688px" viewBox="0 0 44.765 42.688" enable-background="new 0 0 44.765 42.688" xml:space="preserve">
<g>
	<path fill-rule="evenodd" clip-rule="evenodd" fill="#FFB715" d="M22.566,0c0.146,0.025,0.291,0.05,0.437,0.076
		c2.929,4.056,4.333,9.188,6.945,13.469c2.735,0.359,5.63,0.825,9.321,1.463c2.047,0.354,5.657,0.463,5.489,1.997
		c-0.017,0.097-0.033,0.194-0.051,0.291c-3.368,3.664-7.146,6.748-10.605,10.283c0.379,2.457,0.848,5.005,1.238,7.545
		c0.383,2.491,1.226,5.132,0.486,7.564c-2.528-0.113-4.747-1.805-6.961-3c-2.231-1.205-4.462-2.451-6.545-3.676
		c-4.578,1.95-8.751,4.473-13.249,6.535c-0.145-0.025-0.291-0.051-0.436-0.075c-1.494-0.305-0.422-3.611-0.012-5.986
		c0.398-2.301,0.717-4.524,1.03-5.956c0.167-0.763,0.769-2.3,0.673-3.024c-0.171-1.298-4.334-4.565-5.322-5.559
		C3.087,20.015,1.553,18.631,0,16.293c0.025-0.146,0.05-0.291,0.076-0.436c0.392-0.522,0.674-0.619,1.338-0.816
		c3.87-1.147,9.885-0.768,13.777-1.806c0.838-2.067,2.104-4.208,3.41-6.74C19.571,4.613,20.984,0.717,22.566,0z M19.646,9.967
		c-0.988,1.94-1.786,4.252-2.868,5.338c-0.61,0.613-2.358,0.564-3.567,0.729c-3.259,0.445-6.157,0.749-9.193,1.252
		c1.37,1.499,2.958,2.866,4.601,4.536c1.036,1.053,3.974,3.278,4.26,4.777c0.232,1.212-0.375,2.507-0.653,3.776
		c-0.574,2.626-0.883,5.627-1.458,8.425c1.734-0.556,3.526-1.747,5.567-2.777c1.151-0.581,4.696-2.832,6.003-2.701
		c0.766,0.076,1.832,1.029,2.729,1.52c2.985,1.629,5.698,2.896,8.358,4.438c-0.201-2.024-0.705-4-1.028-6.162
		c-0.229-1.533-1.2-5.175-0.833-6.428c0.181-0.614,1.57-1.728,2.195-2.312c2.171-2.034,3.994-3.707,5.899-5.562
		c0.276-0.269,0.935-0.59,0.782-1.062c-4.109-0.875-8.496-1.208-12.202-2.111c-2.249-3.601-3.613-7.826-5.794-11.475
		C21.656,5.937,20.726,7.846,19.646,9.967z"/>
</g>
</svg>
