<?xml version="1.0" encoding="utf-8"?>
<!-- Generator: Adobe Illustrator 15.0.0, SVG Export Plug-In . SVG Version: 6.00 Build 0)  -->
<!DOCTYPE svg PUBLIC "-//W3C//DTD SVG 1.1//EN" "http://www.w3.org/Graphics/SVG/1.1/DTD/svg11.dtd">
<svg version="1.1" id="Layer_1" xmlns="http://www.w3.org/2000/svg" xmlns:xlink="http://www.w3.org/1999/xlink" x="0px" y="0px"
	 width="44.765px" height="42.688px" viewBox="0 0 44.765 42.688" enable-background="new 0 0 44.765 42.688" xml:space="preserve">
<g>
	<g id="XMLID_1_">
		<g>
			<path fill="#FFB715" d="M40.442,17.756c0.15,0.47-0.51,0.79-0.78,1.06c-1.909,1.85-3.729,3.53-5.899,5.56
				c-0.63,0.59-2.021,1.7-2.2,2.31c-0.37,1.261,0.6,4.9,0.83,6.431c0.33,2.16,0.83,4.14,1.03,6.16c-2.66-1.54-5.37-2.811-8.36-4.431
				c-0.89-0.49-1.96-1.45-2.72-1.52c-1.311-0.13-4.86,2.12-6.01,2.7c-2.04,1.029-3.83,2.22-5.56,2.77c0.57-2.79,0.88-5.79,1.45-8.42
				c0.28-1.271,0.89-2.561,0.66-3.78c-0.29-1.5-3.23-3.72-4.26-4.77c-1.65-1.67-3.24-3.04-4.61-4.54c3.04-0.5,5.94-0.81,9.2-1.25
				c1.21-0.17,2.95-0.12,3.56-0.73c1.09-1.09,1.89-3.4,2.87-5.34c1.08-2.12,2.01-4.03,2.8-5.8c2.18,3.65,3.55,7.88,5.8,11.48
				C31.942,16.546,36.332,16.876,40.442,17.756z"/>
			<path fill="#FFB715" d="M39.272,15.006c2.04,0.36,5.65,0.46,5.49,2c-0.021,0.1-0.04,0.19-0.05,0.29
				c-3.37,3.66-7.15,6.75-10.61,10.28c0.38,2.46,0.85,5.01,1.24,7.55c0.38,2.49,1.22,5.13,0.479,7.56c-2.52-0.109-4.74-1.8-6.96-3
				c-2.229-1.199-4.46-2.449-6.54-3.67c-4.58,1.95-8.75,4.471-13.25,6.53c-0.15-0.02-0.29-0.05-0.44-0.07
				c-1.49-0.31-0.42-3.62-0.01-5.989c0.4-2.301,0.72-4.521,1.03-5.96c0.17-0.761,0.77-2.301,0.68-3.021
				c-0.18-1.3-4.34-4.57-5.33-5.56c-1.92-1.93-3.45-3.32-5-5.65c0.02-0.15,0.05-0.29,0.07-0.44c0.39-0.52,0.68-0.62,1.34-0.81
				c3.87-1.15,9.89-0.77,13.78-1.81c0.84-2.07,2.1-4.21,3.41-6.74c0.97-1.88,2.38-5.78,3.96-6.5c0.15,0.03,0.29,0.05,0.44,0.08
				c2.93,4.06,4.329,9.19,6.949,13.47C32.683,13.906,35.582,14.366,39.272,15.006z M39.662,18.816c0.271-0.27,0.931-0.59,0.78-1.06
				c-4.11-0.88-8.5-1.21-12.2-2.11c-2.25-3.6-3.62-7.83-5.8-11.48c-0.79,1.77-1.72,3.68-2.8,5.8c-0.98,1.94-1.78,4.25-2.87,5.34
				c-0.61,0.61-2.35,0.56-3.56,0.73c-3.26,0.44-6.16,0.75-9.2,1.25c1.37,1.5,2.96,2.87,4.61,4.54c1.03,1.05,3.97,3.27,4.26,4.77
				c0.23,1.22-0.38,2.51-0.66,3.78c-0.57,2.63-0.88,5.63-1.45,8.42c1.73-0.55,3.52-1.74,5.56-2.77c1.15-0.58,4.7-2.83,6.01-2.7
				c0.76,0.069,1.83,1.029,2.72,1.52c2.99,1.62,5.7,2.891,8.36,4.431c-0.2-2.021-0.7-4-1.03-6.16c-0.23-1.53-1.2-5.17-0.83-6.431
				c0.18-0.609,1.57-1.72,2.2-2.31C35.933,22.346,37.753,20.666,39.662,18.816z"/>
		</g>
		<g>
		</g>
	</g>
</g>
</svg>
