<?xml version="1.0" encoding="utf-8"?>
<!-- Generator: Adobe Illustrator 15.0.0, SVG Export Plug-In . SVG Version: 6.00 Build 0)  -->
<!DOCTYPE svg PUBLIC "-//W3C//DTD SVG 1.1//EN" "http://www.w3.org/Graphics/SVG/1.1/DTD/svg11.dtd">
<svg version="1.1" id="Layer_1" xmlns="http://www.w3.org/2000/svg" xmlns:xlink="http://www.w3.org/1999/xlink" x="0px" y="0px"
	 width="100px" height="100px" viewBox="0 0 100 100" enable-background="new 0 0 100 100" xml:space="preserve">
<g id="Layer_1_1_" display="none">
	<g display="inline">
		<path fill="#848484" stroke="#F1F2F2" stroke-miterlimit="10" d="M32.077,249.072c0,14.478-0.062,28.951,0.011,43.436
			c0.231,47.229-0.847,94.521,1.145,141.688c2.211,52.404,39.641,74.176,87.478,52.638c10.393-4.679,20.301-10.504,30.206-16.18
			c74.021-42.432,148.062-84.834,221.94-127.516c25.711-14.854,52.219-28.757,76.15-46.147
			c37.146-27.005,36.609-67.286,0.705-95.903c-6.525-5.203-13.695-9.693-20.934-13.876
			c-96.967-56.009-194.02-111.875-290.998-167.86C125.825,12.45,113.488,6.583,99.984,3.525C73.232-2.532,49.601,9.76,38.639,35.02
			c-6.256,14.417-6.52,29.669-6.558,44.902C31.945,136.307,32.027,192.691,32.077,249.072z"/>
		<path fill="#848484" stroke="#F1F2F2" stroke-miterlimit="10" d="M32.052,249.072c-0.025-56.381-0.107-112.766,0.029-169.15
			c0.038-15.232,0.302-30.485,6.558-44.902C49.601,9.76,73.232-2.532,99.984,3.524c13.504,3.058,25.842,8.925,37.797,15.826
			c96.979,55.986,194.031,111.851,290.998,167.86c7.236,4.183,14.406,8.673,20.934,13.876c35.904,28.617,36.441,68.9-0.705,95.903
			c-23.934,17.393-50.439,31.295-76.15,46.147c-73.879,42.684-147.918,85.084-221.94,127.516
			c-9.905,5.676-19.813,11.501-30.206,16.18c-47.836,21.538-85.267-0.231-87.478-52.638c-1.99-47.167-0.912-94.458-1.145-141.688
			C32.016,278.023,32.077,263.55,32.052,249.072z"/>
	</g>
</g>
<g id="Layer_2">
	<path fill="#FFFFFF" stroke="#848484" stroke-miterlimit="10" d="M41.81,85.674c0,5.475-4.437,9.91-9.909,9.91H17.829
		c-5.474,0-9.909-4.438-9.909-9.91V14.327c0-5.474,4.437-9.91,9.909-9.91h14.072c5.473,0,9.909,4.437,9.909,9.91V85.674z"/>
	<path fill="#FFFFFF" stroke="#848484" stroke-miterlimit="10" d="M92.08,85.674c0,5.475-4.436,9.91-9.91,9.91H68.098
		c-5.473,0-9.908-4.438-9.908-9.91V14.327c0-5.474,4.438-9.91,9.908-9.91H82.17c5.475,0,9.908,4.437,9.908,9.91v71.347H92.08z"/>
</g>
<g id="Layer_3" display="none">
	<g display="inline">
		<path fill="#848484" stroke="#F1F2F2" stroke-miterlimit="10" d="M26.003,113.082c0.02-12.032,0.15-24.079,3.334-35.467
			c5.571-19.953,17.58-29.662,31.177-24.879c6.862,2.416,13.133,7.051,19.209,12.502c49.285,44.221,98.611,88.348,147.891,132.59
			c3.68,3.302,7.32,6.85,10.64,10.96c18.248,22.604,18.521,54.422-0.358,75.752c-12.164,13.735-25.633,24.717-38.701,36.453
			C161.648,354.704,124.02,388.195,86.4,421.712c-5.037,4.484-10.069,9.086-15.354,12.779
			c-24.312,17.014-43.332-0.184-44.456-41.576c-1.014-37.256-0.466-74.608-0.583-111.916c-0.035-11.44-0.004-22.875-0.004-34.308
			C25.975,202.156,25.934,157.618,26.003,113.082z"/>
		<path fill="#848484" stroke="#F1F2F2" stroke-miterlimit="10" d="M25.99,246.691c-0.017-44.535-0.058-89.073,0.013-133.609
			c0.02-12.032,0.15-24.079,3.334-35.467c5.571-19.953,17.58-29.662,31.177-24.879c6.862,2.416,13.133,7.051,19.209,12.502
			c49.285,44.221,98.611,88.348,147.891,132.59c3.68,3.302,7.32,6.85,10.64,10.96c18.248,22.604,18.521,54.422-0.358,75.752
			c-12.164,13.735-25.633,24.717-38.701,36.453C161.648,354.704,124.02,388.195,86.4,421.712
			c-5.037,4.484-10.069,9.086-15.354,12.779c-24.312,17.014-43.332-0.184-44.456-41.576c-1.014-37.256-0.466-74.608-0.583-111.916
			C25.971,269.559,26.002,258.124,25.99,246.691z"/>
	</g>
	<g display="inline">
		<path fill="#848484" stroke="#F1F2F2" stroke-miterlimit="10" d="M255.005,121.757c0.019-11.291,0.147-22.596,3.272-33.282
			c5.475-18.722,17.271-27.832,30.633-23.345c6.738,2.269,12.9,6.615,18.869,11.729c48.424,41.498,96.883,82.906,145.301,124.42
			c3.613,3.101,7.193,6.43,10.451,10.285c17.932,21.211,18.197,51.068-0.352,71.084c-11.949,12.893-25.188,23.194-38.023,34.205
			c-36.889,31.637-73.855,63.064-110.818,94.516c-4.945,4.206-9.895,8.522-15.08,11.992c-23.887,15.964-42.576-0.172-43.679-39.019
			c-0.995-34.959-0.456-70.011-0.572-105.019c-0.036-10.733-0.005-21.465-0.005-32.194
			C254.979,205.342,254.938,163.549,255.005,121.757z"/>
		<path fill="#848484" stroke="#F1F2F2" stroke-miterlimit="10" d="M254.988,247.132c-0.012-41.791-0.053-83.583,0.018-125.375
			c0.018-11.291,0.148-22.596,3.273-33.282c5.474-18.722,17.271-27.832,30.632-23.345c6.739,2.269,12.899,6.615,18.87,11.729
			c48.422,41.498,96.883,82.906,145.301,124.42c3.613,3.101,7.193,6.43,10.451,10.285c17.93,21.211,18.195,51.068-0.354,71.084
			c-11.949,12.893-25.186,23.194-38.021,34.205c-36.889,31.637-73.857,63.064-110.818,94.516
			c-4.945,4.206-9.895,8.522-15.081,11.992c-23.887,15.964-42.575-0.172-43.679-39.019c-0.995-34.959-0.456-70.011-0.572-105.019
			C254.971,268.593,255.002,257.863,254.988,247.132z"/>
	</g>
</g>
<g id="Layer_4" display="none">
	<g display="inline">
		<path fill="#848484" stroke="#F1F2F2" stroke-miterlimit="10" d="M483.996,246.691c0,11.433,0.031,22.867-0.004,34.308
			c-0.115,37.308,0.434,74.66-0.582,111.916c-1.125,41.395-20.145,58.59-44.457,41.576c-5.279-3.693-10.314-8.295-15.352-12.779
			c-37.619-33.517-75.248-67.008-112.795-100.719c-13.065-11.736-26.537-22.718-38.701-36.453
			c-18.879-21.33-18.604-53.147-0.356-75.752c3.315-4.11,6.96-7.658,10.638-10.96c49.277-44.242,98.604-88.369,147.893-132.59
			c6.074-5.452,12.348-10.086,19.209-12.502c13.598-4.783,25.604,4.927,31.176,24.879c3.184,11.388,3.314,23.435,3.334,35.467
			C484.066,157.618,484.025,202.156,483.996,246.691z"/>
		<path fill="#848484" stroke="#F1F2F2" stroke-miterlimit="10" d="M484.01,246.691c0.016-44.535,0.057-89.073-0.014-133.609
			c-0.02-12.032-0.15-24.079-3.334-35.467c-5.57-19.953-17.58-29.662-31.176-24.879c-6.863,2.416-13.135,7.051-19.209,12.502
			c-49.287,44.221-98.611,88.348-147.893,132.59c-3.678,3.302-7.32,6.85-10.638,10.96c-18.248,22.604-18.521,54.422,0.356,75.752
			c12.164,13.735,25.635,24.717,38.701,36.453c37.547,33.711,75.176,67.202,112.795,100.719c5.035,4.484,10.07,9.086,15.352,12.779
			c24.312,17.014,43.332-0.184,44.457-41.576c1.016-37.256,0.467-74.608,0.582-111.916
			C484.029,269.559,483.996,258.124,484.01,246.691z"/>
	</g>
	<g display="inline">
		<path fill="#848484" stroke="#F1F2F2" stroke-miterlimit="10" d="M254.998,247.132c0,10.731,0.029,21.46-0.005,32.194
			c-0.116,35.008,0.423,70.06-0.572,105.019c-1.104,38.847-19.792,54.98-43.678,39.019c-5.188-3.47-10.136-7.786-15.081-11.992
			c-36.962-31.45-73.934-62.88-110.82-94.518c-12.838-11.008-26.074-21.312-38.023-34.203c-18.549-20.018-18.28-49.875-0.353-71.084
			c3.258-3.855,6.839-7.186,10.451-10.285c48.418-41.514,96.878-82.922,145.302-124.42c5.969-5.114,12.131-9.461,18.871-11.729
			c13.359-4.487,25.158,4.624,30.631,23.345c3.125,10.688,3.256,21.991,3.273,33.282
			C255.062,163.549,255.021,205.342,254.998,247.132z"/>
		<path fill="#848484" stroke="#F1F2F2" stroke-miterlimit="10" d="M255.012,247.132c0.012-41.791,0.053-83.583-0.017-125.375
			c-0.019-11.291-0.149-22.596-3.274-33.282c-5.473-18.722-17.271-27.832-30.63-23.345c-6.741,2.269-12.901,6.615-18.87,11.729
			c-48.424,41.498-96.885,82.906-145.303,124.42c-3.611,3.101-7.193,6.43-10.451,10.285c-17.929,21.211-18.196,51.068,0.353,71.084
			c11.95,12.893,25.186,23.194,38.023,34.205c36.888,31.637,73.858,63.064,110.819,94.516c4.945,4.206,9.893,8.522,15.081,11.992
			c23.886,15.964,42.575-0.172,43.678-39.019c0.995-34.959,0.456-70.011,0.572-105.019
			C255.029,268.593,254.998,257.863,255.012,247.132z"/>
	</g>
</g>
<g id="Layer_5" display="none">
	<g display="inline">
		<path fill="none" d="M303.283,405.896c9.037,0,18.074-0.078,27.109,0.016c22.135,0.229,19.451-2.774,19.629,19.186
			c0.076,9.35,0.184,18.702-0.047,28.045c-0.197,8.062,2.752,8.286,8.738,4.431c30.639-19.75,61.416-39.291,92.082-58.999
			c6.057-3.895,11.395-8.689,15.605-14.611c8.988-12.637,7.973-26.486-3.152-37.165c-3.553-3.407-7.725-6.36-12.043-8.748
			c-30.814-17.02-61.781-33.768-92.602-50.78c-5.904-3.262-8.537-2.481-8.469,4.67c0.119,12.463-0.324,24.938,0.096,37.39
			c0.252,7.544-2.174,10.712-10.09,10.373c-11.82-0.507-23.703-0.609-35.514-0.019c-19.033,0.955-31.988-7.498-40.955-23.81
			c-18.761-34.124-37.829-68.078-56.75-102.114c-13.471-24.234-26.852-48.518-40.38-72.718
			c-8.446-15.108-20.661-25.124-38.608-25.487c-22.117-0.447-44.252-0.356-66.371-0.043c-17.375,0.246-29.323,13.68-29.244,32.034
			c0.09,20.229,11.427,33.185,29.699,33.601c10.9,0.248,21.818-0.141,32.717,0.174c13.324,0.385,23.686,5.416,30.443,17.94
			c17.162,31.8,34.959,63.257,52.518,94.843c14.683,26.414,28.998,53.041,44.195,79.152c12.564,21.594,30.123,35.416,57.096,32.765
			C287.016,405.229,295.182,405.896,303.283,405.896z M297.938,115.378c0,0.013,0,0.024,0,0.039
			c-13.705,0-27.408-0.024-41.109,0.007c-14.258,0.032-25.354,6.367-32.867,18.125c-5.686,8.896-10.176,18.553-15.205,27.866
			c-1.717,3.181-2.264,6.239-0.354,9.707c9.318,16.905,18.553,33.86,27.67,50.876c2.732,5.096,5,4.543,7.855,0.174
			c6.127-9.381,12.502-18.6,18.58-28.012c5.799-8.977,14.307-12.723,24.537-12.832c18.062-0.193,36.131,0.124,54.188-0.193
			c7.135-0.126,9.168,3.016,9.006,9.59c-0.305,12.45,0.012,24.914-0.16,37.371c-0.082,6.062,1.029,9.231,7.869,5.48
			c31.396-17.217,63.268-33.609,94.197-51.612c26.209-15.252,27.014-39.423,1.818-56.433C422.49,104.283,389.98,84.574,358,64.07
			c-6.508-4.172-7.82-1.666-7.717,4.785c0.203,12.453-0.215,24.92,0.074,37.371c0.158,6.918-2.701,9.375-9.441,9.239
			C326.594,115.18,312.264,115.378,297.938,115.378z M97.277,405.896c0-0.021,0-0.039,0-0.061c12.468,0,24.935-0.014,37.4,0.005
			c12.094,0.02,20.897-5.417,26.359-16.126c5.807-11.381,11.395-22.873,17.162-34.273c1.812-3.586,2.176-6.949,0.13-10.631
			c-9.541-17.154-19.017-34.35-28.42-51.578c-3.447-6.312-6.12-4.547-8.896,0.486c-4.664,8.458-9.4,16.879-14.168,25.278
			c-6.236,10.983-15.365,17.423-28.127,19.312c-11.517,1.705-23.013,1.029-34.52,1.248c-16.633,0.313-28.027,9.148-31.236,25.226
			c-3.789,18.976,2.925,43.412,32.532,41.235C76.035,405.245,86.68,405.896,97.277,405.896z"/>
		<path d="M303.283,405.896c-8.104,0-16.27-0.669-24.295,0.12c-26.975,2.652-44.53-11.169-57.096-32.764
			c-15.197-26.112-29.515-52.737-44.195-79.151c-17.559-31.586-35.354-63.043-52.518-94.844
			c-6.759-12.525-17.119-17.557-30.443-17.941c-10.897-0.312-21.814,0.074-32.717-0.174c-18.271-0.416-29.608-13.371-29.699-33.6
			c-0.079-18.354,11.869-31.789,29.244-32.035c22.119-0.312,44.254-0.402,66.371,0.044c17.947,0.363,30.162,10.378,38.608,25.487
			c13.529,24.2,26.91,48.482,40.38,72.718c18.922,34.036,37.989,67.99,56.75,102.114c8.967,16.312,21.922,24.765,40.955,23.811
			c11.811-0.594,23.691-0.488,35.514,0.018c7.916,0.339,10.342-2.829,10.09-10.373C349.814,316.875,351,293,351,293
			c2.859-5.936,10.346-4.26,16.25-1c30.816,17.016,53.143,29.027,83.959,46.048c4.316,2.386,8.488,5.341,12.043,8.748
			c11.125,10.679,12.141,24.528,3.15,37.165c-4.213,5.922-9.551,10.719-15.605,14.611c-30.666,19.708-61.443,39.249-92.082,58.999
			c-5.986,3.855-8.938,3.633-8.738-4.431c0.229-9.343,0.123-18.695,0.047-28.045c-0.178-21.96,2.506-18.956-19.629-19.186
			C321.359,405.818,312.322,405.896,303.283,405.896z"/>
		<path d="M297.938,115.378c14.326,0,28.656-0.198,42.979,0.088c6.742,0.136,9.604-2.321,9.443-9.239
			c-0.289-12.451,0.129-24.918-0.074-37.371c-0.104-6.451,1.209-8.957,7.715-4.785c31.98,20.504,64.492,40.212,95.967,61.46
			c25.193,17.01,24.391,41.181-1.818,56.433c-30.932,18.003-62.803,34.396-94.197,51.612c-6.84,3.751-7.949,0.58-7.869-5.48
			c0.172-12.456-0.145-24.921,0.16-37.37c0.162-6.576-1.871-9.717-9.006-9.591c-18.059,0.317-36.127,0-54.188,0.193
			c-10.23,0.108-18.738,3.854-24.537,12.832c-6.078,9.411-35.38,60.459-41.508,69.84c-2.854,4.369-8.27,5.096-11,0
			c-9.119-17.017-6.682-28.094-16-45c-1.912-3.468-7.717-18.819-6-22c5.029-9.313,30.273-54.556,35.959-63.451
			c7.514-11.758,18.609-18.094,32.867-18.125c13.702-0.03,27.404-0.007,41.109-0.007
			C297.938,115.402,297.938,115.391,297.938,115.378z"/>
		<path d="M97.277,405.896c-10.598,0-21.241-0.65-31.781,0.122c-29.607,2.177-36.321-22.262-32.532-41.235
			c3.209-16.075,14.604-24.91,31.236-25.225c11.507-0.22,23.003,0.457,34.521-1.248c12.762-1.891,21.891-8.328,28.125-19.312
			c4.77-8.4,29.491-57.54,34.155-65.998c2.774-5.035,14.554,9.688,18,16c9.405,17.229,9.459,23.845,19,41
			c2.046,3.682-17.987,41.854-19.801,45.441c-5.769,11.399-11.354,22.894-17.162,34.272c-5.461,10.709-14.267,16.146-26.358,16.126
			c-12.468-0.019-24.936-0.005-37.402-0.005C97.277,405.856,97.277,405.877,97.277,405.896z"/>
	</g>
</g>
<g id="Layer_6">
</g>
</svg>
