<?xml version="1.0" encoding="utf-8"?>
<!-- Generator: Adobe Illustrator 15.0.0, SVG Export Plug-In . SVG Version: 6.00 Build 0)  -->
<!DOCTYPE svg PUBLIC "-//W3C//DTD SVG 1.1//EN" "http://www.w3.org/Graphics/SVG/1.1/DTD/svg11.dtd">
<svg version="1.1" id="Layer_1" xmlns="http://www.w3.org/2000/svg" xmlns:xlink="http://www.w3.org/1999/xlink" x="0px" y="0px"
	 width="100px" height="100px" viewBox="200 200 100 100" enable-background="new 200 200 100 100" xml:space="preserve">
<g id="Layer_1_1_" display="none">
	<g display="inline">
		<path fill="#848484" stroke="#F1F2F2" stroke-miterlimit="10" d="M32.077,249.072c0,14.478-0.062,28.951,0.011,43.436
			c0.231,47.229-0.847,94.521,1.145,141.688c2.211,52.405,39.641,74.176,87.478,52.638c10.393-4.679,20.3-10.504,30.206-16.18
			c74.021-42.431,148.062-84.833,221.94-127.515c25.712-14.854,52.219-28.757,76.151-46.148
			c37.147-27.004,36.61-67.286,0.705-95.903c-6.526-5.203-13.696-9.694-20.933-13.876c-96.968-56.009-194.02-111.875-290.999-167.86
			C125.825,12.45,113.489,6.583,99.985,3.525C73.232-2.532,49.601,9.76,38.639,35.02c-6.256,14.417-6.52,29.669-6.558,44.902
			C31.945,136.306,32.027,192.691,32.077,249.072z"/>
		<path fill="#848484" stroke="#F1F2F2" stroke-miterlimit="10" d="M32.052,249.072c-0.025-56.381-0.107-112.766,0.029-169.15
			c0.038-15.233,0.302-30.485,6.558-44.902C49.601,9.76,73.232-2.532,99.984,3.524c13.504,3.058,25.842,8.925,37.797,15.826
			C234.76,75.336,331.812,131.201,428.78,187.21c7.235,4.182,14.405,8.673,20.933,13.876c35.905,28.617,36.442,68.9-0.705,95.903
			c-23.934,17.393-50.439,31.295-76.151,46.147c-73.879,42.684-147.918,85.085-221.94,127.516
			c-9.906,5.676-19.813,11.501-30.206,16.18c-47.836,21.538-85.267-0.231-87.478-52.638c-1.99-47.167-0.912-94.458-1.145-141.688
			C32.016,278.023,32.077,263.55,32.052,249.072z"/>
	</g>
</g>
<g id="Layer_2" display="none">
	<path display="inline" fill="#848484" stroke="#F1F2F2" stroke-miterlimit="10" d="M205.599,432.457
		c0,27.914-22.628,50.543-50.543,50.543H83.284c-27.914,0-50.543-22.629-50.543-50.543V68.543C32.74,40.629,55.37,18,83.284,18
		h71.771c27.915,0,50.543,22.629,50.543,50.543V432.457z"/>
	<path display="inline" fill="#848484" stroke="#F1F2F2" stroke-miterlimit="10" d="M462,432.457
		C462,460.371,439.371,483,411.456,483h-71.771c-27.915,0-50.544-22.629-50.544-50.543V68.543c0-27.914,22.629-50.543,50.544-50.543
		h71.771C439.371,18,462,40.629,462,68.543V432.457z"/>
</g>
<g id="Layer_3" display="none">
	<g display="inline">
		<path fill="#848484" stroke="#F1F2F2" stroke-miterlimit="10" d="M26.003,113.082c0.02-12.032,0.15-24.079,3.334-35.467
			c5.571-19.953,17.58-29.662,31.176-24.878c6.863,2.416,13.134,7.05,19.209,12.501c49.286,44.221,98.612,88.348,147.892,132.59
			c3.679,3.302,7.32,6.85,10.639,10.96c18.248,22.604,18.521,54.422-0.358,75.752c-12.164,13.735-25.634,24.717-38.701,36.453
			c-37.546,33.711-75.175,67.202-112.794,100.719c-5.036,4.484-10.069,9.086-15.353,12.779
			c-24.312,17.014-43.332-0.183-44.456-41.576c-1.014-37.256-0.466-74.608-0.583-111.916c-0.035-11.44-0.004-22.875-0.004-34.307
			C25.975,202.156,25.934,157.618,26.003,113.082z"/>
		<path fill="#848484" stroke="#F1F2F2" stroke-miterlimit="10" d="M25.99,246.692c-0.017-44.536-0.058-89.074,0.013-133.61
			c0.02-12.032,0.15-24.079,3.334-35.467c5.571-19.953,17.58-29.662,31.176-24.878c6.863,2.416,13.134,7.05,19.209,12.501
			c49.286,44.221,98.612,88.348,147.892,132.59c3.679,3.302,7.32,6.85,10.639,10.96c18.248,22.604,18.521,54.422-0.358,75.752
			c-12.164,13.735-25.634,24.717-38.701,36.453c-37.546,33.711-75.175,67.202-112.794,100.719
			c-5.036,4.484-10.069,9.086-15.353,12.779c-24.312,17.014-43.332-0.183-44.456-41.576c-1.014-37.256-0.466-74.608-0.583-111.916
			C25.971,269.559,26.002,258.124,25.99,246.692z"/>
	</g>
	<g display="inline">
		<path fill="#848484" stroke="#F1F2F2" stroke-miterlimit="10" d="M255.005,121.757c0.018-11.291,0.148-22.596,3.273-33.282
			c5.474-18.722,17.271-27.833,30.632-23.345c6.739,2.268,12.9,6.615,18.87,11.73c48.423,41.498,96.883,82.905,145.301,124.419
			c3.613,3.101,7.193,6.43,10.451,10.286c17.93,21.211,18.196,51.068-0.353,71.083c-11.949,12.893-25.186,23.195-38.022,34.205
			c-36.889,31.637-73.857,63.065-110.819,94.516c-4.945,4.206-9.894,8.523-15.08,11.992c-23.887,15.964-42.576-0.172-43.679-39.018
			c-0.995-34.959-0.456-70.011-0.572-105.019c-0.036-10.733-0.005-21.464-0.005-32.194
			C254.978,205.342,254.937,163.549,255.005,121.757z"/>
		<path fill="#848484" stroke="#F1F2F2" stroke-miterlimit="10" d="M254.989,247.132c-0.012-41.791-0.053-83.583,0.017-125.375
			c0.018-11.291,0.148-22.596,3.273-33.282c5.474-18.722,17.271-27.833,30.632-23.345c6.739,2.268,12.9,6.615,18.87,11.73
			c48.423,41.498,96.883,82.905,145.301,124.419c3.613,3.101,7.193,6.43,10.451,10.286c17.93,21.211,18.196,51.068-0.353,71.083
			c-11.949,12.893-25.186,23.195-38.022,34.205c-36.889,31.637-73.857,63.065-110.819,94.516c-4.945,4.206-9.894,8.523-15.08,11.992
			c-23.887,15.964-42.576-0.172-43.679-39.018c-0.995-34.959-0.456-70.011-0.572-105.019
			C254.971,268.593,255.002,257.863,254.989,247.132z"/>
	</g>
</g>
<g id="Layer_4" display="none">
	<g display="inline">
		<path fill="#848484" stroke="#F1F2F2" stroke-miterlimit="10" d="M483.997,246.692c0,11.432,0.031,22.867-0.004,34.307
			c-0.116,37.308,0.432,74.66-0.583,111.916c-1.124,41.395-20.145,58.59-44.456,41.576c-5.281-3.693-10.315-8.295-15.353-12.779
			c-37.619-33.517-75.248-67.008-112.794-100.719c-13.066-11.736-26.537-22.718-38.701-36.453
			c-18.88-21.33-18.605-53.148-0.357-75.752c3.316-4.11,6.96-7.658,10.638-10.96c49.278-44.242,98.604-88.369,147.892-132.59
			c6.075-5.452,12.347-10.086,19.209-12.501c13.597-4.784,25.604,4.926,31.176,24.878c3.184,11.388,3.314,23.435,3.334,35.467
			C484.066,157.618,484.025,202.156,483.997,246.692z"/>
		<path fill="#848484" stroke="#F1F2F2" stroke-miterlimit="10" d="M484.01,246.692c0.016-44.536,0.057-89.074-0.014-133.61
			c-0.02-12.032-0.15-24.079-3.334-35.467c-5.57-19.953-17.58-29.662-31.176-24.878c-6.863,2.416-13.134,7.05-19.209,12.501
			c-49.286,44.221-98.611,88.348-147.892,132.59c-3.678,3.302-7.32,6.85-10.638,10.96c-18.248,22.604-18.521,54.422,0.357,75.752
			c12.164,13.735,25.635,24.717,38.701,36.453c37.546,33.711,75.175,67.202,112.794,100.719c5.036,4.484,10.07,9.086,15.353,12.779
			c24.312,17.014,43.332-0.183,44.456-41.576c1.015-37.256,0.467-74.608,0.583-111.916
			C484.029,269.559,483.997,258.124,484.01,246.692z"/>
	</g>
	<g display="inline">
		<path fill="#848484" stroke="#F1F2F2" stroke-miterlimit="10" d="M254.998,247.132c0,10.731,0.03,21.46-0.005,32.194
			c-0.116,35.008,0.423,70.06-0.572,105.019c-1.104,38.846-19.792,54.98-43.678,39.018c-5.188-3.469-10.136-7.786-15.081-11.992
			c-36.962-31.45-73.933-62.88-110.82-94.517c-12.838-11.008-26.074-21.312-38.023-34.203c-18.549-20.018-18.28-49.875-0.353-71.084
			c3.258-3.856,6.838-7.186,10.451-10.286c48.418-41.514,96.878-82.921,145.302-124.419c5.969-5.115,12.13-9.462,18.871-11.73
			c13.359-4.488,25.158,4.624,30.63,23.345c3.125,10.687,3.257,21.991,3.274,33.282
			C255.063,163.549,255.022,205.342,254.998,247.132z"/>
		<path fill="#848484" stroke="#F1F2F2" stroke-miterlimit="10" d="M255.011,247.132c0.012-41.791,0.053-83.583-0.016-125.375
			c-0.019-11.291-0.149-22.596-3.274-33.282c-5.473-18.722-17.271-27.833-30.63-23.345c-6.741,2.268-12.902,6.615-18.871,11.73
			c-48.423,41.498-96.884,82.905-145.302,124.419c-3.612,3.101-7.193,6.43-10.451,10.286c-17.929,21.211-18.196,51.068,0.353,71.083
			c11.949,12.893,25.186,23.195,38.023,34.205c36.888,31.637,73.858,63.065,110.819,94.516c4.945,4.206,9.893,8.523,15.081,11.992
			c23.886,15.964,42.575-0.172,43.678-39.018c0.995-34.959,0.456-70.011,0.572-105.019
			C255.029,268.593,254.998,257.863,255.011,247.132z"/>
	</g>
</g>
<g id="Layer_5" display="none">
	<g display="inline">
		<g>
			<path fill="#838383" d="M451.209,339.754c-30.816-18.945-49.392-30.093-80.209-49.033c-5.904-3.628-14.357-3.953-18,1.113
				c-3,4.175-3.187,24.352-2.767,38.211c0.252,8.396-2.174,11.924-10.09,11.547c-11.82-0.562-23.703-0.679-35.514-0.02
				c-19.033,1.062-31.988-8.348-40.955-26.504c-9.941-20.129-19.97-40.203-30.016-60.269l0,0
				c10.273-20.516,20.528-41.042,30.693-61.624c8.967-18.156,21.922-27.566,40.955-26.503c11.811,0.659,23.692,0.543,35.514-0.02
				c7.916-0.377,10.342,3.149,10.09,11.547c-0.42,13.859-0.233,34.035,2.767,38.209c3.643,5.068,12.096,4.742,18,1.113
				c30.817-18.939,49.393-30.087,80.209-49.033c4.317-2.656,8.49-5.944,12.043-9.738c11.125-11.886,12.141-27.304,3.151-41.371
				c-4.213-6.592-9.551-11.932-15.606-16.265c-30.666-21.938-49.158-37.49-79.797-59.475c-5.986-4.294-13-5.566-17-1.113
				c-5.701,6.346-3.9,20.655-3.978,31.06c-0.178,24.446,2.506,21.102-19.629,21.357c-9.035,0.104-18.071,0.018-27.11,0.018
				c-8.103,0-16.269,0.743-24.293-0.136c-26.976-2.953-44.532,12.435-57.098,36.472c-8.875,16.979-17.451,34.152-25.977,51.36
				c-9.998-20.083-19.986-40.17-30.05-60.21c-8.447-16.818-20.661-27.967-38.609-28.371c-22.116-0.498-44.251-0.397-66.371-0.049
				c-17.374,0.275-29.322,15.23-29.243,35.661c0.09,22.519,11.427,36.94,29.698,37.403c10.901,0.276,21.819-0.155,32.717,0.194
				c13.325,0.428,23.686,6.029,30.444,19.972c9.168,18.909,18.516,37.709,27.913,56.481c1.568,3.133,3.138,6.266,4.708,9.397
				c0.613,1.223,1.224,2.443,1.837,3.666c-11.367,22.663-22.706,45.346-33.779,68.186c-6.759,13.941-17.12,19.544-30.443,19.972
				c-10.898,0.351-21.815-0.082-32.717,0.192C44.427,343.615,33.089,358.037,33,380.555c-0.08,20.435,11.869,35.389,29.243,35.661
				c22.119,0.352,44.254,0.45,66.37-0.048c17.948-0.404,30.163-11.554,38.609-28.371c9.837-19.588,19.595-39.224,29.367-58.852
				c0-0.002,0.001-0.002,0.001-0.002c8.303,16.752,16.659,33.471,25.301,50.002c12.565,24.037,30.123,39.426,57.097,36.473
				c8.025-0.878,16.191-0.136,24.294-0.136c9.038,0,18.075-0.087,27.11,0.018c22.135,0.255,19.451-3.089,19.629,21.356
				c0.076,10.405-1.725,24.714,3.977,31.061c4,4.453,11.015,3.182,17-1.113c30.64-21.984,49.132-37.535,79.798-59.475
				c6.057-4.333,11.395-9.673,15.606-16.266c8.988-14.066,7.973-29.484-3.152-41.371
				C459.698,345.698,455.527,342.41,451.209,339.754z"/>
		</g>
		<g>
			<path fill="none" stroke="#F1F2F2" d="M451.209,339.754c-30.816-18.945-49.392-30.093-80.209-49.033
				c-5.904-3.628-14.357-3.953-18,1.113c-3,4.175-3.187,24.352-2.767,38.211c0.252,8.396-2.174,11.924-10.09,11.547
				c-11.82-0.562-23.703-0.679-35.514-0.02c-19.033,1.062-31.988-8.348-40.955-26.504c-9.941-20.129-19.97-40.203-30.016-60.269l0,0
				c10.273-20.516,20.528-41.042,30.693-61.624c8.967-18.156,21.922-27.566,40.955-26.503c11.811,0.659,23.692,0.543,35.514-0.02
				c7.916-0.377,10.342,3.149,10.09,11.547c-0.42,13.859-0.233,34.035,2.767,38.209c3.643,5.068,12.096,4.742,18,1.113
				c30.817-18.939,49.393-30.087,80.209-49.033c4.317-2.656,8.49-5.944,12.043-9.738c11.125-11.886,12.141-27.304,3.151-41.371
				c-4.213-6.592-9.551-11.932-15.606-16.265c-30.666-21.938-49.158-37.49-79.797-59.475c-5.986-4.294-13-5.566-17-1.113
				c-5.701,6.346-3.9,20.655-3.978,31.06c-0.178,24.446,2.506,21.102-19.629,21.357c-9.035,0.104-18.071,0.018-27.11,0.018
				c-8.103,0-16.269,0.743-24.293-0.136c-26.976-2.953-44.532,12.435-57.098,36.472c-8.875,16.979-17.451,34.152-25.977,51.36
				c-9.998-20.083-19.986-40.17-30.05-60.21c-8.447-16.818-20.661-27.967-38.609-28.371c-22.116-0.498-44.251-0.397-66.371-0.049
				c-17.374,0.275-29.322,15.23-29.243,35.661c0.09,22.519,11.427,36.94,29.698,37.403c10.901,0.276,21.819-0.155,32.717,0.194
				c13.325,0.428,23.686,6.029,30.444,19.972c9.168,18.909,18.516,37.709,27.913,56.481c1.568,3.133,3.138,6.266,4.708,9.397
				c0.613,1.223,1.224,2.443,1.837,3.666c-11.367,22.663-22.706,45.346-33.779,68.186c-6.759,13.941-17.12,19.544-30.443,19.972
				c-10.898,0.351-21.815-0.082-32.717,0.192C44.427,343.615,33.089,358.037,33,380.555c-0.08,20.435,11.869,35.389,29.243,35.661
				c22.119,0.352,44.254,0.45,66.37-0.048c17.948-0.404,30.163-11.554,38.609-28.371c9.837-19.588,19.595-39.224,29.367-58.852
				c0-0.002,0.001-0.002,0.001-0.002c8.303,16.752,16.659,33.471,25.301,50.002c12.565,24.037,30.123,39.426,57.097,36.473
				c8.025-0.878,16.191-0.136,24.294-0.136c9.038,0,18.075-0.087,27.11,0.018c22.135,0.255,19.451-3.089,19.629,21.356
				c0.076,10.405-1.725,24.714,3.977,31.061c4,4.453,11.015,3.182,17-1.113c30.64-21.984,49.132-37.535,79.798-59.475
				c6.057-4.333,11.395-9.673,15.606-16.266c8.988-14.066,7.973-29.484-3.152-41.371
				C459.698,345.698,455.527,342.41,451.209,339.754z"/>
		</g>
	</g>
</g>
<g>
	<g id="Layer_6">
		<path fill="#4096EE" stroke="#F1F2F2" stroke-miterlimit="10" d="M270.578,241.125c-0.648-1.686-0.695-5.5-0.688-6.006
			c0.017-1.072-2.228-3.276-3.161-3.276c-3.188,0-5.9,0-8.93,0c-9.074,0-18.148-0.071-27.222,0.025
			c-6.385,0.067-9.693,4.327-10.197,11.355c-0.141,1.976-0.378,11.426-2.732,15.402c-2.608,4.406-9.927,2.683-11.877-0.557
			c-1.389-2.307-0.118-14.407,1.178-23.014c1.722-11.432,11.663-19.428,21.989-19.512c12.467-0.101,24.934-0.037,37.79-0.028
			c0.927,0.001,2.794-1.791,2.816-2.806c0.068-3.065,0.222-5.526,0.858-6.422c1.245-1.755,4.15-1.181,5.847,0.587
			c4.771,4.972,7.788,8.029,12.312,12.832c1.887,2.002,2.203,5.423,0.07,7.772c-4.44,4.891-7.84,9.26-12.359,14.609
			C274.833,243.79,271.659,243.94,270.578,241.125z"/>
		<path fill="#4096EE" stroke="#F1F2F2" stroke-miterlimit="10" d="M211.582,260.544"/>
		<path fill="#4096EE" stroke="#F1F2F2" stroke-miterlimit="10" d="M266.729,231.843"/>
		<path fill="#4096EE" stroke="#F1F2F2" stroke-miterlimit="10" d="M266.729,231.843"/>
		<path fill="#4096EE" stroke="#F1F2F2" stroke-miterlimit="10" d="M266.729,231.843"/>
		<path fill="#4096EE" stroke="#F1F2F2" stroke-miterlimit="10" d="M229.757,258.454c0.647,1.686,0.695,5.499,0.688,6.005
			c-0.016,1.072,2.229,3.277,3.162,3.277c3.188,0,5.9,0,8.929,0c9.074-0.001,18.149,0.07,27.222-0.025
			c6.385-0.067,9.692-4.327,10.196-11.354c0.142-1.977,0.379-11.426,2.733-15.403c2.607-4.406,9.927-2.684,11.877,0.557
			c1.389,2.307,0.118,14.407-1.178,23.014c-1.723,11.433-11.663,19.428-21.99,19.512c-12.467,0.102-24.934,0.037-37.789,0.027
			c-0.927,0-2.794,1.791-2.817,2.807c-0.068,3.065-0.222,5.525-0.857,6.422c-1.245,1.755-4.151,1.181-5.847-0.587
			c-4.771-4.972-7.789-8.028-12.312-12.832c-1.886-2.002-2.202-5.422-0.069-7.772c4.44-4.891,7.839-9.259,12.36-14.608
			C225.501,255.789,228.675,255.639,229.757,258.454z"/>
		<path fill="#4096EE" stroke="#F1F2F2" stroke-miterlimit="10" d="M283.693,240.475"/>
		<path fill="#4096EE" stroke="#F1F2F2" stroke-miterlimit="10" d="M228.546,269.176"/>
		<path fill="#4096EE" stroke="#F1F2F2" stroke-miterlimit="10" d="M228.546,269.176"/>
		<path fill="#4096EE" stroke="#F1F2F2" stroke-miterlimit="10" d="M228.546,269.176"/>
	</g>
	<g id="Layer_7">
		<path fill="#4096EE" stroke="#F1F2F2" stroke-miterlimit="10" d="M267.092,256.127c0,5.1-4.291,9.233-9.583,9.233h-16.1
			c-5.292,0-9.583-4.134-9.583-9.233v-12.715c0-5.1,4.291-9.233,9.583-9.233h16.1c5.292,0,9.583,4.134,9.583,9.233V256.127z"/>
		<g>
			<path fill="#FFFFFF" stroke="#FFFFFF" stroke-miterlimit="10" d="M244.862,247.023v-1.521c1.433-0.14,2.432-0.373,2.998-0.7
				c0.566-0.327,0.988-1.1,1.268-2.32h1.565v15.717h-2.116v-11.176H244.862z"/>
		</g>
	</g>
</g>
</svg>
