<?xml version="1.0" encoding="utf-8"?>
<!-- Generator: Adobe Illustrator 15.0.0, SVG Export Plug-In . SVG Version: 6.00 Build 0)  -->
<!DOCTYPE svg PUBLIC "-//W3C//DTD SVG 1.1//EN" "http://www.w3.org/Graphics/SVG/1.1/DTD/svg11.dtd">
<svg version="1.1" id="Layer_1" xmlns="http://www.w3.org/2000/svg" xmlns:xlink="http://www.w3.org/1999/xlink" x="0px" y="0px"
	 width="100px" height="100px" viewBox="0 0 100 100" enable-background="new 0 0 100 100" xml:space="preserve">
<g>
	<path fill-rule="evenodd" clip-rule="evenodd" fill="#848484" d="M75.304,4.34c1.326,0,2.65,0,3.977,0
		c1.965,0.486,4.154,0.984,5.782,1.808c0.31,0.156,0.767,0.521,1.085,0.723c1.583,1.004,2.941,2.192,3.977,3.434
		c0.341,0.409,0.671,1.021,0.904,1.265c0.146,0.151,0.215,0.388,0.361,0.542c0.145,0.151,0.215,0.388,0.361,0.542
		c0.149,0.157,0.054,0.144,0.181,0.361c1.044,1.803,1.964,3.981,2.168,6.326c0.207,2.349,0.02,5.037-0.722,7.229
		c-0.236,0.698-0.728,1.274-1.085,1.988c-0.376,0.751-0.644,1.516-1.085,2.169c-2.392,3.542-7.252,6.794-11.928,7.229
		c-4.758,0.443-8.882-0.972-11.206-2.711c-0.41-0.308-1.056-0.704-1.265-0.904c-0.113-0.108-0.233-0.071-0.362-0.181
		c-0.502-0.424-0.85-1.444-1.988-1.627c-8.141,5.053-16.517,9.872-24.761,14.821c0.306,1.785,0.207,3.992-0.181,5.602
		C47.794,57.817,55.9,62.846,64.279,67.6c1.093-1.281,2.36-2.479,3.796-3.436c1.883-1.254,4.771-2.481,7.409-2.71
		c3.997-0.349,6.715,0.452,9.399,1.807c1.602,0.81,3.112,1.848,4.337,3.073c2.564,2.563,4.555,6.386,4.88,10.121
		c0.535,6.12-1.911,10.671-4.698,13.556c-2.321,2.404-6.215,4.427-9.94,5.061c-1.447,0-2.893,0-4.339,0
		c-1.734-0.509-3.938-0.941-5.603-1.807c-1.827-0.95-3.842-2.695-5.061-4.157c-0.341-0.409-0.669-1.021-0.903-1.266
		c-0.146-0.151-0.215-0.389-0.361-0.543c-0.146-0.15-0.215-0.388-0.361-0.542c-0.149-0.154-0.056-0.143-0.182-0.361
		c-1.032-1.782-1.954-4.026-2.169-6.325c-0.143-1.547,0.031-3.163,0.182-4.881c-1.078-0.921-2.526-1.699-3.615-2.35
		c-0.613-0.365-1.085-0.598-1.627-0.903c-0.533-0.301-1.011-0.644-1.445-0.903c-0.642-0.385-1.018-0.557-1.627-0.903
		c-0.237-0.137-0.47-0.392-0.723-0.542c-4.097-2.438-8.372-4.909-12.291-7.23c-1.026-0.607-2.134-1.215-3.072-1.988
		c-1.063,0.421-1.482,1.366-2.169,1.988c-2.408,2.18-6.187,3.921-10.122,4.157c-4.606,0.276-8.597-1.331-11.567-3.796
		c-1.433-1.189-2.593-2.553-3.615-4.156c-1.047-1.645-1.987-3.543-2.35-5.423c-0.715-3.714,0.021-7.395,0.904-9.578
		c0.827-2.05,1.85-3.653,3.072-5.062c4.537-5.229,13.658-7.978,21.328-3.253c1.569,0.965,2.811,2.22,3.976,3.434
		c0.31,0.322,0.587,1.026,1.265,0.903c6.425-4.036,13.327-7.957,19.701-11.748c0.894-0.532,1.877-1.132,2.711-1.808
		c0.63-0.215,1.293-0.394,1.445-1.084c-1.014-4.368-0.002-8.058,1.266-10.844c1.839-4.04,4.965-6.974,9.037-8.495
		c0.396-0.148,0.739-0.43,1.085-0.542C73.248,4.732,74.704,4.619,75.304,4.34z"/>
</g>
</svg>
