<?xml version="1.0" encoding="utf-8"?>
<!-- Generator: Adobe Illustrator 15.0.0, SVG Export Plug-In . SVG Version: 6.00 Build 0)  -->
<!DOCTYPE svg PUBLIC "-//W3C//DTD SVG 1.1//EN" "http://www.w3.org/Graphics/SVG/1.1/DTD/svg11.dtd">
<svg version="1.1" id="Layer_1" xmlns="http://www.w3.org/2000/svg" xmlns:xlink="http://www.w3.org/1999/xlink" x="0px" y="0px"
	 width="100px" height="100px" viewBox="200 200 100 100" enable-background="new 200 200 100 100" xml:space="preserve">
<g id="Layer_1_1_" display="none">
	<g display="inline">
		<path fill="#848484" stroke="#F1F2F2" stroke-miterlimit="10" d="M32.077,249.072c0,14.478-0.062,28.951,0.011,43.436
			c0.231,47.229-0.847,94.521,1.145,141.688c2.211,52.405,39.641,74.176,87.478,52.638c10.393-4.679,20.3-10.504,30.206-16.18
			c74.021-42.431,148.062-84.833,221.94-127.515c25.712-14.854,52.219-28.757,76.151-46.148
			c37.147-27.004,36.61-67.286,0.705-95.903c-6.526-5.203-13.696-9.694-20.933-13.876c-96.968-56.009-194.02-111.875-290.999-167.86
			C125.825,12.45,113.489,6.583,99.985,3.525C73.232-2.532,49.601,9.76,38.639,35.02c-6.256,14.417-6.52,29.669-6.558,44.902
			C31.945,136.306,32.027,192.691,32.077,249.072z"/>
		<path fill="#848484" stroke="#F1F2F2" stroke-miterlimit="10" d="M32.052,249.072c-0.025-56.381-0.107-112.766,0.029-169.15
			c0.038-15.233,0.302-30.485,6.558-44.902C49.601,9.76,73.232-2.532,99.984,3.524c13.504,3.058,25.842,8.925,37.797,15.826
			C234.76,75.336,331.812,131.201,428.78,187.21c7.235,4.182,14.405,8.673,20.933,13.876c35.905,28.617,36.442,68.9-0.705,95.903
			c-23.934,17.393-50.439,31.295-76.151,46.147c-73.879,42.684-147.918,85.085-221.94,127.516
			c-9.906,5.676-19.813,11.501-30.206,16.18c-47.836,21.538-85.267-0.231-87.478-52.638c-1.99-47.167-0.912-94.458-1.145-141.688
			C32.016,278.023,32.077,263.55,32.052,249.072z"/>
	</g>
</g>
<g id="Layer_2" display="none">
	<path display="inline" fill="#848484" stroke="#F1F2F2" stroke-miterlimit="10" d="M205.599,432.457
		c0,27.914-22.628,50.543-50.543,50.543H83.284c-27.914,0-50.543-22.629-50.543-50.543V68.543C32.74,40.629,55.37,18,83.284,18
		h71.771c27.915,0,50.543,22.629,50.543,50.543V432.457z"/>
	<path display="inline" fill="#848484" stroke="#F1F2F2" stroke-miterlimit="10" d="M462,432.457
		C462,460.371,439.371,483,411.456,483h-71.771c-27.915,0-50.544-22.629-50.544-50.543V68.543c0-27.914,22.629-50.543,50.544-50.543
		h71.771C439.371,18,462,40.629,462,68.543V432.457z"/>
</g>
<g id="Layer_3" display="none">
	<g display="inline">
		<path fill="#848484" stroke="#F1F2F2" stroke-miterlimit="10" d="M26.003,113.082c0.02-12.032,0.15-24.079,3.334-35.467
			c5.571-19.953,17.58-29.662,31.176-24.878c6.863,2.416,13.134,7.05,19.209,12.501c49.286,44.221,98.612,88.348,147.892,132.59
			c3.679,3.302,7.32,6.85,10.639,10.96c18.248,22.604,18.521,54.422-0.358,75.752c-12.164,13.735-25.634,24.717-38.701,36.453
			c-37.546,33.711-75.175,67.202-112.794,100.719c-5.036,4.484-10.069,9.086-15.353,12.779
			c-24.312,17.014-43.332-0.183-44.456-41.576c-1.014-37.256-0.466-74.608-0.583-111.916c-0.035-11.44-0.004-22.875-0.004-34.307
			C25.975,202.156,25.934,157.618,26.003,113.082z"/>
		<path fill="#848484" stroke="#F1F2F2" stroke-miterlimit="10" d="M25.99,246.692c-0.017-44.536-0.058-89.074,0.013-133.61
			c0.02-12.032,0.15-24.079,3.334-35.467c5.571-19.953,17.58-29.662,31.176-24.878c6.863,2.416,13.134,7.05,19.209,12.501
			c49.286,44.221,98.612,88.348,147.892,132.59c3.679,3.302,7.32,6.85,10.639,10.96c18.248,22.604,18.521,54.422-0.358,75.752
			c-12.164,13.735-25.634,24.717-38.701,36.453c-37.546,33.711-75.175,67.202-112.794,100.719
			c-5.036,4.484-10.069,9.086-15.353,12.779c-24.312,17.014-43.332-0.183-44.456-41.576c-1.014-37.256-0.466-74.608-0.583-111.916
			C25.971,269.559,26.002,258.124,25.99,246.692z"/>
	</g>
	<g display="inline">
		<path fill="#848484" stroke="#F1F2F2" stroke-miterlimit="10" d="M255.005,121.757c0.018-11.291,0.148-22.596,3.273-33.282
			c5.474-18.722,17.271-27.833,30.632-23.345c6.739,2.268,12.9,6.615,18.87,11.73c48.423,41.498,96.883,82.905,145.301,124.419
			c3.613,3.101,7.193,6.43,10.451,10.286c17.93,21.211,18.196,51.068-0.353,71.083c-11.949,12.893-25.186,23.195-38.022,34.205
			c-36.889,31.637-73.857,63.065-110.819,94.516c-4.945,4.206-9.894,8.523-15.08,11.992c-23.887,15.964-42.576-0.172-43.679-39.018
			c-0.995-34.959-0.456-70.011-0.572-105.019c-0.036-10.733-0.005-21.464-0.005-32.194
			C254.978,205.342,254.937,163.549,255.005,121.757z"/>
		<path fill="#848484" stroke="#F1F2F2" stroke-miterlimit="10" d="M254.989,247.132c-0.012-41.791-0.053-83.583,0.017-125.375
			c0.018-11.291,0.148-22.596,3.273-33.282c5.474-18.722,17.271-27.833,30.632-23.345c6.739,2.268,12.9,6.615,18.87,11.73
			c48.423,41.498,96.883,82.905,145.301,124.419c3.613,3.101,7.193,6.43,10.451,10.286c17.93,21.211,18.196,51.068-0.353,71.083
			c-11.949,12.893-25.186,23.195-38.022,34.205c-36.889,31.637-73.857,63.065-110.819,94.516c-4.945,4.206-9.894,8.523-15.08,11.992
			c-23.887,15.964-42.576-0.172-43.679-39.018c-0.995-34.959-0.456-70.011-0.572-105.019
			C254.971,268.593,255.002,257.863,254.989,247.132z"/>
	</g>
</g>
<g id="Layer_4" display="none">
	<g display="inline">
		<path fill="#848484" stroke="#F1F2F2" stroke-miterlimit="10" d="M483.997,246.692c0,11.432,0.031,22.867-0.004,34.307
			c-0.116,37.308,0.432,74.66-0.583,111.916c-1.124,41.395-20.145,58.59-44.456,41.576c-5.281-3.693-10.315-8.295-15.353-12.779
			c-37.619-33.517-75.248-67.008-112.794-100.719c-13.066-11.736-26.537-22.718-38.701-36.453
			c-18.88-21.33-18.605-53.148-0.357-75.752c3.316-4.11,6.96-7.658,10.638-10.96c49.278-44.242,98.604-88.369,147.892-132.59
			c6.075-5.452,12.347-10.086,19.209-12.501c13.597-4.784,25.604,4.926,31.176,24.878c3.184,11.388,3.314,23.435,3.334,35.467
			C484.066,157.618,484.025,202.156,483.997,246.692z"/>
		<path fill="#848484" stroke="#F1F2F2" stroke-miterlimit="10" d="M484.01,246.692c0.016-44.536,0.057-89.074-0.014-133.61
			c-0.02-12.032-0.15-24.079-3.334-35.467c-5.57-19.953-17.58-29.662-31.176-24.878c-6.863,2.416-13.134,7.05-19.209,12.501
			c-49.286,44.221-98.611,88.348-147.892,132.59c-3.678,3.302-7.32,6.85-10.638,10.96c-18.248,22.604-18.521,54.422,0.357,75.752
			c12.164,13.735,25.635,24.717,38.701,36.453c37.546,33.711,75.175,67.202,112.794,100.719c5.036,4.484,10.07,9.086,15.353,12.779
			c24.312,17.014,43.332-0.183,44.456-41.576c1.015-37.256,0.467-74.608,0.583-111.916
			C484.029,269.559,483.997,258.124,484.01,246.692z"/>
	</g>
	<g display="inline">
		<path fill="#848484" stroke="#F1F2F2" stroke-miterlimit="10" d="M254.998,247.132c0,10.731,0.03,21.46-0.005,32.194
			c-0.116,35.008,0.423,70.06-0.572,105.019c-1.104,38.846-19.792,54.98-43.678,39.018c-5.188-3.469-10.136-7.786-15.081-11.992
			c-36.962-31.45-73.933-62.88-110.82-94.517c-12.838-11.008-26.074-21.312-38.023-34.203c-18.549-20.018-18.28-49.875-0.353-71.084
			c3.258-3.856,6.838-7.186,10.451-10.286c48.418-41.514,96.878-82.921,145.302-124.419c5.969-5.115,12.13-9.462,18.871-11.73
			c13.359-4.488,25.158,4.624,30.63,23.345c3.125,10.687,3.257,21.991,3.274,33.282
			C255.063,163.549,255.022,205.342,254.998,247.132z"/>
		<path fill="#848484" stroke="#F1F2F2" stroke-miterlimit="10" d="M255.011,247.132c0.012-41.791,0.053-83.583-0.016-125.375
			c-0.019-11.291-0.149-22.596-3.274-33.282c-5.473-18.722-17.271-27.833-30.63-23.345c-6.741,2.268-12.902,6.615-18.871,11.73
			c-48.423,41.498-96.884,82.905-145.302,124.419c-3.612,3.101-7.193,6.43-10.451,10.286c-17.929,21.211-18.196,51.068,0.353,71.083
			c11.949,12.893,25.186,23.195,38.023,34.205c36.888,31.637,73.858,63.065,110.819,94.516c4.945,4.206,9.893,8.523,15.081,11.992
			c23.886,15.964,42.575-0.172,43.678-39.018c0.995-34.959,0.456-70.011,0.572-105.019
			C255.029,268.593,254.998,257.863,255.011,247.132z"/>
	</g>
</g>
<g id="Layer_5">
	<g>
		<g>
			<path fill="#838383" d="M291.249,267.605c-6.292-3.868-10.084-6.144-16.376-10.011c-1.206-0.741-2.932-0.808-3.675,0.227
				c-0.613,0.853-0.651,4.973-0.565,7.802c0.052,1.715-0.443,2.435-2.06,2.357c-2.414-0.114-4.84-0.139-7.251-0.004
				c-3.887,0.217-6.531-1.704-8.362-5.411c-2.029-4.109-4.077-8.208-6.128-12.305l0,0c2.098-4.189,4.191-8.38,6.267-12.582
				c1.831-3.707,4.476-5.628,8.361-5.411c2.412,0.135,4.838,0.111,7.251-0.004c1.616-0.077,2.111,0.643,2.061,2.357
				c-0.086,2.83-0.048,6.949,0.564,7.801c0.744,1.035,2.47,0.968,3.675,0.227c6.292-3.867,10.085-6.143,16.377-10.011
				c0.881-0.542,1.733-1.214,2.459-1.988c2.271-2.427,2.479-5.575,0.643-8.447c-0.859-1.346-1.949-2.436-3.186-3.321
				c-6.262-4.479-10.037-7.654-16.293-12.143c-1.222-0.877-2.653-1.136-3.471-0.228c-1.164,1.296-0.796,4.217-0.812,6.342
				c-0.036,4.991,0.512,4.308-4.008,4.36c-1.845,0.021-3.689,0.004-5.535,0.004c-1.654,0-3.321,0.151-4.96-0.028
				c-5.508-0.603-9.092,2.539-11.658,7.446c-1.812,3.467-3.563,6.973-5.304,10.486c-2.041-4.101-4.081-8.202-6.135-12.293
				c-1.725-3.434-4.218-5.71-7.883-5.792c-4.516-0.102-9.035-0.081-13.551-0.01c-3.547,0.056-5.987,3.109-5.971,7.281
				c0.019,4.598,2.333,7.542,6.063,7.637c2.226,0.056,4.455-0.032,6.68,0.04c2.721,0.087,4.836,1.231,6.216,4.078
				c1.872,3.861,3.78,7.699,5.699,11.532c0.32,0.64,0.641,1.279,0.961,1.919c0.125,0.25,0.25,0.499,0.375,0.748
				c-2.321,4.628-4.636,9.259-6.896,13.922c-1.38,2.847-3.496,3.99-6.216,4.077c-2.225,0.072-4.454-0.017-6.68,0.04
				c-3.73,0.094-6.045,3.039-6.063,7.636c-0.016,4.173,2.423,7.226,5.971,7.281c4.516,0.071,9.035,0.092,13.551-0.01
				c3.665-0.083,6.158-2.359,7.883-5.793c2.008-3.999,4-8.008,5.996-12.016l0,0c1.695,3.42,3.401,6.834,5.166,10.209
				c2.565,4.907,6.151,8.05,11.658,7.446c1.639-0.179,3.306-0.027,4.96-0.027c1.846,0,3.69-0.018,5.535,0.003
				c4.52,0.053,3.972-0.63,4.008,4.36c0.016,2.125-0.353,5.046,0.812,6.342c0.816,0.909,2.249,0.649,3.471-0.227
				c6.256-4.489,10.031-7.664,16.293-12.144c1.236-0.885,2.326-1.975,3.187-3.32c1.835-2.872,1.627-6.021-0.645-8.447
				C292.983,268.819,292.131,268.147,291.249,267.605z"/>
		</g>
		<g>
			<path fill="none" stroke="#F1F2F2" d="M291.249,267.605c-6.292-3.868-10.084-6.144-16.376-10.011
				c-1.206-0.741-2.932-0.808-3.675,0.227c-0.613,0.853-0.651,4.973-0.565,7.802c0.052,1.715-0.443,2.435-2.06,2.357
				c-2.414-0.114-4.84-0.139-7.251-0.004c-3.887,0.217-6.531-1.704-8.362-5.411c-2.029-4.109-4.077-8.208-6.128-12.305l0,0
				c2.098-4.189,4.191-8.38,6.267-12.582c1.831-3.707,4.476-5.628,8.361-5.411c2.412,0.135,4.838,0.111,7.251-0.004
				c1.616-0.077,2.111,0.643,2.061,2.357c-0.086,2.83-0.048,6.949,0.564,7.801c0.744,1.035,2.47,0.968,3.675,0.227
				c6.292-3.867,10.085-6.143,16.377-10.011c0.881-0.542,1.733-1.214,2.459-1.988c2.271-2.427,2.479-5.575,0.643-8.447
				c-0.859-1.346-1.949-2.436-3.186-3.321c-6.262-4.479-10.037-7.654-16.293-12.143c-1.222-0.877-2.653-1.136-3.471-0.228
				c-1.164,1.296-0.796,4.217-0.812,6.342c-0.036,4.991,0.512,4.308-4.008,4.36c-1.845,0.021-3.689,0.004-5.535,0.004
				c-1.654,0-3.321,0.151-4.96-0.028c-5.508-0.603-9.092,2.539-11.658,7.446c-1.812,3.467-3.563,6.973-5.304,10.486
				c-2.041-4.101-4.081-8.202-6.135-12.293c-1.725-3.434-4.218-5.71-7.883-5.792c-4.516-0.102-9.035-0.081-13.551-0.01
				c-3.547,0.056-5.987,3.109-5.971,7.281c0.019,4.598,2.333,7.542,6.063,7.637c2.226,0.056,4.455-0.032,6.68,0.04
				c2.721,0.087,4.836,1.231,6.216,4.078c1.872,3.861,3.78,7.699,5.699,11.532c0.32,0.64,0.641,1.279,0.961,1.919
				c0.125,0.25,0.25,0.499,0.375,0.748c-2.321,4.628-4.636,9.259-6.896,13.922c-1.38,2.847-3.496,3.99-6.216,4.077
				c-2.225,0.072-4.454-0.017-6.68,0.04c-3.73,0.094-6.045,3.039-6.063,7.636c-0.016,4.173,2.423,7.226,5.971,7.281
				c4.516,0.071,9.035,0.092,13.551-0.01c3.665-0.083,6.158-2.359,7.883-5.793c2.008-3.999,4-8.008,5.996-12.016l0,0
				c1.695,3.42,3.401,6.834,5.166,10.209c2.565,4.907,6.151,8.05,11.658,7.446c1.639-0.179,3.306-0.027,4.96-0.027
				c1.846,0,3.69-0.018,5.535,0.003c4.52,0.053,3.972-0.63,4.008,4.36c0.016,2.125-0.353,5.046,0.812,6.342
				c0.816,0.909,2.249,0.649,3.471-0.227c6.256-4.489,10.031-7.664,16.293-12.144c1.236-0.885,2.326-1.975,3.187-3.32
				c1.835-2.872,1.627-6.021-0.645-8.447C292.983,268.819,292.131,268.147,291.249,267.605z"/>
		</g>
	</g>
</g>
<g id="Layer_6" display="none">
</g>
</svg>
