<?xml version="1.0" encoding="utf-8"?>
<!-- Generator: Adobe Illustrator 15.0.0, SVG Export Plug-In . SVG Version: 6.00 Build 0)  -->
<!DOCTYPE svg PUBLIC "-//W3C//DTD SVG 1.1//EN" "http://www.w3.org/Graphics/SVG/1.1/DTD/svg11.dtd">
<svg version="1.1" id="Layer_1" xmlns="http://www.w3.org/2000/svg" xmlns:xlink="http://www.w3.org/1999/xlink" x="0px" y="0px"
	 width="134.062px" height="100px" viewBox="0 0 134.062 100" enable-background="new 0 0 134.062 100" xml:space="preserve">
<g>
	<path fill-rule="evenodd" clip-rule="evenodd" fill="#848484" d="M81.941,88.816c-2.829-11.178,42.46-0.192,43.784-22.618
		c0.839-14.263-12.563-24.741-30.408-19.793c0.31-16.962-11.351-27.181-25.54-22.619C53.841,3.633,18.192,14.012,19.913,46.405
		c-16.073,3.952-17.779,33.074,0,38.171c8.502,2.438,29.499-2.814,29.188,5.653c-2.882,7.615-33.412,4.85-40.135-1.413
		c-5.162-4.809-6.485-8.467-8.514-15.55c-2.209-18.589,3.962-27.438,12.162-33.927c3.361-22.803,21.831-40.694,45-35.346
		c4.96,1.146,13.378,9.897,13.378,9.897c2.673,0.771,16.361-0.433,23.109,5.654c5.824,5.254,9.728,16.964,9.728,16.964
		c36.777,0.823,41.353,46.49,6.25,54.094C103.156,92.097,82.863,96.961,81.941,88.816z"/>
	<path fill-rule="evenodd" clip-rule="evenodd" fill="#848484" d="M85.589,71.852c-4.094,0.721-8.911,0.955-13.382,1.414
		c0.823,15.09,0.314,20.248-0.29,22.618c-0.912,1.253-13.458,1.605-14.302,0c-1.132-2.19,0-13.591,0-22.618
		c-7.294-0.063-9.283,0.896-13.38,0c6.242-13.065,10.867-20.665,18.243-35.344C74.197,55.252,76.63,59.142,85.589,71.852z"/>
</g>
</svg>
