<?xml version="1.0" encoding="utf-8"?>
<!-- Generator: Adobe Illustrator 15.0.0, SVG Export Plug-In . SVG Version: 6.00 Build 0)  -->
<!DOCTYPE svg PUBLIC "-//W3C//DTD SVG 1.1//EN" "http://www.w3.org/Graphics/SVG/1.1/DTD/svg11.dtd">
<svg version="1.1" id="Layer_1" xmlns="http://www.w3.org/2000/svg" xmlns:xlink="http://www.w3.org/1999/xlink" x="0px" y="0px"
	 width="32px" height="32px" viewBox="0 0 32 32" enable-background="new 0 0 32 32" xml:space="preserve">
<g>
	<path fill="#848484" d="M27.614,1.523c0,0-1.594,1.558-2.699,2.652C19.267,0.05,11.31,0.517,6.211,5.617
		c-2.976,2.975-4.364,6.923-4.197,10.821h4.819c-0.17-2.665,0.745-5.381,2.78-7.419c3.208-3.208,8.114-3.666,11.821-1.399
		c-1.257,1.243-2.706,2.696-2.706,2.696c-1.011,1.216,0.127,1.918,0.703,1.9l6.776-0.002c0.357,0,0.649,0.002,0.649,0.002
		s0.294,0,0.655,0h1.314c0.359,0,0.65-0.293,0.65-0.652V2.251C29.518,1.398,28.584,0.573,27.614,1.523z"/>
	<path fill="#848484" d="M4.86,29.735c0,0,1.598-1.558,2.702-2.652c5.648,4.124,13.604,3.657,18.705-1.442
		c2.976-2.977,4.362-6.923,4.198-10.821h-4.821c0.171,2.664-0.744,5.382-2.78,7.419c-3.209,3.207-8.113,3.668-11.82,1.4
		c1.255-1.243,2.704-2.697,2.704-2.697c1.013-1.217-0.125-1.917-0.703-1.899l-6.775,0.002c-0.358,0-0.651-0.002-0.651-0.002
		s-0.294,0-0.654,0H3.65c-0.358,0-0.65,0.292-0.651,0.651v9.315C2.959,29.859,3.894,30.686,4.86,29.735z"/>
</g>
</svg>
