<?xml version="1.0" encoding="utf-8"?>
<!-- Generator: Adobe Illustrator 16.0.0, SVG Export Plug-In . SVG Version: 6.00 Build 0)  -->
<!DOCTYPE svg PUBLIC "-//W3C//DTD SVG 1.1//EN" "http://www.w3.org/Graphics/SVG/1.1/DTD/svg11.dtd">
<svg version="1.1" id="Large_230x36_1_" xmlns="http://www.w3.org/2000/svg" xmlns:xlink="http://www.w3.org/1999/xlink" x="0px"
	 y="0px" width="215px" height="35.75px" viewBox="0 0 215 35.75" enable-background="new 0 0 215 35.75" xml:space="preserve">
<g id="Blue_shape_xA0_Image_1_">
	
		<linearGradient id="SVGID_1_" gradientUnits="userSpaceOnUse" x1="163.5" y1="-109.25" x2="163.5" y2="-145.0005" gradientTransform="matrix(1 0 0 -1 -56 -109.25)">
		<stop  offset="0" style="stop-color:#7396CC"/>
		<stop  offset="1" style="stop-color:#4D7AB7"/>
	</linearGradient>
	<path fill="url(#SVGID_1_)" d="M215,29.534c0,3.433-2.167,6.216-4.844,6.216H4.842C2.168,35.75,0,32.966,0,29.534V6.217
		C0,2.784,2.168,0,4.842,0h205.314C212.833,0,215,2.784,215,6.217V29.534z"/>
</g>
<g id="Connect_using_Facebook_xA0_Image_1_">
	<rect x="41.083" y="12.194" fill="none" width="166.667" height="14.455"/>
	<g enable-background="new    ">
		<path fill="#FFFFFF" d="M49.836,13.004c0.743,0.718,1.156,1.533,1.238,2.446h-1.421c-0.158-0.693-0.474-1.242-0.946-1.648
			c-0.473-0.404-1.135-0.607-1.989-0.607c-1.041,0-1.881,0.373-2.521,1.118c-0.64,0.745-0.96,1.888-0.96,3.427
			c0,1.261,0.289,2.283,0.867,3.067c0.578,0.785,1.44,1.177,2.586,1.177c1.055,0,1.858-0.412,2.41-1.238
			c0.292-0.434,0.511-1.005,0.655-1.713h1.421c-0.125,1.133-0.541,2.082-1.245,2.849c-0.845,0.923-1.984,1.384-3.417,1.384
			c-1.235,0-2.273-0.378-3.113-1.136c-1.105-1.001-1.658-2.548-1.658-4.639c0-1.588,0.415-2.891,1.245-3.906
			c0.897-1.104,2.135-1.657,3.713-1.657C48.048,11.927,49.093,12.286,49.836,13.004z"/>
		<path fill="#FFFFFF" d="M58.566,15.918c0.693,0.674,1.04,1.664,1.04,2.971c0,1.264-0.306,2.308-0.917,3.133
			c-0.611,0.824-1.559,1.236-2.844,1.236c-1.071,0-1.922-0.364-2.553-1.094s-0.945-1.709-0.945-2.938
			c0-1.317,0.332-2.366,0.996-3.146c0.665-0.78,1.557-1.171,2.677-1.171C57.024,14.908,57.873,15.245,58.566,15.918z M57.748,21.132
			c0.321-0.661,0.481-1.396,0.481-2.206c0-0.731-0.116-1.326-0.348-1.785c-0.367-0.722-1-1.083-1.897-1.083
			c-0.797,0-1.376,0.308-1.738,0.922c-0.362,0.615-0.543,1.356-0.543,2.225c0,0.834,0.181,1.528,0.543,2.085
			c0.362,0.556,0.937,0.833,1.724,0.833C56.834,22.122,57.427,21.792,57.748,21.132z"/>
		<path fill="#FFFFFF" d="M61.225,15.136h1.252v1.113c0.371-0.459,0.764-0.789,1.179-0.989s0.876-0.3,1.384-0.3
			c1.113,0,1.865,0.388,2.256,1.164c0.215,0.425,0.322,1.033,0.322,1.824v5.031h-1.34v-4.943c0-0.479-0.071-0.865-0.212-1.158
			c-0.234-0.487-0.659-0.732-1.274-0.732c-0.312,0-0.569,0.032-0.769,0.096c-0.361,0.107-0.679,0.322-0.952,0.645
			c-0.22,0.259-0.362,0.526-0.429,0.802c-0.065,0.276-0.099,0.671-0.099,1.183v4.109h-1.318V15.136z"/>
		<path fill="#FFFFFF" d="M69.567,15.136h1.252v1.113c0.371-0.459,0.764-0.789,1.179-0.989s0.876-0.3,1.384-0.3
			c1.113,0,1.865,0.388,2.256,1.164c0.215,0.425,0.322,1.033,0.322,1.824v5.031h-1.34v-4.943c0-0.479-0.071-0.865-0.212-1.158
			c-0.234-0.487-0.659-0.732-1.274-0.732c-0.312,0-0.569,0.032-0.769,0.096c-0.361,0.107-0.679,0.322-0.952,0.645
			c-0.22,0.259-0.362,0.526-0.429,0.802c-0.065,0.276-0.099,0.671-0.099,1.183v4.109h-1.318V15.136z"/>
		<path fill="#FFFFFF" d="M82.755,15.352c0.519,0.261,0.915,0.6,1.187,1.015c0.262,0.395,0.437,0.856,0.524,1.384
			c0.078,0.361,0.117,0.938,0.117,1.729h-5.706c0.024,0.798,0.211,1.438,0.56,1.921s0.889,0.723,1.621,0.723
			c0.683,0,1.228-0.228,1.635-0.684c0.228-0.265,0.389-0.571,0.484-0.92h1.296c-0.034,0.288-0.148,0.609-0.341,0.963
			c-0.193,0.354-0.408,0.644-0.645,0.868c-0.397,0.391-0.89,0.654-1.476,0.791c-0.315,0.078-0.671,0.117-1.069,0.117
			c-0.97,0-1.793-0.355-2.467-1.065c-0.675-0.711-1.012-1.705-1.012-2.984c0-1.26,0.34-2.283,1.019-3.069s1.567-1.179,2.664-1.179
			C81.699,14.96,82.235,15.09,82.755,15.352z M83.227,18.431c-0.053-0.57-0.177-1.027-0.371-1.369
			c-0.358-0.635-0.956-0.952-1.793-0.952c-0.601,0-1.104,0.219-1.511,0.655c-0.407,0.438-0.623,0.992-0.646,1.666H83.227z"/>
		<path fill="#FFFFFF" d="M91.434,15.553c0.554,0.43,0.888,1.17,1,2.22h-1.282c-0.078-0.484-0.256-0.886-0.535-1.205
			c-0.278-0.32-0.725-0.48-1.34-0.48c-0.84,0-1.44,0.41-1.802,1.229c-0.234,0.531-0.352,1.188-0.352,1.968
			c0,0.785,0.166,1.446,0.498,1.982s0.854,0.805,1.567,0.805c0.547,0,0.98-0.167,1.3-0.5c0.319-0.333,0.541-0.789,0.663-1.367h1.282
			c-0.146,1.039-0.513,1.8-1.099,2.281c-0.586,0.48-1.335,0.721-2.249,0.721c-1.025,0-1.843-0.374-2.454-1.124
			c-0.61-0.749-0.916-1.686-0.916-2.809c0-1.377,0.334-2.448,1.003-3.216c0.669-0.766,1.521-1.149,2.556-1.149
			C90.161,14.908,90.879,15.123,91.434,15.553z"/>
		<path fill="#FFFFFF" d="M94.016,12.945h1.333v2.19h1.252v1.076h-1.252v5.119c0,0.274,0.093,0.457,0.278,0.55
			c0.103,0.054,0.273,0.081,0.513,0.081c0.063,0,0.132-0.002,0.205-0.005c0.073-0.004,0.159-0.012,0.256-0.024v1.047
			c-0.151,0.044-0.309,0.075-0.472,0.096c-0.164,0.019-0.341,0.029-0.531,0.029c-0.615,0-1.033-0.158-1.252-0.473
			c-0.22-0.315-0.33-0.724-0.33-1.227v-5.193h-1.062v-1.076h1.062V12.945z"/>
		<path fill="#FFFFFF" d="M103.405,15.136v5.207c0,0.4,0.062,0.728,0.186,0.981c0.228,0.469,0.654,0.703,1.277,0.703
			c0.894,0,1.502-0.41,1.826-1.23c0.176-0.439,0.264-1.042,0.264-1.81v-3.852h1.318v7.844h-1.245l0.015-1.157
			c-0.168,0.298-0.376,0.55-0.625,0.755c-0.494,0.41-1.092,0.615-1.797,0.615c-1.097,0-1.844-0.374-2.242-1.121
			c-0.215-0.4-0.323-0.935-0.323-1.604v-5.332H103.405z"/>
		<path fill="#FFFFFF" d="M111.213,20.519c0.04,0.439,0.152,0.776,0.336,1.011c0.34,0.425,0.928,0.638,1.765,0.638
			c0.498,0,0.937-0.106,1.315-0.319c0.379-0.212,0.568-0.54,0.568-0.985c0-0.336-0.151-0.593-0.454-0.769
			c-0.194-0.107-0.575-0.231-1.146-0.374l-1.064-0.264c-0.681-0.165-1.182-0.352-1.504-0.557c-0.576-0.355-0.863-0.85-0.863-1.479
			c0-0.742,0.271-1.343,0.812-1.803c0.541-0.458,1.27-0.688,2.186-0.688c1.197,0,2.061,0.347,2.59,1.039
			c0.332,0.439,0.493,0.914,0.483,1.422h-1.245c-0.025-0.297-0.133-0.566-0.322-0.809c-0.311-0.345-0.848-0.518-1.612-0.518
			c-0.51,0-0.896,0.095-1.158,0.284c-0.263,0.19-0.394,0.44-0.394,0.752c0,0.341,0.172,0.613,0.518,0.817
			c0.199,0.122,0.492,0.229,0.881,0.322l0.887,0.212c0.966,0.229,1.612,0.452,1.941,0.667c0.512,0.336,0.769,0.866,0.769,1.589
			c0,0.698-0.269,1.302-0.805,1.81c-0.536,0.507-1.353,0.762-2.45,0.762c-1.182,0-2.019-0.266-2.511-0.795
			c-0.491-0.53-0.755-1.186-0.79-1.967H111.213z"/>
		<path fill="#FFFFFF" d="M117.93,12.22h1.34v1.494h-1.34V12.22z M117.93,15.172h1.34v7.808h-1.34V15.172z"/>
		<path fill="#FFFFFF" d="M121.262,15.136h1.252v1.113c0.371-0.459,0.765-0.789,1.18-0.989s0.877-0.3,1.385-0.3
			c1.113,0,1.865,0.388,2.256,1.164c0.215,0.425,0.322,1.033,0.322,1.824v5.031h-1.341v-4.943c0-0.479-0.071-0.865-0.212-1.158
			c-0.234-0.487-0.66-0.732-1.275-0.732c-0.312,0-0.568,0.032-0.769,0.096c-0.361,0.107-0.679,0.322-0.952,0.645
			c-0.22,0.259-0.362,0.526-0.429,0.802c-0.065,0.276-0.099,0.671-0.099,1.183v4.109h-1.318V15.136z"/>
		<path fill="#FFFFFF" d="M133.965,15.45c0.248,0.171,0.501,0.42,0.759,0.747v-0.989h1.216v7.135c0,0.996-0.146,1.781-0.438,2.357
			c-0.545,1.064-1.574,1.598-3.088,1.598c-0.842,0-1.551-0.189-2.125-0.568c-0.574-0.378-0.895-0.971-0.963-1.775h1.34
			c0.062,0.352,0.189,0.622,0.379,0.812c0.296,0.293,0.762,0.439,1.398,0.439c1.006,0,1.663-0.356,1.975-1.069
			c0.184-0.42,0.27-1.169,0.254-2.249c-0.262,0.401-0.578,0.699-0.947,0.895c-0.37,0.195-0.859,0.293-1.467,0.293
			c-0.847,0-1.587-0.302-2.222-0.905c-0.635-0.603-0.952-1.601-0.952-2.991c0-1.313,0.32-2.339,0.959-3.076
			c0.641-0.737,1.412-1.106,2.316-1.106C132.973,14.996,133.508,15.147,133.965,15.45z M134.126,16.864
			c-0.398-0.469-0.905-0.703-1.522-0.703c-0.924,0-1.555,0.435-1.895,1.303c-0.18,0.465-0.27,1.072-0.27,1.824
			c0,0.884,0.178,1.557,0.535,2.018c0.357,0.462,0.837,0.692,1.439,0.692c0.941,0,1.605-0.427,1.988-1.282
			c0.215-0.482,0.321-1.047,0.321-1.691C134.724,18.053,134.524,17.333,134.126,16.864z"/>
		<path fill="#FFFFFF" d="M142.429,12.22h7.464v1.318h-6.006v3.268h5.28v1.281h-5.28v4.893h-1.458V12.22z"/>
		<path fill="#FFFFFF" d="M155.48,18.232c0.303-0.039,0.506-0.166,0.607-0.38c0.059-0.118,0.088-0.287,0.088-0.508
			c0-0.451-0.159-0.778-0.479-0.981c-0.318-0.203-0.775-0.306-1.37-0.306c-0.687,0-1.175,0.188-1.462,0.56
			c-0.161,0.206-0.266,0.514-0.314,0.921h-1.23c0.024-0.97,0.338-1.645,0.939-2.024c0.604-0.379,1.302-0.569,2.097-0.569
			c0.921,0,1.67,0.176,2.245,0.527c0.571,0.352,0.856,0.899,0.856,1.642v4.519c0,0.137,0.028,0.247,0.084,0.33
			s0.175,0.124,0.355,0.124c0.059,0,0.124-0.004,0.198-0.011c0.072-0.008,0.15-0.019,0.234-0.033v0.975
			c-0.205,0.059-0.361,0.095-0.469,0.109s-0.254,0.021-0.439,0.021c-0.455,0-0.784-0.16-0.989-0.482
			c-0.107-0.171-0.183-0.413-0.228-0.726c-0.268,0.352-0.654,0.657-1.156,0.916c-0.504,0.258-1.058,0.388-1.663,0.388
			c-0.728,0-1.322-0.221-1.783-0.662c-0.462-0.441-0.692-0.993-0.692-1.657c0-0.727,0.227-1.289,0.682-1.689
			c0.453-0.399,1.049-0.646,1.787-0.739L155.48,18.232z M152.705,21.794c0.277,0.219,0.607,0.328,0.988,0.328
			c0.464,0,0.913-0.106,1.348-0.321c0.732-0.355,1.099-0.938,1.099-1.748v-1.06c-0.161,0.103-0.368,0.188-0.621,0.257
			s-0.502,0.117-0.745,0.146l-0.797,0.103c-0.479,0.063-0.838,0.163-1.078,0.3c-0.408,0.229-0.611,0.595-0.611,1.096
			C152.287,21.274,152.426,21.574,152.705,21.794z"/>
		<path fill="#FFFFFF" d="M164.801,15.553c0.554,0.43,0.887,1.17,1,2.22h-1.282c-0.078-0.484-0.257-0.886-0.534-1.205
			c-0.279-0.32-0.726-0.48-1.341-0.48c-0.84,0-1.44,0.41-1.802,1.229c-0.234,0.531-0.352,1.188-0.352,1.968
			c0,0.785,0.166,1.446,0.498,1.982s0.854,0.805,1.567,0.805c0.547,0,0.979-0.167,1.3-0.5s0.541-0.789,0.663-1.367h1.282
			c-0.146,1.039-0.514,1.8-1.1,2.281c-0.586,0.48-1.335,0.721-2.248,0.721c-1.025,0-1.844-0.374-2.453-1.124
			c-0.611-0.749-0.916-1.686-0.916-2.809c0-1.377,0.334-2.448,1.004-3.216c0.668-0.766,1.521-1.149,2.556-1.149
			C163.527,14.908,164.246,15.123,164.801,15.553z"/>
		<path fill="#FFFFFF" d="M171.964,15.352c0.519,0.261,0.915,0.6,1.187,1.015c0.262,0.395,0.437,0.856,0.523,1.384
			c0.078,0.361,0.117,0.938,0.117,1.729h-5.705c0.023,0.798,0.211,1.438,0.559,1.921c0.35,0.482,0.89,0.723,1.621,0.723
			c0.684,0,1.229-0.228,1.635-0.684c0.229-0.265,0.389-0.571,0.484-0.92h1.297c-0.035,0.288-0.148,0.609-0.342,0.963
			c-0.192,0.354-0.407,0.644-0.645,0.868c-0.397,0.391-0.89,0.654-1.476,0.791c-0.315,0.078-0.671,0.117-1.069,0.117
			c-0.97,0-1.793-0.355-2.467-1.065c-0.675-0.711-1.012-1.705-1.012-2.984c0-1.26,0.34-2.283,1.02-3.069
			c0.679-0.786,1.566-1.179,2.664-1.179C170.908,14.96,171.444,15.09,171.964,15.352z M172.436,18.431
			c-0.053-0.57-0.176-1.027-0.37-1.369c-0.358-0.635-0.956-0.952-1.794-0.952c-0.6,0-1.104,0.219-1.51,0.655
			c-0.407,0.438-0.623,0.992-0.646,1.666H172.436z"/>
		<path fill="#FFFFFF" d="M175.352,12.184h1.281v3.903c0.289-0.375,0.635-0.662,1.037-0.86c0.401-0.197,0.838-0.296,1.309-0.296
			c0.98,0,1.775,0.335,2.386,1.007c0.61,0.671,0.915,1.661,0.915,2.97c0,1.24-0.301,2.271-0.904,3.091
			c-0.603,0.82-1.438,1.23-2.507,1.23c-0.599,0-1.103-0.145-1.515-0.433c-0.245-0.17-0.508-0.443-0.787-0.82v1.004h-1.215V12.184z
			 M180.393,21.214c0.354-0.565,0.532-1.312,0.532-2.24c0-0.825-0.178-1.51-0.532-2.051c-0.355-0.543-0.879-0.813-1.57-0.813
			c-0.602,0-1.13,0.223-1.583,0.667s-0.68,1.177-0.68,2.197c0,0.737,0.093,1.335,0.279,1.794c0.348,0.864,0.997,1.296,1.947,1.296
			C179.502,22.063,180.037,21.781,180.393,21.214z"/>
		<path fill="#FFFFFF" d="M189.486,15.918c0.693,0.674,1.041,1.664,1.041,2.971c0,1.264-0.307,2.308-0.917,3.133
			c-0.61,0.824-1.559,1.236-2.844,1.236c-1.071,0-1.923-0.364-2.553-1.094s-0.945-1.709-0.945-2.938
			c0-1.317,0.332-2.366,0.996-3.146c0.665-0.78,1.557-1.171,2.677-1.171C187.945,14.908,188.793,15.245,189.486,15.918z
			 M188.668,21.132c0.321-0.661,0.482-1.396,0.482-2.206c0-0.731-0.116-1.326-0.348-1.785c-0.367-0.722-1-1.083-1.898-1.083
			c-0.797,0-1.375,0.308-1.738,0.922c-0.361,0.615-0.543,1.356-0.543,2.225c0,0.834,0.182,1.528,0.543,2.085
			c0.363,0.556,0.938,0.833,1.725,0.833C187.754,22.122,188.348,21.792,188.668,21.132z"/>
		<path fill="#FFFFFF" d="M197.829,15.918c0.693,0.674,1.04,1.664,1.04,2.971c0,1.264-0.306,2.308-0.916,3.133
			c-0.611,0.824-1.559,1.236-2.844,1.236c-1.072,0-1.923-0.364-2.553-1.094c-0.631-0.729-0.945-1.709-0.945-2.938
			c0-1.317,0.332-2.366,0.996-3.146s1.557-1.171,2.676-1.171C196.287,14.908,197.136,15.245,197.829,15.918z M197.011,21.132
			c0.321-0.661,0.481-1.396,0.481-2.206c0-0.731-0.115-1.326-0.348-1.785c-0.367-0.722-1-1.083-1.897-1.083
			c-0.797,0-1.376,0.308-1.738,0.922c-0.362,0.615-0.543,1.356-0.543,2.225c0,0.834,0.181,1.528,0.543,2.085
			c0.362,0.556,0.937,0.833,1.724,0.833C196.097,22.122,196.689,21.792,197.011,21.132z"/>
		<path fill="#FFFFFF" d="M200.459,12.22h1.267v6.247l3.381-3.331h1.685l-3.016,2.916l3.184,4.928h-1.684l-2.467-3.992l-1.083,1.048
			v2.944h-1.267V12.22z"/>
	</g>
</g>
<g id="f">
	<g enable-background="new    ">
		<path fill="#FFFFFF" d="M22.54,6.392v4.489h-2.442c-0.726,0-1.188,0.197-1.419,0.594c-0.165,0.264-0.231,0.727-0.231,1.354v2.046
			h4.159l-0.495,4.521h-3.664v13.037h-5.38V19.396h-2.641v-4.521h2.641v-2.706c0-2.772,0.957-4.555,2.838-5.314
			c0.924-0.362,1.716-0.462,2.542-0.462H22.54z"/>
	</g>
</g>
<g id="separator_xA0_Image_1_">
	<rect x="35.235" fill="#4D7A9D" width="1.015" height="35.75"/>
	<rect x="34.352" opacity="0.4" fill="#E3F5FF" enable-background="new    " width="0.962" height="35.75"/>
</g>
</svg>
