<?xml version="1.0" encoding="utf-8"?>
<!-- Generator: Adobe Illustrator 16.0.0, SVG Export Plug-In . SVG Version: 6.00 Build 0)  -->
<!DOCTYPE svg PUBLIC "-//W3C//DTD SVG 1.1//EN" "http://www.w3.org/Graphics/SVG/1.1/DTD/svg11.dtd">
<svg version="1.1" xmlns="http://www.w3.org/2000/svg" xmlns:xlink="http://www.w3.org/1999/xlink" x="0px" y="0px" width="500px"
	 height="500px" viewBox="0 0 500 500" enable-background="new 0 0 500 500" xml:space="preserve">
<g id="Layer_1" display="none">
	<g display="inline">
		<path fill="#848484" stroke="#F1F2F2" stroke-miterlimit="10" d="M32.077,249.072c0,14.478-0.061,28.951,0.011,43.436
			c0.232,47.229-0.847,94.521,1.145,141.687c2.211,52.406,39.64,74.176,87.477,52.638c10.393-4.679,20.3-10.504,30.206-16.18
			c74.022-42.43,148.062-84.832,221.941-127.515c25.712-14.854,52.219-28.756,76.151-46.148
			c37.148-27.003,36.611-67.286,0.705-95.903c-6.526-5.203-13.696-9.694-20.932-13.876
			c-96.968-56.009-194.02-111.875-290.999-167.86c-11.957-6.901-24.293-12.768-37.797-15.826C73.232-2.532,49.601,9.76,38.639,35.02
			c-6.256,14.417-6.52,29.669-6.558,44.902C31.945,136.306,32.027,192.691,32.077,249.072z"/>
		<path fill-rule="evenodd" clip-rule="evenodd" fill="#848484" stroke="#F1F2F2" stroke-miterlimit="10" d="M32.052,249.072
			c-0.025-56.381-0.107-112.766,0.029-169.15c0.038-15.233,0.302-30.485,6.558-44.902C49.601,9.76,73.232-2.532,99.984,3.524
			c13.504,3.058,25.841,8.925,37.797,15.826c96.979,55.986,194.031,111.851,290.999,167.86c7.235,4.182,14.405,8.673,20.932,13.876
			c35.906,28.617,36.443,68.9-0.705,95.903c-23.933,17.393-50.439,31.295-76.151,46.148
			c-73.879,42.683-147.918,85.085-221.941,127.515c-9.906,5.676-19.813,11.501-30.206,16.18
			c-47.836,21.538-85.266-0.231-87.477-52.638c-1.991-47.166-0.912-94.458-1.145-141.687
			C32.016,278.023,32.077,263.55,32.052,249.072z"/>
	</g>
</g>
<g id="Layer_2">
	<path fill="#848484" stroke="#F1F2F2" stroke-miterlimit="10" d="M205.599,432.457c0,27.914-22.628,50.543-50.543,50.543H83.284
		c-27.914,0-50.543-22.629-50.543-50.543V68.543C32.74,40.629,55.37,18,83.284,18h71.772c27.915,0,50.543,22.629,50.543,50.543
		V432.457z"/>
	<path fill="#848484" stroke="#F1F2F2" stroke-miterlimit="10" d="M462,432.457C462,460.371,439.372,483,411.457,483h-71.771
		c-27.915,0-50.544-22.629-50.544-50.543V68.543c0-27.914,22.629-50.543,50.544-50.543h71.771C439.372,18,462,40.629,462,68.543
		V432.457z"/>
</g>
<g id="Layer_3" display="none">
	<g display="inline">
		<path fill="#848484" stroke="#F1F2F2" stroke-miterlimit="10" d="M26.003,113.082c0.02-12.032,0.151-24.079,3.334-35.467
			c5.571-19.953,17.58-29.662,31.176-24.878c6.863,2.416,13.134,7.05,19.209,12.501c49.286,44.221,98.612,88.348,147.892,132.59
			c3.678,3.302,7.32,6.85,10.638,10.96c18.248,22.604,18.521,54.422-0.358,75.752c-12.164,13.736-25.634,24.717-38.701,36.453
			c-37.546,33.711-75.175,67.203-112.794,100.719c-5.036,4.484-10.07,9.086-15.353,12.779
			c-24.312,17.014-43.332-0.182-44.456-41.576c-1.014-37.256-0.466-74.609-0.583-111.916c-0.035-11.441-0.004-22.875-0.004-34.307
			C25.975,202.156,25.934,157.618,26.003,113.082z"/>
		<path fill-rule="evenodd" clip-rule="evenodd" fill="#848484" stroke="#F1F2F2" stroke-miterlimit="10" d="M25.99,246.692
			c-0.016-44.536-0.057-89.074,0.013-133.61c0.02-12.032,0.151-24.079,3.334-35.467c5.571-19.953,17.58-29.662,31.176-24.878
			c6.863,2.416,13.134,7.05,19.209,12.501c49.286,44.221,98.612,88.348,147.892,132.59c3.678,3.302,7.32,6.85,10.638,10.96
			c18.248,22.604,18.521,54.422-0.358,75.752c-12.164,13.736-25.634,24.717-38.701,36.453
			c-37.546,33.711-75.175,67.203-112.794,100.719c-5.036,4.484-10.07,9.086-15.353,12.779
			c-24.312,17.014-43.332-0.182-44.456-41.576c-1.014-37.256-0.466-74.609-0.583-111.916
			C25.971,269.558,26.002,258.124,25.99,246.692z"/>
	</g>
	<g display="inline">
		<path fill="#848484" stroke="#F1F2F2" stroke-miterlimit="10" d="M255.005,121.757c0.018-11.291,0.149-22.596,3.274-33.282
			c5.473-18.722,17.271-27.833,30.631-23.345c6.74,2.268,12.901,6.615,18.871,11.73c48.423,41.498,96.883,82.905,145.301,124.419
			c3.613,3.101,7.193,6.43,10.451,10.286c17.929,21.211,18.196,51.068-0.353,71.084c-11.949,12.892-25.185,23.195-38.022,34.204
			c-36.889,31.637-73.858,63.066-110.82,94.516c-4.945,4.206-9.893,8.524-15.08,11.992c-23.887,15.964-42.576-0.172-43.679-39.017
			c-0.995-34.959-0.456-70.011-0.572-105.019c-0.036-10.733-0.005-21.463-0.005-32.194
			C254.978,205.342,254.937,163.549,255.005,121.757z"/>
		<path fill-rule="evenodd" clip-rule="evenodd" fill="#848484" stroke="#F1F2F2" stroke-miterlimit="10" d="M254.989,247.132
			c-0.012-41.791-0.053-83.583,0.016-125.375c0.018-11.291,0.149-22.596,3.274-33.282c5.473-18.722,17.271-27.833,30.631-23.345
			c6.74,2.268,12.901,6.615,18.871,11.73c48.423,41.498,96.883,82.905,145.301,124.419c3.613,3.101,7.193,6.43,10.451,10.286
			c17.929,21.211,18.196,51.068-0.353,71.084c-11.949,12.892-25.185,23.195-38.022,34.204
			c-36.889,31.637-73.858,63.066-110.82,94.516c-4.945,4.206-9.893,8.524-15.08,11.992c-23.887,15.964-42.576-0.172-43.679-39.017
			c-0.995-34.959-0.456-70.011-0.572-105.019C254.971,268.593,255.002,257.863,254.989,247.132z"/>
	</g>
</g>
<g id="Layer_4" display="none">
	<g display="inline">
		<path fill="#848484" stroke="#F1F2F2" stroke-miterlimit="10" d="M483.998,246.692c0,11.432,0.031,22.866-0.004,34.307
			c-0.117,37.307,0.431,74.66-0.583,111.916c-1.124,41.395-20.145,58.59-44.456,41.576c-5.282-3.693-10.316-8.295-15.353-12.779
			c-37.619-33.516-75.248-67.008-112.794-100.719c-13.067-11.736-26.537-22.717-38.701-36.453
			c-18.88-21.33-18.606-53.148-0.358-75.752c3.317-4.11,6.96-7.658,10.638-10.96c49.279-44.242,98.605-88.369,147.892-132.59
			c6.075-5.452,12.346-10.086,19.209-12.501c13.596-4.784,25.604,4.926,31.176,24.878c3.183,11.388,3.314,23.435,3.334,35.467
			C484.066,157.618,484.025,202.156,483.998,246.692z"/>
		<path fill-rule="evenodd" clip-rule="evenodd" fill="#848484" stroke="#F1F2F2" stroke-miterlimit="10" d="M484.01,246.692
			c0.016-44.536,0.057-89.074-0.013-133.61c-0.02-12.032-0.151-24.079-3.334-35.467c-5.571-19.953-17.58-29.662-31.176-24.878
			c-6.863,2.416-13.134,7.05-19.209,12.501c-49.286,44.221-98.612,88.348-147.892,132.59c-3.678,3.302-7.32,6.85-10.638,10.96
			c-18.248,22.604-18.521,54.422,0.358,75.752c12.164,13.736,25.634,24.717,38.701,36.453
			c37.546,33.711,75.175,67.203,112.794,100.719c5.036,4.484,10.07,9.086,15.353,12.779c24.312,17.014,43.332-0.182,44.456-41.576
			c1.014-37.256,0.466-74.609,0.583-111.916C484.029,269.558,483.998,258.124,484.01,246.692z"/>
	</g>
	<g display="inline">
		<path fill="#848484" stroke="#F1F2F2" stroke-miterlimit="10" d="M254.998,247.132c0,10.731,0.031,21.46-0.005,32.194
			c-0.116,35.008,0.423,70.06-0.572,105.019c-1.103,38.845-19.792,54.98-43.678,39.017c-5.188-3.468-10.135-7.786-15.081-11.992
			C158.7,379.92,121.73,348.49,84.842,316.854c-12.838-11.009-26.074-21.312-38.023-34.204
			c-18.549-20.017-18.281-49.874-0.353-71.084c3.258-3.856,6.838-7.186,10.451-10.286c48.418-41.514,96.878-82.921,145.302-124.419
			c5.969-5.115,12.13-9.462,18.871-11.73c13.359-4.488,25.158,4.624,30.63,23.345c3.125,10.687,3.257,21.991,3.274,33.282
			C255.063,163.549,255.022,205.342,254.998,247.132z"/>
		<path fill-rule="evenodd" clip-rule="evenodd" fill="#848484" stroke="#F1F2F2" stroke-miterlimit="10" d="M255.011,247.132
			c0.012-41.791,0.053-83.583-0.016-125.375c-0.018-11.291-0.149-22.596-3.274-33.282c-5.473-18.722-17.271-27.833-30.63-23.345
			c-6.741,2.268-12.902,6.615-18.871,11.73c-48.423,41.498-96.884,82.905-145.302,124.419c-3.612,3.101-7.193,6.43-10.451,10.286
			c-17.929,21.211-18.196,51.068,0.353,71.084c11.949,12.892,25.185,23.195,38.023,34.204
			c36.888,31.637,73.858,63.066,110.819,94.516c4.946,4.206,9.893,8.524,15.081,11.992c23.886,15.964,42.576-0.172,43.678-39.017
			c0.995-34.959,0.456-70.011,0.572-105.019C255.029,268.593,254.998,257.863,255.011,247.132z"/>
	</g>
</g>
<g id="Layer_5" display="none">
	<g display="inline">
		<path fill="none" d="M303.283,405.896c9.039,0,18.076-0.078,27.111,0.016c22.135,0.229,19.451-2.774,19.629,19.186
			c0.076,9.348,0.184,18.702-0.047,28.045c-0.197,8.062,2.752,8.286,8.738,4.429c30.639-19.75,61.416-39.291,92.082-58.999
			c6.057-3.893,11.395-8.689,15.607-14.611c8.988-12.637,7.973-26.487-3.152-37.165c-3.553-3.408-7.725-6.362-12.043-8.748
			c-30.816-17.02-61.783-33.768-92.602-50.782c-5.904-3.26-8.537-2.481-8.469,4.67c0.119,12.464-0.324,24.939,0.096,37.39
			c0.252,7.544-2.174,10.712-10.09,10.373c-11.82-0.506-23.703-0.609-35.514-0.018c-19.033,0.955-31.988-7.498-40.955-23.809
			c-18.761-34.124-37.829-68.078-56.75-102.114c-13.471-24.234-26.851-48.518-40.38-72.718
			c-8.447-15.108-20.661-25.124-38.609-25.487c-22.116-0.447-44.251-0.357-66.371-0.044c-17.374,0.247-29.323,13.681-29.243,32.035
			c0.089,20.229,11.426,33.184,29.698,33.6c10.901,0.248,21.819-0.14,32.717,0.174c13.325,0.385,23.685,5.416,30.444,17.941
			c17.162,31.799,34.959,63.256,52.517,94.842c14.682,26.414,28.999,53.04,44.195,79.153c12.565,21.593,30.123,35.416,57.097,32.764
			C287.016,405.229,295.182,405.896,303.283,405.896z M297.938,115.378c0,0.013,0,0.025,0,0.039
			c-13.705,0-27.408-0.024-41.111,0.007c-14.257,0.032-25.354,6.367-32.867,18.125c-5.684,8.896-10.176,18.552-15.205,27.866
			c-1.717,3.181-2.264,6.239-0.353,9.707c9.319,16.906,18.552,33.861,27.671,50.876c2.731,5.096,5,4.543,7.854,0.174
			c6.127-9.381,12.503-18.6,18.581-28.012c5.799-8.977,14.307-12.723,24.537-12.832c18.062-0.193,36.131,0.124,54.189-0.193
			c7.135-0.126,9.168,3.015,9.006,9.59c-0.305,12.45,0.01,24.914-0.16,37.371c-0.082,6.061,1.029,9.231,7.869,5.48
			c31.395-17.217,63.266-33.609,94.197-51.612c26.209-15.252,27.014-39.423,1.818-56.433C422.492,104.283,389.98,84.574,358,64.071
			c-6.506-4.172-7.82-1.667-7.715,4.784c0.203,12.454-0.215,24.92,0.074,37.371c0.158,6.919-2.701,9.375-9.443,9.24
			C326.594,115.18,312.264,115.378,297.938,115.378z M97.277,405.896c0-0.019,0-0.039,0-0.059c12.467,0,24.934-0.014,37.401,0.005
			c12.094,0.018,20.897-5.417,26.359-16.126c5.807-11.381,11.394-22.873,17.162-34.274c1.814-3.587,2.176-6.95,0.13-10.631
			c-9.541-17.155-19.015-34.349-28.42-51.578c-3.447-6.313-6.12-4.548-8.896,0.487c-4.664,8.458-9.4,16.878-14.168,25.278
			c-6.235,10.984-15.364,17.423-28.126,19.312c-11.517,1.705-23.013,1.03-34.52,1.248c-16.632,0.314-28.027,9.149-31.236,25.225
			c-3.789,18.976,2.925,43.412,32.532,41.237C76.035,405.245,86.68,405.896,97.277,405.896z"/>
		<path fill-rule="evenodd" clip-rule="evenodd" d="M303.283,405.896c-8.102,0-16.268-0.667-24.293,0.122
			c-26.975,2.652-44.532-11.171-57.097-32.764c-15.196-26.113-29.514-52.739-44.195-79.153
			c-17.558-31.586-35.354-63.043-52.517-94.842c-6.759-12.525-17.12-17.557-30.444-17.941c-10.898-0.313-21.815,0.074-32.717-0.174
			c-18.272-0.416-29.609-13.371-29.698-33.6c-0.08-18.354,11.869-31.789,29.243-32.035c22.12-0.313,44.254-0.403,66.371,0.044
			c17.948,0.363,30.163,10.378,38.609,25.487c13.529,24.2,26.91,48.483,40.38,72.718c18.921,34.036,37.989,67.99,56.75,102.114
			c8.967,16.311,21.922,24.764,40.955,23.809c11.811-0.592,23.693-0.488,35.514,0.018c7.916,0.339,10.342-2.829,10.09-10.373
			C349.814,316.875,351,293,351,293c2.861-5.936,10.346-4.26,16.25-1c30.818,17.015,53.143,29.028,83.959,46.048
			c4.318,2.386,8.49,5.34,12.043,8.748c11.125,10.678,12.141,24.528,3.152,37.165c-4.213,5.922-9.551,10.719-15.607,14.611
			c-30.666,19.708-61.443,39.249-92.082,58.999c-5.986,3.857-8.936,3.633-8.738-4.429c0.23-9.343,0.123-18.697,0.047-28.045
			c-0.178-21.96,2.506-18.956-19.629-19.186C321.359,405.818,312.322,405.896,303.283,405.896z"/>
		<path fill-rule="evenodd" clip-rule="evenodd" d="M297.938,115.378c14.326,0,28.656-0.198,42.979,0.088
			c6.742,0.135,9.602-2.321,9.443-9.24c-0.289-12.451,0.129-24.917-0.074-37.371c-0.105-6.451,1.209-8.956,7.715-4.784
			c31.98,20.503,64.492,40.211,95.965,61.459c25.195,17.01,24.391,41.181-1.818,56.433c-30.932,18.003-62.803,34.396-94.197,51.612
			c-6.84,3.751-7.951,0.58-7.869-5.48c0.17-12.457-0.145-24.921,0.16-37.371c0.162-6.575-1.871-9.716-9.006-9.59
			c-18.059,0.317-36.127,0-54.189,0.193c-10.23,0.109-18.738,3.855-24.537,12.832c-6.078,9.412-35.38,60.459-41.508,69.84
			c-2.854,4.369-8.269,5.096-11,0c-9.119-17.016-6.681-28.094-16-45c-1.912-3.468-7.717-18.819-6-22
			c5.029-9.313,30.275-54.555,35.959-63.451c7.513-11.758,18.61-18.094,32.867-18.125c13.703-0.031,27.406-0.007,41.111-0.007
			C297.938,115.403,297.938,115.391,297.938,115.378z"/>
		<path fill-rule="evenodd" clip-rule="evenodd" d="M97.277,405.896c-10.597,0-21.242-0.65-31.782,0.124
			c-29.607,2.175-36.321-22.262-32.532-41.237c3.209-16.075,14.604-24.91,31.236-25.225c11.507-0.218,23.003,0.457,34.52-1.248
			c12.762-1.889,21.891-8.327,28.126-19.312c4.769-8.4,29.491-57.54,34.155-65.998c2.776-5.035,14.553,9.687,18,16
			c9.406,17.229,9.459,23.845,19,41c2.046,3.681-17.987,41.854-19.801,45.441c-5.768,11.401-11.355,22.894-17.162,34.274
			c-5.461,10.709-14.265,16.144-26.359,16.126c-12.467-0.019-24.935-0.005-37.401-0.005
			C97.277,405.856,97.277,405.877,97.277,405.896z"/>
	</g>
</g>
<g id="Layer_6">
</g>
</svg>
