<?xml version="1.0" encoding="utf-8"?>
<!-- Generator: Adobe Illustrator 16.0.0, SVG Export Plug-In . SVG Version: 6.00 Build 0)  -->
<!DOCTYPE svg PUBLIC "-//W3C//DTD SVG 1.1//EN" "http://www.w3.org/Graphics/SVG/1.1/DTD/svg11.dtd">
<svg version="1.1" id="Layer_2" xmlns="http://www.w3.org/2000/svg" xmlns:xlink="http://www.w3.org/1999/xlink" x="0px" y="0px"
	 width="80px" height="80px" viewBox="0 0 80 80" enable-background="new 0 0 80 80" xml:space="preserve">
<path fill="#C1C1C1" d="M70.562,19.409c0,2.861-1.949,5.18-4.356,5.18H13.794c-2.406,0-4.357-2.319-4.357-5.18l0,0
	c0-2.861,1.951-5.18,4.357-5.18h52.412C68.613,14.229,70.562,16.548,70.562,19.409L70.562,19.409z"/>
<path fill="#C1C1C1" d="M70.562,40c0,2.862-1.948,5.18-4.355,5.18H13.795c-2.406,0-4.357-2.318-4.357-5.18l0,0
	c0-2.86,1.951-5.18,4.357-5.18h52.412C68.614,34.82,70.562,37.139,70.562,40L70.562,40z"/>
<path fill="#C1C1C1" d="M70.562,60.59c0,2.863-1.948,5.182-4.355,5.182H13.795c-2.406,0-4.357-2.318-4.357-5.182l0,0
	c0-2.861,1.951-5.18,4.357-5.18h52.412C68.614,55.41,70.562,57.729,70.562,60.59L70.562,60.59z"/>
</svg>
