<?xml version="1.0" encoding="utf-8"?>
<!-- Generator: Adobe Illustrator 16.0.0, SVG Export Plug-In . SVG Version: 6.00 Build 0)  -->
<!DOCTYPE svg PUBLIC "-//W3C//DTD SVG 1.1//EN" "http://www.w3.org/Graphics/SVG/1.1/DTD/svg11.dtd">
<svg version="1.1" xmlns="http://www.w3.org/2000/svg" xmlns:xlink="http://www.w3.org/1999/xlink" x="0px" y="0px"
	 width="2100.61px" height="1045px" viewBox="0 0 2100.61 1045" style="enable-background:new 0 0 2100.61 1045;"
	 xml:space="preserve">
<g id="Layer_3">
	<g>
		<g>
			<g>
				<g>
					<linearGradient id="SVGID_1_" gradientUnits="userSpaceOnUse" x1="822.5552" y1="208.0405" x2="822.5552" y2="760.1704">
						<stop  offset="0" style="stop-color:#000000;stop-opacity:0.2"/>
						<stop  offset="1" style="stop-color:#000000;stop-opacity:0.2"/>
					</linearGradient>
					<path style="fill-rule:evenodd;clip-rule:evenodd;fill:url(#SVGID_1_);" d="M1186.286,465.562
						c-6.188-71.897-74.212-128.53-157.212-128.53c-9.493,0-18.79,0.741-27.823,2.161
						c-26.146-76.146-101.244-131.153-189.826-131.153c-93.647,0-172.227,61.475-193.825,144.415
						c-13.143-2.208-26.683-3.369-40.52-3.369c-123.617,0-223.831,92.024-223.831,205.541
						c0,113.518,100.214,205.542,223.831,205.542c49.615,0,95.447-14.832,132.556-39.917c22.78,24.121,60.702,39.917,103.643,39.917
						c46.786,0,87.624-18.745,109.401-46.587c21.086,11.091,47.199,17.654,75.479,17.654c43.152,0,81.262-15.284,104.154-38.623
						c18.136,9.258,38.888,14.512,60.937,14.512c71.03,0,128.611-54.512,128.611-121.756
						C1291.861,525.568,1246.323,475.841,1186.286,465.562z"/>
				</g>
			</g>
		</g>
	</g>
</g>
<g id="Layer_1">
	<g>
		<g>
			<g>
				<linearGradient id="SVGID_2_" gradientUnits="userSpaceOnUse" x1="808.0635" y1="218.8301" x2="808.0635" y2="740.1704">
					<stop  offset="0.2562" style="stop-color:#FFFFFF"/>
					<stop  offset="0.7789" style="stop-color:#A6DFF7"/>
					<stop  offset="1" style="stop-color:#85D5F6"/>
				</linearGradient>
				<path style="fill-rule:evenodd;clip-rule:evenodd;fill:url(#SVGID_2_);" d="M1163.664,461.991
					c-6.052-67.888-72.553-121.363-153.698-121.363c-9.28,0-18.37,0.7-27.2,2.041c-25.562-71.9-98.981-123.839-185.583-123.839
					c-91.554,0-168.377,58.046-189.492,136.361c-12.849-2.084-26.086-3.181-39.614-3.181c-120.854,0-218.828,86.893-218.828,194.079
					c0,107.188,97.974,194.08,218.828,194.08c48.505,0,93.313-14.005,129.592-37.691c22.271,22.776,59.345,37.691,101.328,37.691
					c45.74,0,85.665-17.7,106.955-43.989c20.614,10.472,46.144,16.67,73.791,16.67c42.188,0,79.446-14.432,101.826-36.469
					c17.73,8.74,38.019,13.703,59.574,13.703c69.442,0,125.736-51.473,125.736-114.968
					C1266.878,518.651,1222.358,471.697,1163.664,461.991z"/>
			</g>
		</g>
	</g>
	<g style="display:none;">
		<g style="display:inline;">
			<defs>
				<rect id="SVGID_3_" x="517.006" y="71.008" width="1209.502" height="1496.001"/>
			</defs>
			<clipPath id="SVGID_4_">
				<use xlink:href="#SVGID_3_"  style="overflow:visible;"/>
			</clipPath>
			<g style="clip-path:url(#SVGID_4_);">
				<defs>
					<rect id="SVGID_5_" x="517.006" y="71.008" width="1209.502" height="1496.001"/>
				</defs>
				<clipPath id="SVGID_6_">
					<use xlink:href="#SVGID_5_"  style="overflow:visible;"/>
				</clipPath>
				<path style="clip-path:url(#SVGID_6_);" d="M602.225,554.524c0-8.546,1.541-16.575,4.624-24.089
					c3.083-7.515,7.347-14.071,12.795-19.67c5.445-5.598,11.971-10.019,19.578-13.26c7.602-3.241,15.926-4.861,24.972-4.861h4.162
					c1.85,0,3.749,0.073,5.704,0.221c1.951,0.147,3.723,0.567,5.318,1.252c1.59,0.688,2.875,1.672,3.853,2.947
					c0.975,1.276,1.465,2.997,1.465,5.156c0,3.045-0.617,5.55-1.85,7.515c-1.233,1.966-3.545,2.946-6.937,2.946
					c-2.983,0-5.781-0.295-8.401-0.885c-2.621-0.589-5.421-0.883-8.402-0.883c-5.96,0-11.433,1.202-16.417,3.609
					c-4.986,2.408-9.303,5.599-12.95,9.576c-3.647,3.979-6.474,8.57-8.478,13.775c-2.003,5.208-3.006,10.56-3.006,16.06
					c0,4.126,0.743,7.882,2.236,11.271c1.488,3.39,3.545,6.263,6.166,8.62c2.621,2.356,5.728,4.198,9.327,5.524
					c3.595,1.326,7.553,1.989,11.87,1.989c5.241,0,10.097-0.686,14.567-2.062c4.471-1.375,8.733-3.144,12.795-5.305
					c4.057-2.159,8.04-4.589,11.947-7.292c3.905-2.702,7.911-5.327,12.024-7.883c1.128-0.884,2.361-1.644,3.7-2.283
					c1.333-0.64,2.518-0.958,3.545-0.958c1.95,0,2.978,1.082,3.083,3.241v0.736c0,3.929-1.133,7.662-3.392,11.197
					c-2.263,3.537-5.217,6.777-8.863,9.725c-3.651,2.946-7.785,5.599-12.409,7.956c-4.625,2.357-9.327,4.347-14.105,5.967
					c-4.779,1.62-9.431,2.873-13.951,3.757c-4.524,0.885-8.479,1.326-11.869,1.326c-6.991,0-13.131-1.155-18.421-3.463
					c-5.295-2.307-9.74-5.474-13.334-9.502c-3.599-4.027-6.321-8.767-8.17-14.219C603.149,566.827,602.225,560.91,602.225,554.524"
					/>
				<path style="clip-path:url(#SVGID_6_);" d="M720.612,588.559c-1.133-6.777-1.927-13.555-2.39-20.333
					c-0.462-6.776-0.694-13.65-0.694-20.626c0-13.555,0.925-27.109,2.774-40.664c0.409-1.865,0.975-3.732,1.697-5.599
					c0.717-1.866,1.667-3.586,2.852-5.156c1.18-1.569,2.595-2.849,4.239-3.831c1.642-0.982,3.646-1.473,6.012-1.473
					c2.361,0,4.032,1.031,5.01,3.093c0.974,2.063,1.464,4.862,1.464,8.398c0,3.831-0.413,8.302-1.233,13.407
					c-0.824,5.107-1.749,10.438-2.774,15.986c-1.027,5.549-1.955,11.123-2.775,16.723c-0.824,5.598-1.233,10.804-1.233,15.616
					c0,2.262,0.126,4.372,0.386,6.336c0.255,1.967,0.64,3.781,1.156,5.451v0.737l0.308,0.589l2.004,1.473
					c0.924,0,1.873,0.025,2.852,0.074c0.975,0.049,1.927,0.073,2.853,0.073c5.958,0,11.893-0.467,17.804-1.399
					c5.907-0.933,11.69-2.38,17.342-4.347c3.184-1.079,6.293-2.332,9.327-3.756c3.029-1.425,6.189-2.628,9.48-3.61h1.233
					c1.334,0,2.567,0.345,3.7,1.031c1.128,0.688,2.105,1.547,2.929,2.579c0.822,1.031,1.438,2.187,1.85,3.462
					c0.409,1.276,0.617,2.455,0.617,3.535c0,1.179-0.231,2.357-0.694,3.536s-1.209,2.161-2.235,2.947
					c-9.971,4.715-20.146,8.324-30.523,10.828c-10.381,2.506-21.172,3.758-32.372,3.758c-2.058,0-4.162-0.052-6.32-0.147
					c-2.159-0.101-4.216-0.441-6.166-1.031c-1.955-0.589-3.676-1.474-5.165-2.652C722.434,592.389,721.329,590.719,720.612,588.559"
					/>
				<path style="clip-path:url(#SVGID_6_);" d="M786.895,567.342c0-4.027,0.36-8.668,1.08-13.923
					c0.717-5.253,1.849-10.631,3.391-16.133c1.541-5.499,3.545-10.879,6.012-16.133s5.419-9.969,8.863-14.145
					c3.443-4.175,7.4-7.515,11.871-10.019c4.47-2.505,9.531-3.757,15.184-3.757c4.008,0,7.322,0.566,9.943,1.694
					c2.619,1.131,4.906,2.676,6.858,4.641c1.953,1.967,3.7,4.225,5.242,6.777c1.541,2.556,3.184,5.257,4.934,8.104
					c1.641,2.652,3.262,5.23,4.854,7.735c1.593,2.504,2.98,5.035,4.163,7.588c1.179,2.556,2.132,5.207,2.852,7.955
					c0.717,2.753,1.079,5.746,1.079,8.987c0,7.467-1.619,14.318-4.856,20.553c-3.237,6.239-7.529,11.617-12.872,16.133
					c-5.343,4.519-11.537,8.03-18.575,10.535c-7.039,2.505-14.31,3.757-21.812,3.757c-4.932,0-9.197-0.764-12.794-2.283
					c-3.6-1.521-6.528-3.61-8.787-6.263c-2.261-2.651-3.931-5.842-5.009-9.576C787.435,575.838,786.895,571.762,786.895,567.342
					 M804.623,563.511c0,1.967,0.437,3.831,1.311,5.599c0.872,1.769,2.003,3.315,3.391,4.642s3.006,2.357,4.855,3.094
					c1.851,0.737,3.751,1.105,5.704,1.105c4.008,0,8.119-0.637,12.332-1.916c4.213-1.274,8.067-3.069,11.562-5.377
					c3.494-2.307,6.344-5.106,8.556-8.398c2.209-3.29,3.313-6.999,3.313-11.123c0-4.617-0.539-8.3-1.618-11.051
					c-1.079-2.748-2.544-5.105-4.394-7.072c-1.85-1.964-4.061-3.853-6.629-5.672c-2.568-1.815-5.294-4.099-8.169-6.851
					c-0.822-0.784-1.311-1.548-1.465-2.284s-0.309-1.399-0.463-1.989c-0.154-0.589-0.462-1.054-0.925-1.399
					c-0.463-0.342-1.364-0.515-2.697-0.515c-2.774,0-5.295,0.957-7.553,2.872c-2.262,1.915-4.316,4.397-6.167,7.44
					c-1.85,3.047-3.444,6.434-4.778,10.166c-1.336,3.734-2.467,7.44-3.392,11.124c-0.924,3.683-1.618,7.098-2.081,10.239
					C804.855,559.29,804.623,561.743,804.623,563.511"/>
				<path style="clip-path:url(#SVGID_6_);" d="M879.695,577.066c0-3.34-0.026-6.851-0.077-10.535
					c-0.053-3.683-0.077-7.193-0.077-10.533c0-3.338-0.025-6.385-0.077-9.136c-0.053-2.747-0.076-4.91-0.076-6.481
					c0-6.189,0.076-12.181,0.23-17.976s0.641-12.081,1.465-18.858c0.206-0.884,0.745-1.842,1.618-2.873
					c0.871-1.031,1.797-2.012,2.774-2.946c0.975-0.934,1.927-1.769,2.853-2.505c0.925-0.736,1.591-1.201,2.004-1.399h1.387
					c1.543,0,2.827,0.294,3.854,0.884c1.026,0.589,1.824,1.351,2.39,2.283c0.562,0.936,0.976,1.965,1.233,3.095
					c0.255,1.129,0.385,2.234,0.385,3.314c0,3.734-0.18,7.417-0.539,11.051c-0.362,3.634-0.771,7.292-1.233,10.976
					c-0.463,3.684-0.873,7.392-1.233,11.123c-0.362,3.733-0.539,7.466-0.539,11.198c0,1.179,0.022,2.75,0.077,4.715
					c0.051,1.966,0.077,3.929,0.077,5.894c0,1.966,0.022,3.683,0.077,5.156c0.051,1.474,0.076,2.308,0.076,2.504
					c0,1.083,0.102,2.555,0.309,4.421c0.205,1.866,0.589,3.708,1.156,5.524c0.563,1.817,1.388,3.414,2.467,4.789
					c1.078,1.377,2.595,2.062,4.547,2.062c2.053,0,4.137-0.958,6.243-2.873c2.104-1.916,4.136-4.369,6.089-7.366
					c1.95-2.996,3.801-6.385,5.55-10.166c1.747-3.779,3.261-7.515,4.547-11.198c1.283-3.684,2.312-7.146,3.083-10.387
					c0.771-3.241,1.156-5.894,1.156-7.956c0-4.027-0.284-7.98-0.848-11.859c-0.564-3.881-0.848-7.884-0.848-12.009
					c0-2.848,0.822-5.402,2.467-7.661c1.643-2.259,4.162-3.388,7.553-3.388c2.054,0,3.623,0.441,4.701,1.325
					c1.08,0.884,1.851,2.04,2.313,3.462c0.462,1.424,0.745,2.947,0.848,4.567c0.101,1.62,0.255,3.168,0.462,4.642
					c0.309,3.535,0.563,6.508,0.771,8.914c0.203,2.408,0.359,4.766,0.462,7.071c0.102,2.308,0.179,4.862,0.231,7.661
					c0.049,2.799,0.077,6.36,0.077,10.683v10.976c0,3.29-0.053,6.533-0.154,9.725c-0.103,3.191-0.257,6.481-0.462,9.87
					c-0.208,3.389-0.517,7.195-0.926,11.419c-1.132,1.769-2.568,3.587-4.315,5.451c-1.75,1.866-3.907,2.799-6.476,2.799
					c-0.207,0-0.669-0.171-1.387-0.516c-0.722-0.344-1.49-0.736-2.312-1.178c-0.824-0.442-1.541-0.909-2.158-1.399
					c-0.616-0.492-0.924-0.834-0.924-1.031v-11.198c-1.542,2.062-3.341,4.371-5.396,6.925c-2.058,2.556-4.266,4.987-6.629,7.293
					c-2.366,2.307-4.961,4.246-7.785,5.819c-2.827,1.57-5.78,2.357-8.863,2.357c-3.907,0-7.194-0.811-9.865-2.431
					c-2.674-1.62-4.882-3.734-6.629-6.335c-1.749-2.604-3.06-5.477-3.932-8.619C880.594,583.058,880.003,580.013,879.695,577.066"/>
				<path style="clip-path:url(#SVGID_6_);" d="M1046.658,426.119c-19.764-18.889-51.78,57.157-57.313,64.223
					c-1.423,1.813-7.213,3.381-9.882,3.777c-2.668,0.396-11.799,1.738-14.051,2.871c-2.272,1.134-4.111,2.645-5.554,4.571
					c-1.442,1.907-2.153,4.344-2.153,7.291c0,0.982,0.019,1.982,0.059,3.022c0.059,1.02,0.257,1.964,0.632,2.795
					c0.356,0.831,0.89,1.53,1.621,2.059c0.711,0.548,1.739,0.812,3.083,0.812c1.225,0,2.332-0.34,3.301-1.039
					c0.988-0.68,1.937-1.417,2.865-2.19c0.908-0.793,1.857-1.53,2.846-2.229c0.969-0.68,2.075-1.02,3.32-1.02h0.612
					c1.226,4.022,1.977,8.122,2.233,12.297c0.257,4.174,0.375,8.387,0.375,12.599c0,3.929-0.039,8.084-0.138,12.447
					c-0.118,4.383-0.217,8.746-0.316,13.109c-0.099,4.383-0.236,8.708-0.395,12.977c-0.139,4.27-0.277,8.217-0.376,11.862h-1.996
					c-1.146,0-2.293-0.227-3.478-0.661c-1.187-0.453-2.392-0.906-3.617-1.416c-1.245-0.473-2.411-0.944-3.558-1.398
					c-1.127-0.435-2.193-0.661-3.222-0.661c-1.857,0-3.201,0.944-4.011,2.796c0,3.343,0.454,6.044,1.383,8.122
					c0.929,2.059,2.213,3.645,3.854,4.778s3.617,1.889,5.929,2.286c2.312,0.396,4.862,0.585,7.629,0.585
					c5.355,0,11.187-0.339,17.51-1.038c6.306-0.68,12.708-1.813,19.19-3.382c6.462-1.567,12.707-3.664,18.716-6.252
					c6.027-2.606,11.344-5.855,15.969-9.728c4.624-3.892,8.339-8.425,11.165-13.639c2.827-5.194,4.249-11.2,4.249-17.963
					c0-5.987-1.363-11.521-4.09-16.584c-2.728-5.062-6.345-9.614-10.87-13.695c-4.525-4.079-9.684-7.63-15.494-10.69
					c-5.811-3.042-20.799-5.676-21.602-11.806C1009.108,480.897,1033.713,434.883,1046.658,426.119 M1015.57,517.391
					c4.17,1.681,8.262,3.721,12.273,6.12c3.992,2.398,7.569,5.043,10.711,7.876c3.123,2.853,5.672,5.95,7.629,9.294
					c1.938,3.343,2.926,6.818,2.926,10.464c0,3.533-0.95,6.819-2.847,9.859c-1.917,3.042-4.407,5.78-7.491,8.18
					c-3.082,2.398-6.561,4.515-10.474,6.328c-3.913,1.832-7.807,3.343-11.72,4.57s-7.707,2.172-11.403,2.796
					c-3.695,0.643-6.838,0.964-9.407,0.964c-0.513,0-1.106-0.076-1.778-0.228c-0.652-0.132-0.988-0.548-0.988-1.246v-70.286
					c3.083,0,6.562,0.473,10.475,1.417C1007.388,514.425,1011.419,515.729,1015.57,517.391"/>
				<path style="clip-path:url(#SVGID_6_);" d="M1194.425,561.232c-2.369-2.909-5.454-5.309-9.249-7.216
					c-3.814-1.927-8.121-3.419-12.962-4.496c-4.824-1.076-9.706-1.889-14.647-2.437c-4.92-0.548-9.704-0.925-14.328-1.171
					c-4.622-0.246-8.637-0.529-12.016-0.812c3.794-1.567,7.589-3.475,11.403-5.685c3.796-2.211,7.233-4.704,10.318-7.5
					c3.081-2.813,5.571-5.874,7.49-9.217c1.897-3.344,2.844-7.027,2.844-11.051c0-4.515-1.384-8.085-4.168-10.672
					c-2.77-2.607-6.207-4.553-10.318-5.837c-4.111-1.266-12.588-1.529-17.154-2.909c-1.836-0.566,0,0,0,0
					c-1.977,0,1.072,2.915-1.977,0c-3.953-3.778-3.953-7.556-11.858-24.556c-4.881-10.498-17.786-34-29.645-45.333
					c-6.985-6.679-31.621-18.889-53.36,1.889c0.909,1.738,7.553,2.116,8.063,4.949c0,0,15.652-14.394,29.486-4.949
					c3.598,2.456,13.835,7.556,23.716,32.111c6.064,15.062,9.882,28.333,9.882,37.777l-6.72,43.199
					c-0.276,4.873-1.126,6.385-2.628,7.404c-1.482,1.039-3.083,1.984-4.763,2.871c-1.7,0.889-3.239,1.889-4.625,3.022
					c-1.403,1.134-2.095,2.72-2.095,4.798c0,3.136,0.672,5.327,2.016,6.555c1.325,1.228,3.952,1.945,7.865,2.135v17.831
					l-6.798-5.894h-0.137c-0.12,0-0.219-0.038-0.318-0.076c-0.096-0.056-0.217-0.075-0.315-0.075c-0.1,0-0.139,0.02-0.139,0.075
					c0,0.038-0.059,0.076-0.158,0.076h-0.612c-0.83,0-1.818,0.358-2.944,1.096c-1.127,0.736-1.681,1.511-1.681,2.285l0.139,0.303
					c0,0.396-0.02,0.925-0.079,1.605c-0.039,0.698-0.06,1.246-0.06,1.624c0,4.628,1.542,8.255,4.625,10.899
					c3.083,2.663,6.897,4.627,11.481,5.894c4.565,1.283,9.507,2.077,14.783,2.36c5.297,0.302,10.1,0.453,14.428,0.453
					c3.379,0,7.49-0.075,12.332-0.227c4.823-0.15,9.863-0.51,15.099-1.095c5.237-0.605,10.455-1.53,15.652-2.815
					c5.178-1.265,9.803-3.04,13.874-5.288c4.052-2.267,7.371-5.101,9.943-8.481c2.566-3.381,3.851-7.594,3.851-12.599
					C1197.962,567.729,1196.777,564.122,1194.425,561.232 M1117.191,521.659c1.127-4.514,2.571-9.066,4.309-13.694
					c0.1-0.68,0.573-1.096,1.384-1.246c0.832-0.151,1.758-0.227,2.788-0.227c0.809,0,2.429,0.019,4.84,0.075
					c2.432,0.057,4.922,0.265,7.49,0.661c2.569,0.397,4.843,1.039,6.859,1.928c1.997,0.868,3.002,2.189,3.002,3.966
					c0,1.19-0.609,2.55-1.857,4.118c-1.223,1.586-2.846,3.211-4.839,4.873c-2.019,1.662-4.231,3.306-6.644,4.93
					c-2.408,1.624-4.822,3.079-7.232,4.345c-2.429,1.284-4.685,2.323-6.799,3.098c-2.095,0.793-3.772,1.171-5,1.171
					C1115.492,530.858,1116.045,526.193,1117.191,521.659 M1178.931,579.063c-2.527,1.908-5.533,3.513-9.029,4.778
					c-3.48,1.284-7.038,2.286-10.634,3.022c-3.598,0.736-6.464,1.152-8.636,1.247h-2.312c-1.326,0-2.865,0.037-4.626,0.075
					c-1.739,0.057-3.538,0.075-5.396,0.075h-7.787c-1.58,0-3.259-0.019-4.997-0.075c-1.762-0.038-3.421-0.075-5.022-0.075h-3.301
					c-1.146,0-2.352-0.265-3.637-0.812c-1.282-0.529-1.916-1.493-1.916-2.871v-21.515l-0.158-0.736
					c0.099-0.095,0.691-0.208,1.78-0.359c1.067-0.151,2.311-0.32,3.694-0.51c1.383-0.207,2.769-0.378,4.17-0.529
					c1.384-0.132,2.489-0.208,3.3-0.208h1.621c0.988,0,2.134-0.037,3.478-0.075c1.324-0.057,2.648-0.075,3.934-0.075h6.62
					c1.384,0,2.729,0.019,4.013,0.075c1.286,0.038,2.433,0.075,3.458,0.075h1.699c0.83,0,2.233,0.114,4.249,0.359
					c1.999,0.245,4.231,0.623,6.702,1.115c2.471,0.49,5.037,1.076,7.705,1.756c2.671,0.699,5.121,1.474,7.313,2.361
					c2.213,0.888,4.011,1.851,5.414,2.871c1.386,1.039,2.076,2.134,2.076,3.324C1182.707,574.908,1181.443,577.137,1178.931,579.063
					"/>
				<path style="clip-path:url(#SVGID_6_);" d="M1201.41,540.232c-0.824,0-1.518-0.419-2.081-1.262
					c-0.564-0.842-1.028-1.808-1.387-2.896c-0.36-1.089-0.615-2.152-0.771-3.194c-0.154-1.038-0.231-1.808-0.231-2.304
					c0-2.97,0.849-5.147,2.544-6.531c1.695-1.387,4.031-2.082,7.015-2.082c1.333,0,2.389,0.073,3.159,0.221s1.514,0.295,2.237,0.442
					c0.716,0.146,1.54,0.272,2.466,0.368c0.926,0.098,2.257,0.147,4.007,0.147c0-0.295,0.025-0.516,0.077-0.663
					c0.051-0.147,0.077-0.271,0.077-0.368c-0.105-0.98-0.359-2.211-0.769-3.684c-0.413-1.474-0.67-2.21-0.773-2.21h-11.251
					c-0.311,0-0.67-0.271-1.079-0.811c-0.413-0.538-0.85-1.154-1.311-1.842c-0.464-0.686-0.875-1.374-1.232-2.062
					c-0.364-0.687-0.594-1.13-0.696-1.326v-0.736c0-2.26,0.438-3.684,1.311-4.272c0.871-0.59,2.338-1.13,4.396-1.621
					c6.678-1.569,13.435-3.189,20.271-4.862c6.832-1.669,13.666-3.144,20.503-4.42c6.832-1.274,13.717-2.332,20.655-3.168
					c6.935-0.834,13.896-1.251,20.887-1.251c0.718,0,1.823,0.024,3.313,0.074c1.49,0.051,2.287,0.125,2.39,0.221l2.775,2.651
					c0,0.099,0.05,0.642,0.154,1.621c0.1,0.982,0.154,1.719,0.154,2.21c0,0.982-0.077,2.161-0.231,3.536
					c-0.154,1.377-0.464,2.701-0.925,3.979c-0.463,1.276-1.183,2.357-2.158,3.241c-0.977,0.884-2.236,1.326-3.778,1.326h-1.54
					c-0.411,0-1.156-0.049-2.235-0.147c-1.079-0.097-2.236-0.221-3.47-0.368c-1.231-0.147-2.39-0.271-3.467-0.369
					c-1.078-0.096-1.825-0.196-2.234-0.294c-0.927,0.098-2.314,0.245-4.163,0.441s-3.932,0.42-6.243,0.663
					c-2.312,0.245-4.779,0.516-7.4,0.811c-2.62,0.295-5.084,0.566-7.399,0.81c-2.312,0.246-4.421,0.494-6.317,0.737
					c-1.903,0.245-3.265,0.42-4.087,0.516c-0.309,0-0.797,0.049-1.465,0.147c-0.67,0.098-1.388,0.221-2.158,0.368
					c-0.769,0.147-1.465,0.295-2.081,0.441c-0.617,0.147-1.027,0.271-1.233,0.369v4.567c0,1.377,0.206,2.504,0.616,3.389
					c0.41,0.884,1.594,1.326,3.546,1.326c6.783,0,13.538-0.197,20.273-0.589c6.728-0.392,13.486-0.59,20.27-0.59h7.861
					c2.056,0.294,3.288,1.206,3.699,2.74c0.409,1.534,0.618,3.041,0.618,4.525c0,4.16-0.85,7.325-2.544,9.504
					c-1.696,2.178-4.701,3.268-9.019,3.268c-1.749,0-3.392-0.155-4.934-0.463c-1.54-0.31-3.082-0.671-4.624-1.084
					c-1.542-0.412-3.109-0.774-4.701-1.083c-1.594-0.31-3.264-0.465-5.011-0.465c-2.364,0-4.446,0.025-6.243,0.074
					c-1.798,0.049-3.57,0.123-5.318,0.222c-1.746,0.098-3.545,0.245-5.396,0.441c-1.85,0.198-3.956,0.491-6.317,0.884v33.298
					c0,1.967,0.869,3.561,2.618,4.788c1.747,1.228,3.826,2.21,6.243,2.946c2.415,0.737,4.828,1.228,7.245,1.475
					c2.415,0.245,4.291,0.367,5.626,0.367c8.941,0,16.728-1.816,23.355-5.451c6.629-3.632,12.923-8.546,18.883-14.733h2.775
					c0.204,0,0.386,0.493,0.54,1.473c0.154,0.982,0.332,2.014,0.538,3.095c0.205,1.276,0.359,2.75,0.464,4.42
					c0,3.536-0.875,6.681-2.621,9.43c-1.749,2.75-4.086,5.182-7.014,7.293c-2.93,2.113-6.219,3.903-9.866,5.378
					c-3.649,1.473-7.399,2.675-11.254,3.609c-3.852,0.931-7.579,1.621-11.174,2.062c-3.601,0.441-6.784,0.663-9.557,0.663
					c-7.399,0-13.362-0.833-17.885-2.499c-4.521-1.666-7.964-3.993-10.327-6.981c-2.366-2.988-3.932-6.515-4.702-10.581
					c-0.769-4.065-1.156-8.499-1.156-13.302c0-4.112,0.128-8.326,0.388-12.637c0.255-4.311,0.383-8.771,0.383-13.376H1201.41z"/>
				<path style="clip-path:url(#SVGID_6_);" d="M1369.127,545.095c-0.206,0-0.669,0.026-1.388,0.073
					c-0.72,0.051-1.131,0.074-1.232,0.074c-0.822,0-2.158,0.124-4.007,0.368c-1.851,0.246-3.804,0.493-5.857,0.736
					c-2.058,0.245-3.985,0.494-5.782,0.737c-1.799,0.245-3.06,0.419-3.777,0.516c-1.75,0.098-3.264,1.35-4.549,3.757
					c-1.283,2.408-2.49,5.402-3.623,8.987c-1.129,3.587-2.208,7.465-3.234,11.639c-1.028,4.178-2.158,8.055-3.391,11.64
					c-1.233,3.588-2.621,6.557-4.165,8.914c-1.538,2.357-3.339,3.536-5.393,3.536c-1.646,0-2.93-0.198-3.854-0.589
					c-0.924-0.392-1.621-0.959-2.08-1.694c-0.463-0.737-0.747-1.644-0.85-2.727c-0.102-1.078-0.154-2.306-0.154-3.683
					c0-3.142,0.463-6.211,1.388-9.209c0.927-2.995,1.951-5.967,3.084-8.914c1.129-2.946,2.158-5.868,3.082-8.767
					c0.925-2.895,1.388-5.915,1.388-9.061h-1.078l-33.605,7.367c-0.204,0-0.745,0.024-1.619,0.073
					c-0.872,0.052-1.565,0.073-2.08,0.073c-2.467,0-4.418-0.344-5.858-1.03c-1.438-0.686-2.157-2.454-2.157-5.305
					c0-1.768,0.67-3.314,2.003-4.641c1.338-1.325,2.826-2.232,4.47-2.726c7.504-2.062,14.8-3.904,21.891-5.524
					c7.091-1.622,14.49-3.118,22.198-4.495c1.233-0.883,2.104-2.111,2.619-3.683c0.718-1.963,1.438-4.295,2.16-6.998
					c0.718-2.702,1.564-5.524,2.543-8.472c0.975-2.947,2.081-5.869,3.314-8.767c1.233-2.896,2.748-5.474,4.547-7.735
					c1.797-2.257,3.877-4.101,6.243-5.524c2.362-1.423,5.138-2.136,8.324-2.136c2.775,0,5.165,0.663,7.168,1.989
					c2.002,1.326,3.7,3.045,5.088,5.156c1.388,2.114,2.592,4.472,3.622,7.072c1.025,2.603,1.927,5.207,2.696,7.809
					c0.772,2.604,1.542,5.033,2.314,7.293c0.77,2.261,1.617,4.076,2.541,5.451c1.233-0.096,2.492-0.196,3.777-0.294
					c1.283-0.097,2.646-0.147,4.086-0.147c1.542,0,3.082,0.098,4.624,0.295s2.979,0.64,4.315,1.325l1.233,1.179
					c0,0.393,0.025,1.155,0.077,2.283c0.053,1.132,0.077,1.842,0.077,2.138c0,3.733-0.899,6.386-2.696,7.956
					c-1.801,1.571-4.601,2.357-8.401,2.357c0,4.322,0.771,8.471,2.312,12.449c1.54,3.978,3.258,7.934,5.163,11.859
					c1.9,3.93,3.622,7.883,5.164,11.861c1.542,3.978,2.312,8.08,2.312,12.302c0,2.652-0.539,4.788-1.619,6.409
					c-1.079,1.62-3.159,2.431-6.242,2.431c-1.133,0-2.159-0.124-3.084-0.368c-0.924-0.248-1.646-1.009-2.157-2.283l-18.036-52.009
					c-0.206-0.59-0.516-0.958-0.924-1.105c-0.413-0.147-0.875-0.221-1.389-0.221H1369.127z M1361.267,512.976
					c-0.104,0.099-0.386,0.198-0.85,0.295c-0.461,0.099-0.924,0.199-1.386,0.295c-0.463,0.098-0.901,0.222-1.311,0.368
					c-0.413,0.147-0.669,0.271-0.771,0.369c-0.72,0.787-1.362,1.893-1.926,3.314c-0.565,1.424-1.056,2.873-1.465,4.347
					c-0.411,1.473-0.747,2.799-1.002,3.977c-0.259,1.179-0.388,1.82-0.388,1.916l-0.614,4.273c0.925,0,2.208-0.097,3.854-0.296
					c1.643-0.196,3.313-0.49,5.008-0.883c1.697-0.392,3.162-0.858,4.395-1.4c1.233-0.538,1.848-1.105,1.848-1.694
					c0-1.08-0.205-2.283-0.614-3.609c-0.413-1.326-0.874-2.652-1.388-3.979c-0.515-1.325-1.105-2.601-1.773-3.83
					C1362.212,515.211,1361.676,514.059,1361.267,512.976"/>
				<path style="clip-path:url(#SVGID_6_);" d="M1429.092,591.357c0-12.177,0.155-24.285,0.464-36.317
					c0.309-12.031,0.463-24.286,0.463-36.76c-4.626,0-9.25,0.222-13.875,0.663c-4.624,0.441-9.225,0.908-13.795,1.399
					c-4.574,0.493-9.174,0.958-13.798,1.399c-4.624,0.442-9.248,0.663-13.875,0.663h-1.386c-0.617,0-1.258-0.022-1.928-0.073
					c-0.666-0.049-1.311-0.074-1.926-0.074h-1.233c-1.027-0.785-1.747-1.768-2.158-2.946s-0.617-2.357-0.617-3.536
					c0-1.768,0.336-3.78,1.002-6.04c0.669-2.259,1.671-3.93,3.007-5.01c7.5,0,15.004-0.317,22.505-0.958
					c7.5-0.639,14.978-1.399,22.431-2.283c7.45-0.884,14.899-1.842,22.352-2.873c7.449-1.031,14.876-1.938,22.273-2.726
					c0.207,0,0.618-0.074,1.233-0.222c0.618-0.146,1.285-0.294,2.007-0.441c0.717-0.147,1.387-0.295,2.002-0.442
					c0.617-0.147,1.026-0.221,1.233-0.221c0.103,0,0.847-0.074,2.234-0.221c1.388-0.147,2.98-0.295,4.779-0.442
					c1.797-0.146,3.622-0.317,5.474-0.516c1.849-0.197,3.337-0.344,4.47-0.442h0.77c0.618,0,1.208,0.272,1.774,0.812
					c0.562,0.539,1.102,1.202,1.619,1.988c0.511,0.785,0.975,1.598,1.385,2.431c0.412,0.835,0.719,1.547,0.927,2.137v0.736
					c0,0.884-0.152,1.939-0.463,3.167c-0.309,1.23-0.693,2.457-1.156,3.684c-0.463,1.23-1.002,2.357-1.619,3.389
					c-0.616,1.031-1.285,1.745-2.003,2.137c-0.824,0-2.263-0.022-4.316-0.073c-2.057-0.05-4.267-0.073-6.629-0.073
					c-2.364,0-4.602,0.023-6.705,0.073c-2.107,0.051-3.572,0.073-4.395,0.073c-1.026,0.099-2.339,0.221-3.93,0.369
					c-1.596,0.147-3.136,0.294-4.626,0.441s-2.8,0.295-3.93,0.441c-1.133,0.147-1.748,0.271-1.851,0.369l-1.233,1.325
					c-0.103,8.546-0.257,16.848-0.461,24.899c-0.104,3.44-0.209,6.976-0.309,10.608c-0.104,3.635-0.182,7.171-0.231,10.608
					c-0.053,3.439-0.13,6.728-0.232,9.871c-0.102,3.145-0.154,5.894-0.154,8.251c0,1.669-0.077,3.587-0.229,5.746
					c-0.154,2.161-0.54,4.223-1.156,6.188c-0.617,1.967-1.519,3.632-2.696,5.009c-1.185,1.374-2.854,2.063-5.012,2.063
					c-2.262,0-3.906-0.788-4.934-2.357C1429.606,595.682,1429.092,593.715,1429.092,591.357"/>
				<path style="clip-path:url(#SVGID_6_);" d="M1473.488,576.034c0.719-2.847,2.182-5.427,4.393-7.735
					c2.21-2.306,4.906-3.462,8.095-3.462c1.949,0,3.364,0.521,4.238,1.561c0.872,1.041,1.593,2.279,2.158,3.718
					c0.563,1.435,1.079,2.896,1.542,4.384c0.463,1.488,1.311,2.676,2.543,3.566c2.98,1.685,6.167,2.675,9.558,2.971
					c3.392,0.299,6.782,0.446,10.171,0.446c2.366,0,4.756,0.074,7.172,0.223c2.413,0.148,4.802,0.223,7.168,0.223
					c1.85,0,3.698-0.13,5.549-0.395c1.85-0.265,3.646-0.82,5.393-1.669c-0.923-0.783-1.77-1.667-2.54-2.651
					c-0.771-0.98-1.619-1.916-2.544-2.799c-8.017-5.599-16.109-10.95-24.279-16.06c-8.169-5.105-16.418-10.166-24.742-15.176
					c-2.057-1.078-4.061-2.357-6.012-3.83c-1.953-1.474-3.675-3.116-5.163-4.937c-1.491-1.816-2.698-3.804-3.622-5.967
					c-0.929-2.158-1.388-4.42-1.388-6.776c0-5.011,1.36-9.332,4.082-12.966c2.725-3.633,6.271-6.605,10.64-8.913
					c4.365-2.307,9.326-4.001,14.875-5.084c5.55-1.078,11.099-1.62,16.646-1.62c2.469,0,4.883,0.174,7.247,0.515
					c2.364,0.347,4.727,1.01,7.093,1.99c2.465,0.687,4.854,1.646,7.168,2.872c2.312,1.23,4.647,2.284,7.014,3.168
					c1.233,1.179,2.567,2.409,4.007,3.684c1.438,1.276,2.748,2.629,3.932,4.052c1.181,1.424,2.157,2.971,2.93,4.641
					c0.77,1.672,1.156,3.439,1.156,5.305c0,2.357-0.593,3.954-1.774,4.787c-1.183,0.838-2.596,1.253-4.238,1.253
					c-2.366,0-4.601-0.441-6.706-1.326c-2.107-0.884-4.161-1.938-6.169-3.167c-2.001-1.227-4.005-2.505-6.012-3.831
					c-2.001-1.326-4.082-2.38-6.239-3.168c-3.291-1.179-6.682-1.864-10.175-2.062c-3.495-0.194-7.399-0.295-11.716-0.295
					c-1.542,0.198-3.161,0.319-4.855,0.368c-1.696,0.052-3.368,0.199-5.01,0.442c-1.645,0.247-3.16,0.688-4.548,1.326
					c-1.388,0.641-2.544,1.693-3.468,3.168l0.154,0.589c1.438,2.556,3.183,4.913,5.24,7.072c2.055,2.163,4.317,4.076,6.783,5.746
					c9.453,4.42,18.396,9.456,26.821,15.101c8.427,5.65,16.7,11.667,24.82,18.049c1.333,0.885,2.748,1.842,4.237,2.873
					c1.488,1.031,2.854,2.188,4.086,3.463c1.233,1.279,2.259,2.652,3.082,4.125c0.822,1.473,1.233,3.095,1.233,4.861
					c0,4.227-1.335,7.588-4.006,10.093c-2.676,2.505-6.015,4.447-10.021,5.82c-4.009,1.375-8.301,2.283-12.873,2.726
					c-4.572,0.441-8.763,0.663-12.562,0.663h-7.865c-2.566,0-5.137-0.099-7.704-0.296c-2.571-0.098-5.885-0.392-9.943-0.883
					c-4.061-0.494-8.044-1.326-11.946-2.505c-3.906-1.179-7.272-2.847-10.098-5.01c-2.828-2.159-4.238-4.958-4.238-8.397
					C1472.255,579.129,1472.664,577.507,1473.488,576.034"/>
			</g>
		</g>
	</g>
</g>
<g id="Layer_2" style="opacity:0.5;">
	<g>
		<g>
			<g>
				<path style="fill:#848484;stroke:#888888;stroke-width:4;stroke-miterlimit:10;" d="M657.177,601.433
					c-1.632,0-3.51,0.555-5.627,1.66c-2.123,1.113-4.081,2.434-5.874,3.967c-6.526,4.438-12.886,9-19.085,13.688
					c-6.2,4.693-12.52,8.916-18.961,12.666c-6.447,3.754-13.214,6.822-20.309,9.209c-7.097,2.391-14.803,3.582-23.123,3.582
					c-6.85,0-13.132-1.15-18.839-3.453c-5.712-2.305-10.644-5.502-14.804-9.596c-4.159-4.092-7.425-9.082-9.787-14.967
					c-2.367-5.883-3.547-12.406-3.547-19.57c0-9.551,1.589-18.846,4.771-27.887c3.181-9.039,7.666-17.014,13.457-23.922
					c5.789-6.908,12.64-12.447,20.554-16.629c7.909-4.178,16.596-6.27,26.057-6.27c4.729,0,9.176,0.514,13.334,1.535
					c4.161,1.023,8.603,1.535,13.335,1.535c5.384,0,9.054-1.705,11.012-5.115c1.957-3.412,2.936-7.76,2.936-13.049
					c0-3.75-0.777-6.736-2.325-8.955c-1.552-2.214-3.59-3.921-6.116-5.116c-2.532-1.191-5.346-1.918-8.442-2.174
					c-3.102-0.256-6.117-0.385-9.053-0.385h-6.605c-14.357,0-27.569,2.812-39.638,8.442c-12.074,5.629-22.43,13.305-31.074,23.025
					c-8.647,9.723-15.414,21.107-20.309,34.156c-4.894,13.047-7.339,26.992-7.339,41.83c0,11.088,1.467,21.361,4.403,30.828
					c2.936,9.465,7.257,17.697,12.97,24.689c5.707,6.996,12.76,12.496,21.162,16.502c8.4,4.004,18.145,6.012,29.241,6.012
					c5.382,0,11.66-0.77,18.839-2.303c7.175-1.537,14.559-3.709,22.143-6.525c7.585-2.814,15.048-6.268,22.39-10.361
					c7.34-4.092,13.902-8.695,19.696-13.814c5.789-5.117,10.477-10.746,14.068-16.885c3.585-6.141,5.384-12.621,5.384-19.445v-1.279
					C661.905,603.31,660.272,601.433,657.177,601.433z"/>
				<path style="fill:#848484;stroke:#888888;stroke-width:4;stroke-miterlimit:10;" d="M915.672,556.659
					c-1.876-4.434-4.079-8.826-6.605-13.176c-2.53-4.35-5.101-8.826-7.708-13.432c-2.774-4.943-5.382-9.633-7.829-14.072
					c-2.447-4.434-5.223-8.354-8.32-11.768c-3.099-3.41-6.728-6.095-10.888-8.06c-4.158-1.959-9.42-2.941-15.781-2.941
					c-8.972,0-17.004,2.174-24.102,6.522c-7.096,4.35-13.375,10.15-18.839,17.398c-5.468,7.252-10.154,15.439-14.069,24.561
					c-3.915,9.127-7.095,18.467-9.543,28.016c-2.445,9.553-4.242,18.891-5.382,28.014c-1.143,9.127-1.713,17.186-1.713,24.176
					c0,1.34,0.036,2.654,0.088,3.957c-4.493,2.264-9.087,4.277-13.789,6.021c-8.972,3.414-18.148,5.93-27.526,7.549
					c-9.381,1.621-18.802,2.43-28.261,2.43c-1.467,0-2.978-0.041-4.526-0.127c-1.552-0.086-3.06-0.129-4.527-0.129l-3.182-2.559
					l-0.488-1.023v-1.279c-0.82-2.898-1.431-6.053-1.836-9.467c-0.409-3.408-0.611-7.074-0.611-11
					c0-8.355,0.648-17.398,1.957-27.119c1.304-9.723,2.773-19.4,4.405-29.039c1.629-9.633,3.096-18.887,4.404-27.758
					c1.304-8.867,1.958-16.629,1.958-23.283c0-6.141-0.778-10.999-2.325-14.581c-1.552-3.584-4.202-5.373-7.952-5.373
					c-3.754,0-6.935,0.855-9.542,2.561c-2.612,1.705-4.856,3.924-6.728,6.648c-1.878,2.731-3.389,5.718-4.529,8.954
					c-1.143,3.242-2.041,6.486-2.691,9.725c-2.936,23.537-4.404,47.072-4.404,70.613c0,12.111,0.366,24.049,1.102,35.816
					c0.732,11.768,1.995,23.537,3.792,35.307c1.138,3.752,2.894,6.65,5.261,8.697c2.363,2.047,5.095,3.58,8.197,4.605
					c3.096,1.023,6.361,1.619,9.786,1.789c3.426,0.17,6.767,0.256,10.033,0.256c17.775,0,34.903-2.174,51.381-6.521
					c9.951-2.629,19.781-5.969,29.495-9.996c0.507,0.75,1.027,1.486,1.578,2.191c3.587,4.605,8.234,8.232,13.947,10.875
					c5.707,2.641,12.479,3.965,20.308,3.965c11.905,0,23.446-2.174,34.623-6.525c11.169-4.348,20.999-10.443,29.482-18.289
					c8.479-7.848,15.293-17.184,20.431-28.016c5.138-10.83,7.708-22.727,7.708-35.693c0-5.627-0.575-10.826-1.714-15.604
					C919.056,565.702,917.545,561.095,915.672,556.659z M888.757,613.071c-3.508,5.719-8.035,10.58-13.579,14.584
					c-5.547,4.01-11.664,7.125-18.351,9.338c-6.689,2.219-13.213,3.326-19.574,3.326c-3.1,0-6.117-0.639-9.053-1.918
					s-5.506-3.07-7.707-5.375c-2.203-2.301-3.999-4.986-5.383-8.057c-1.389-3.072-2.082-6.307-2.082-9.723
					c0-3.07,0.369-7.332,1.103-12.793c0.735-5.455,1.835-11.385,3.304-17.779c1.467-6.398,3.262-12.834,5.383-19.316
					c2.119-6.48,4.648-12.365,7.584-17.652c2.937-5.285,6.198-9.596,9.787-12.92c3.586-3.328,7.586-4.99,11.989-4.99
					c2.118,0,3.549,0.301,4.282,0.896c0.734,0.598,1.225,1.404,1.468,2.43c0.245,1.023,0.489,2.174,0.734,3.453
					c0.243,1.281,1.017,2.604,2.325,3.967c4.563,4.777,8.887,8.742,12.967,11.896c4.075,3.158,7.586,6.439,10.521,9.85
					c2.938,3.414,5.261,7.508,6.974,12.279c1.713,4.777,2.569,11.174,2.569,19.189C894.019,600.919,892.264,607.358,888.757,613.071
					z"/>
				<path style="fill:#848484;stroke:#888888;stroke-width:4;stroke-miterlimit:10;" d="M1042.78,553.46
					c-0.163-4.004-0.408-8.098-0.732-12.279c-0.33-4.178-0.734-9.338-1.224-15.479c-0.328-2.559-0.573-5.244-0.734-8.059
					c-0.164-2.814-0.611-5.455-1.347-7.932c-0.733-2.471-1.956-4.477-3.669-6.012s-4.201-2.303-7.464-2.303
					c-5.382,0-9.381,1.965-11.987,5.883c-2.612,3.928-3.915,8.361-3.915,13.305c0,7.164,0.447,14.115,1.345,20.852
					c0.895,6.74,1.347,13.604,1.347,20.596c0,3.582-0.611,8.188-1.836,13.814c-1.224,5.629-2.856,11.643-4.894,18.037
					c-2.041,6.396-4.445,12.881-7.217,19.445c-2.777,6.566-5.711,12.451-8.809,17.65c-3.1,5.207-6.324,9.467-9.665,12.795
					c-3.346,3.324-6.649,4.988-9.909,4.988c-3.101,0-5.506-1.191-7.219-3.582c-1.711-2.387-3.02-5.158-3.914-8.316
					c-0.9-3.152-1.512-6.352-1.836-9.594c-0.329-3.238-0.489-5.795-0.489-7.674c0-0.338-0.042-1.791-0.122-4.35
					c-0.084-2.559-0.122-5.539-0.122-8.955c0-3.408-0.042-6.818-0.122-10.232c-0.084-3.412-0.123-6.143-0.123-8.188
					c0-6.48,0.283-12.961,0.857-19.443c0.569-6.48,1.223-12.92,1.957-19.316s1.383-12.75,1.957-19.061
					c0.569-6.309,0.856-12.703,0.856-19.188c0-1.875-0.207-3.793-0.61-5.758c-0.41-1.959-1.062-3.748-1.959-5.373
					c-0.898-1.616-2.164-2.94-3.792-3.964c-1.633-1.023-3.671-1.535-6.118-1.535h-2.202c-0.653,0.344-1.712,1.15-3.18,2.43
					s-2.979,2.729-4.526,4.349c-1.553,1.625-3.02,3.326-4.405,5.117c-1.387,1.791-2.243,3.455-2.567,4.99
					c-1.309,11.768-2.081,22.686-2.327,32.748c-0.242,10.064-0.366,20.467-0.366,31.211c0,2.73,0.038,6.486,0.124,11.258
					c0.08,4.777,0.121,10.064,0.121,15.861c0,5.801,0.038,11.896,0.121,18.295c0.083,6.395,0.124,12.494,0.124,18.291
					c0.489,5.117,1.426,10.406,2.813,15.861c1.385,5.461,3.463,10.449,6.238,14.969c2.772,4.516,6.279,8.186,10.522,11.002
					c4.24,2.814,9.459,4.219,15.658,4.219c4.895,0,9.581-1.367,14.069-4.092c4.484-2.73,8.603-6.102,12.356-10.105
					c3.75-4.006,7.257-8.229,10.521-12.666c3.262-4.434,6.116-8.441,8.563-12.025v19.445c0,0.346,0.489,0.939,1.469,1.791
					c0.979,0.855,2.118,1.662,3.425,2.432c1.305,0.766,2.527,1.449,3.671,2.047c1.138,0.594,1.873,0.895,2.2,0.895
					c4.077,0,7.502-1.619,10.276-4.859c2.772-3.24,5.055-6.398,6.853-9.467c0.65-7.334,1.139-13.945,1.468-19.828
					c0.325-5.885,0.569-11.598,0.733-17.143c0.162-5.539,0.246-11.17,0.246-16.885c0-5.713,0-12.064,0-19.061
					c0-7.504-0.043-13.688-0.123-18.547C1043.064,561.903,1042.941,557.47,1042.78,553.46z"/>
				<path style="fill:#848484;stroke:#888888;stroke-width:4;stroke-miterlimit:10;" d="M1331.75,491.357
					c-0.056-0.02-0.119-0.041-0.169-0.057C1331.641,491.32,1331.697,491.34,1331.75,491.357z"/>
				<path style="fill:#848484;stroke:#888888;stroke-width:4;stroke-miterlimit:10;" d="M1331.9,491.408
					c-0.045-0.016-0.095-0.031-0.149-0.051C1331.797,491.373,1331.848,491.391,1331.9,491.408z"/>
				<path style="fill:#848484;stroke:#888888;stroke-width:4;stroke-miterlimit:10;" d="M1332.083,491.469
					c-0.069-0.023-0.12-0.039-0.183-0.061C1332.007,491.443,1332.083,491.469,1332.083,491.469z"/>
				<path style="fill:#848484;stroke:#888888;stroke-width:4;stroke-miterlimit:10;" d="M1417.06,598.759
					c-6.053-3.346-12.89-5.938-20.576-7.807c-7.655-1.869-15.402-3.279-23.245-4.23c-7.812-0.951-15.402-1.609-22.743-2.033
					c-7.338-0.428-13.708-0.918-19.072-1.412c6.023-2.721,12.046-6.035,18.1-9.873c6.024-3.838,11.481-8.166,16.377-13.021
					c4.892-4.887,8.843-10.201,11.888-16.006c3.011-5.805,4.517-12.201,4.517-19.188c0-7.838-2.197-14.039-6.617-18.533
					c-4.393-4.525-9.853-7.903-16.378-10.134c-6.524-2.197-19.979-2.658-27.227-5.053c-3.138,0,1.704,5.064-3.138,0
					c-6.273-6.56-6.273-13.119-18.819-42.639c-7.749-18.231-28.233-59.04-47.054-78.721c-11.092-11.596-50.191-32.8-84.696,3.281
					c0.013,0.027,0.04,0.051,0.055,0.078c-29.769,14.661-65.025,104.695-72.203,114.722c-2.259,3.149-11.448,5.87-15.685,6.56
					c-4.234,0.689-18.727,3.018-22.303,4.983c-3.607,1.971-6.525,4.594-8.814,7.939c-2.29,3.312-3.418,7.545-3.418,12.66
					c0,1.705,0.029,3.445,0.093,5.248c0.094,1.773,0.407,3.412,1.003,4.854c0.566,1.445,1.412,2.658,2.573,3.578
					c1.129,0.949,2.761,1.408,4.894,1.408c1.945,0,3.701-0.588,5.239-1.803c1.567-1.18,3.073-2.459,4.548-3.805
					c1.442-1.379,2.947-2.658,4.516-3.871c1.539-1.182,3.295-1.77,5.271-1.77h0.972c1.946,6.986,3.138,14.104,3.544,21.352
					c0.409,7.248,0.598,14.562,0.598,21.877c0,6.822-0.064,14.039-0.221,21.617c-0.188,7.607-0.344,15.186-0.501,22.762
					c-0.157,7.609-0.376,15.121-0.628,22.533c-0.221,7.414-0.439,14.27-0.596,20.6h-3.168c-1.819,0-3.64-0.395-5.521-1.148
					c-1.881-0.787-3.794-1.574-5.74-2.459c-1.975-0.822-3.828-1.641-5.647-2.426c-1.787-0.758-3.48-1.15-5.112-1.15
					c-2.949,0-5.082,1.641-6.368,4.855c0,5.805,0.722,10.494,2.196,14.104c1.475,3.574,3.514,6.33,6.117,8.299
					c2.603,1.967,5.741,3.279,9.411,3.969s7.716,1.016,12.107,1.016c8.501,0,17.755-0.59,27.792-1.805
					c10.009-1.18,20.17-3.148,30.46-5.871c10.257-2.723,20.17-6.363,29.706-10.857c9.566-4.525,18.007-10.166,25.347-16.891
					c7.34-6.758,13.237-14.629,17.723-23.68c4.485-9.021,6.745-19.451,6.745-31.195c0-10.398-2.166-20.008-6.494-28.797
					c-4.328-8.793-10.068-16.697-17.253-23.781c-7.183-7.084-15.37-13.252-24.593-18.564c-9.222-5.281-33.014-9.855-34.286-20.501
					c-2.965-24.799,31.753-97.517,52.921-118.277c6.813-5.741,26.516-19.662,44.322-6.362c5.707,4.262,21.959,13.118,37.643,55.758
					c9.623,26.157,15.686,49.201,15.686,65.602l-10.666,75.015c-0.439,8.461-1.789,11.086-4.172,12.857
					c-2.354,1.803-4.895,3.441-7.561,4.984c-2.697,1.541-5.144,3.281-7.34,5.248c-2.228,1.967-3.324,4.723-3.324,8.332
					c0,5.443,1.064,9.248,3.198,11.381c2.103,2.131,6.274,3.379,12.484,3.705v30.965l-10.79-10.232h-0.219
					c-0.189,0-0.347-0.066-0.503-0.133c-0.157-0.098-0.344-0.131-0.503-0.131c-0.156,0-0.219,0.033-0.219,0.131
					c0,0.066-0.095,0.133-0.251,0.133h-0.973c-1.316,0-2.885,0.621-4.673,1.9c-1.79,1.279-2.666,2.625-2.666,3.971l0.218,0.523
					c0,0.689-0.03,1.607-0.125,2.789c-0.063,1.213-0.093,2.166-0.093,2.82c0,8.035,2.445,14.332,7.339,18.926
					c4.895,4.625,10.949,8.035,18.226,10.232c7.247,2.232,15.089,3.609,23.465,4.1c8.405,0.525,16.029,0.789,22.897,0.789
					c5.363,0,11.89-0.131,19.575-0.395c7.654-0.264,15.653-0.885,23.965-1.902c8.313-1.049,16.593-2.656,24.844-4.887
					c8.219-2.199,15.56-5.281,22.022-9.184c6.43-3.936,11.698-8.855,15.78-14.729c4.076-5.871,6.114-13.184,6.114-21.877
					c0-7.51-1.882-13.775-5.616-18.795C1427.978,606.237,1423.083,602.071,1417.06,598.759z M1147.853,535.159
					c6.619,2.92,13.113,6.463,19.48,10.627c6.336,4.166,12.016,8.758,17.002,13.678c4.957,4.953,9.003,10.332,12.107,16.137
					c3.076,5.807,4.645,11.842,4.645,18.172c0,6.135-1.507,11.84-4.518,17.123c-3.043,5.279-6.996,10.035-11.891,14.201
					c-4.891,4.166-10.413,7.84-16.623,10.986c-6.212,3.184-12.393,5.809-18.603,7.939c-6.212,2.133-12.235,3.773-18.101,4.857
					c-5.865,1.113-10.854,1.67-14.932,1.67c-0.814,0-1.756-0.131-2.822-0.395c-1.036-0.229-1.568-0.951-1.568-2.162V525.942
					c4.894,0,10.414,0.82,16.625,2.459C1134.867,530.011,1141.266,532.272,1147.853,535.159z M1309.152,542.573
					c1.787-7.84,4.079-15.746,6.84-23.781c0.154-1.18,0.909-1.902,2.195-2.166c1.317-0.262,2.791-0.393,4.424-0.393
					c1.283,0,3.857,0.033,7.683,0.131c3.86,0.1,7.812,0.459,11.889,1.148s7.687,1.805,10.888,3.346
					c3.168,1.51,4.767,3.805,4.767,6.889c0,2.066-0.972,4.428-2.95,7.15c-1.942,2.754-4.516,5.576-7.683,8.461
					c-3.201,2.887-6.715,5.74-10.54,8.562c-3.826,2.82-7.656,5.346-11.482,7.543c-3.856,2.232-7.434,4.033-10.791,5.381
					c-3.325,1.375-5.99,2.033-7.936,2.033C1306.455,558.546,1307.333,550.444,1309.152,542.573z M1407.147,642.253
					c-4.013,3.311-8.782,6.102-14.333,8.297c-5.523,2.23-11.169,3.969-16.876,5.248c-5.711,1.281-10.26,2.002-13.709,2.164h-3.67
					c-2.104,0-4.55,0.066-7.343,0.131c-2.76,0.1-5.615,0.133-8.562,0.133h-12.361c-2.509,0-5.175-0.033-7.934-0.133
					c-2.794-0.064-5.429-0.131-7.97-0.131h-5.238c-1.818,0-3.732-0.457-5.771-1.408c-2.038-0.92-3.044-2.592-3.044-4.986v-37.359
					l-0.251-1.279c0.157-0.164,1.099-0.361,2.824-0.623c1.695-0.264,3.671-0.559,5.866-0.887c2.195-0.359,4.394-0.654,6.619-0.918
					c2.194-0.229,3.952-0.359,5.237-0.359h2.572c1.568,0,3.388-0.066,5.521-0.133c2.102-0.1,4.204-0.131,6.243-0.131h10.508
					c2.196,0,4.33,0.031,6.369,0.131c2.039,0.066,3.859,0.133,5.488,0.133h2.699c1.317,0,3.545,0.195,6.742,0.623
					c3.17,0.424,6.715,1.082,10.637,1.936c3.921,0.854,7.998,1.867,12.231,3.049c4.237,1.213,8.128,2.561,11.607,4.102
					c3.513,1.539,6.369,3.215,8.596,4.984c2.195,1.803,3.292,3.707,3.292,5.773C1413.138,635.034,1411.132,638.905,1407.147,642.253
					z"/>
				<path style="fill:#848484;stroke:#888888;stroke-width:4;stroke-miterlimit:10;" d="M1331.582,491.301
					c-0.035-0.012-0.07-0.023-0.106-0.035C1331.513,491.277,1331.542,491.287,1331.582,491.301z"/>
				<path style="fill:#848484;stroke:#888888;stroke-width:4;stroke-miterlimit:10;" d="M1330.815,491.041
					C1330.787,491.033,1330.787,491.033,1330.815,491.041L1330.815,491.041z"/>
				<path style="fill:#848484;stroke:#888888;stroke-width:4;stroke-miterlimit:10;" d="M1331.151,491.156
					c-0.158-0.055-0.284-0.098-0.336-0.115C1330.854,491.055,1330.96,491.092,1331.151,491.156z"/>
				<path style="fill:#848484;stroke:#888888;stroke-width:4;stroke-miterlimit:10;" d="M1331.475,491.266
					c-0.128-0.043-0.235-0.08-0.324-0.109C1331.253,491.189,1331.365,491.227,1331.475,491.266z"/>
				<path style="fill:#848484;stroke:#888888;stroke-width:4;stroke-miterlimit:10;" d="M1608.351,615.503
					c-0.244-1.703-0.532-2.559-0.857-2.559h-4.404c-9.46,10.746-19.45,19.275-29.973,25.586c-10.52,6.309-22.877,9.463-37.069,9.463
					c-2.119,0-5.098-0.211-8.929-0.639c-3.836-0.424-7.669-1.279-11.5-2.559c-3.836-1.279-7.14-2.982-9.91-5.115
					c-2.777-2.133-4.158-4.9-4.158-8.316v-57.818c3.75-0.682,7.096-1.191,10.031-1.537c2.938-0.338,5.788-0.596,8.564-0.766
					c2.771-0.168,5.584-0.297,8.439-0.385c2.852-0.084,6.156-0.127,9.91-0.127c2.771,0,5.422,0.27,7.951,0.807
					c2.528,0.535,5.016,1.162,7.464,1.879c2.447,0.719,4.896,1.346,7.34,1.883c2.446,0.535,5.054,0.803,7.828,0.803
					c6.854,0,11.622-1.889,14.316-5.672c2.69-3.781,4.037-9.283,4.037-16.5c0-2.58-0.331-5.199-0.98-7.859
					c-0.652-2.664-2.61-4.25-5.872-4.762h-12.478c-10.767,0-21.495,0.344-32.175,1.023c-10.688,0.684-21.408,1.021-32.177,1.021
					c-3.101,0-4.979-0.766-5.628-2.303c-0.652-1.533-0.977-3.492-0.977-5.885v-7.93c0.324-0.168,0.977-0.383,1.957-0.639
					c0.978-0.256,2.08-0.514,3.303-0.768c1.221-0.256,2.361-0.467,3.426-0.641c1.059-0.168,1.834-0.256,2.324-0.256
					c1.305-0.168,3.464-0.467,6.484-0.896c3.015-0.422,6.36-0.85,10.03-1.275c3.673-0.426,7.584-0.896,11.745-1.41
					c4.16-0.51,8.074-0.98,11.744-1.406c3.67-0.424,6.976-0.809,9.91-1.15s5.138-0.596,6.607-0.77
					c0.649,0.174,1.834,0.346,3.547,0.514c1.713,0.17,3.549,0.381,5.506,0.639c1.957,0.256,3.793,0.473,5.504,0.641
					c1.713,0.17,2.895,0.254,3.548,0.254h2.447c2.445,0,4.442-0.768,5.995-2.303c1.548-1.535,2.689-3.408,3.426-5.629
					c0.731-2.213,1.221-4.516,1.467-6.906c0.245-2.387,0.368-4.434,0.368-6.141c0-0.851-0.086-2.13-0.247-3.839
					c-0.164-1.701-0.244-2.641-0.244-2.812l-4.404-4.604c-0.162-0.168-1.428-0.297-3.792-0.385c-2.364-0.084-4.12-0.127-5.261-0.127
					c-11.096,0-22.141,0.727-33.152,2.175c-11.012,1.449-21.941,3.285-32.786,5.498c-10.851,2.221-21.698,4.778-32.542,7.679
					c-10.85,2.9-21.574,5.715-32.175,8.441c-3.265,0.855-5.59,1.789-6.976,2.814c-1.388,1.023-2.08,3.496-2.08,7.418v1.281
					c0.163,0.342,0.528,1.109,1.104,2.301c0.57,1.197,1.222,2.391,1.957,3.582c0.732,1.195,1.426,2.264,2.08,3.199
					c0.65,0.938,1.222,1.406,1.713,1.406h17.859c0.162,0,0.57,1.279,1.226,3.836c0.649,2.561,1.057,4.695,1.222,6.396
					c0,0.172-0.043,0.385-0.123,0.639c-0.082,0.258-0.122,0.641-0.122,1.152c-2.774,0-4.892-0.082-6.358-0.256
					c-1.471-0.166-2.779-0.383-3.916-0.639c-1.146-0.258-2.324-0.512-3.551-0.768c-1.222-0.256-2.897-0.385-5.014-0.385
					c-4.734,0-8.443,1.209-11.133,3.615c-2.691,2.406-4.038,6.186-4.038,11.344c0,0.863,0.123,2.195,0.368,4.002
					c0.246,1.807,0.65,3.652,1.223,5.545c0.57,1.891,1.304,3.566,2.203,5.029c0.894,1.463,1.993,2.191,3.301,2.191h32.543
					c0,7.998-0.206,15.742-0.609,23.225c-0.411,7.486-0.613,14.803-0.613,21.945c0,8.34,0.613,16.039,1.834,23.098
					c1.224,7.061,3.707,13.184,7.462,18.375c3.751,5.188,9.217,9.229,16.395,12.123c7.177,2.891,16.639,4.338,28.384,4.338
					c4.402,0,9.457-0.383,15.17-1.152c5.707-0.768,11.621-1.963,17.736-3.58c6.117-1.623,12.07-3.711,17.863-6.27
					c5.79-2.559,11.011-5.668,15.66-9.338c4.646-3.666,8.355-7.887,11.132-12.664c2.772-4.773,4.16-10.232,4.16-16.375
					c-0.165-2.898-0.411-5.457-0.734-7.676C1608.878,619.001,1608.597,617.21,1608.351,615.503z"/>
				<path style="fill:#848484;stroke:#888888;stroke-width:4;stroke-miterlimit:10;" d="M2015.613,633.155
					c-1.308-2.557-2.936-4.943-4.892-7.162c-1.958-2.215-4.122-4.221-6.485-6.014c-2.364-1.791-4.61-3.453-6.726-4.988
					c-12.89-11.084-26.021-21.531-39.396-31.34c-13.377-9.807-27.568-18.551-42.571-26.225c-3.915-2.898-7.506-6.223-10.769-9.977
					c-3.265-3.75-6.034-7.844-8.316-12.283l-0.246-1.021c1.468-2.559,3.303-4.389,5.505-5.5c2.202-1.107,4.607-1.875,7.217-2.303
					c2.607-0.426,5.261-0.68,7.954-0.768c2.689-0.086,5.259-0.299,7.707-0.641c6.85,0,13.046,0.174,18.593,0.512
					c5.546,0.346,10.928,1.535,16.15,3.58c3.426,1.369,6.728,3.199,9.909,5.502c3.182,2.305,6.361,4.521,9.541,6.652
					c3.183,2.135,6.442,3.965,9.788,5.502c3.341,1.535,6.89,2.301,10.645,2.301c2.607,0,4.85-0.723,6.728-2.174
					c1.874-1.447,2.814-4.221,2.814-8.314c0-3.238-0.613-6.311-1.834-9.211c-1.226-2.898-2.775-5.584-4.65-8.059
					c-1.878-2.471-3.958-4.818-6.24-7.037c-2.285-2.213-4.402-4.348-6.359-6.395c-3.756-1.535-7.463-3.367-11.132-5.5
					c-3.671-2.131-7.465-3.796-11.378-4.989c-3.755-1.703-7.506-2.854-11.258-3.453c-3.753-0.596-7.586-0.896-11.5-0.896
					c-8.807,0-17.615,0.939-26.424,2.814c-7.292,1.555-13.93,3.851-19.936,6.864c-0.119-0.277-0.24-0.557-0.372-0.852
					c-0.651-1.447-1.389-2.855-2.198-4.222c-0.822-1.363-1.677-2.514-2.571-3.455c-0.897-0.936-1.835-1.406-2.815-1.406h-1.222
					c-1.798,0.172-4.161,0.428-7.096,0.768c-2.938,0.344-5.836,0.639-8.687,0.896c-2.855,0.256-5.383,0.512-7.585,0.766
					c-2.203,0.256-3.386,0.385-3.549,0.385c-0.327,0-0.977,0.129-1.957,0.383c-0.977,0.256-2.04,0.514-3.18,0.768
					c-1.142,0.256-2.202,0.512-3.183,0.77c-0.977,0.254-1.629,0.383-1.957,0.383c-11.741,1.366-23.53,2.942-35.354,4.733
					c-11.827,1.789-23.652,3.453-35.478,4.988c-11.83,1.533-23.697,2.857-35.602,3.965c-9.539,0.893-19.079,1.404-28.617,1.58
					c-1.41-3.529-2.996-6.795-4.78-9.766c-2.202-3.668-4.895-6.653-8.075-8.954c-3.179-2.303-6.971-3.457-11.377-3.457
					c-5.057,0-9.463,1.24-13.212,3.713c-3.755,2.475-7.058,5.671-9.911,9.593c-2.853,3.926-5.26,8.404-7.217,13.432
					c-1.957,5.033-3.713,10.105-5.258,15.223c-1.554,5.117-2.899,10.021-4.039,14.711c-1.146,4.693-2.289,8.744-3.428,12.152
					c-0.818,2.729-2.2,4.861-4.156,6.395c-12.235,2.393-23.98,4.988-35.235,7.805c-11.255,2.814-22.833,6.012-34.745,9.594
					c-2.605,0.855-4.973,2.43-7.095,4.732c-2.116,2.305-3.18,4.99-3.18,8.059c0,4.949,1.143,8.02,3.426,9.213
					c2.285,1.193,5.382,1.789,9.297,1.789c0.817,0,1.917-0.039,3.302-0.127c1.387-0.084,2.246-0.129,2.57-0.129l53.34-12.793h1.712
					c0,5.463-0.735,10.705-2.202,15.734c-1.467,5.033-3.1,10.107-4.893,15.223c-1.797,5.119-3.424,10.277-4.895,15.48
					c-1.468,5.203-2.203,10.533-2.203,15.988c0,2.391,0.083,4.523,0.244,6.396c0.163,1.879,0.614,3.455,1.349,4.732
					c0.731,1.279,1.835,2.264,3.302,2.945c1.469,0.678,3.506,1.021,6.118,1.021c3.261,0,6.118-2.045,8.563-6.141
					c2.446-4.094,4.648-9.25,6.606-15.479c1.958-6.223,3.75-12.961,5.383-20.211c1.628-7.248,3.342-13.984,5.137-20.211
					c1.796-6.225,3.71-11.426,5.75-15.607c2.037-4.178,4.441-6.352,7.216-6.521c1.141-0.17,3.142-0.469,5.996-0.896
					c2.853-0.426,5.912-0.852,9.178-1.279c3.26-0.426,6.359-0.852,9.298-1.281c2.936-0.422,5.054-0.639,6.359-0.639
					c0.162,0,0.815-0.039,1.957-0.127c1.14-0.084,1.876-0.129,2.204-0.129h2.446c0.815,0,1.546,0.129,2.202,0.385
					c0.649,0.254,1.14,0.895,1.467,1.918l28.628,90.311c0.816,2.215,1.958,3.539,3.426,3.967c1.468,0.424,3.097,0.641,4.895,0.641
					c4.892,0,8.195-1.408,9.907-4.223c1.715-2.814,2.57-6.521,2.57-11.129c0-7.332-1.223-14.455-3.671-21.361
					c-2.446-6.91-5.179-13.773-8.196-20.596c-3.021-6.82-5.751-13.688-8.195-20.596c-2.448-6.908-3.67-14.111-3.67-21.619
					c6.032,0,10.477-1.363,13.336-4.094c2.851-2.725,4.279-7.33,4.279-13.814c0-0.512-0.041-1.746-0.124-3.709
					c-0.082-1.961-0.122-3.283-0.122-3.967l-1.957-2.047c-2.121-1.191-4.402-1.957-6.85-2.303c-2.448-0.34-4.893-0.51-7.341-0.51
					c-2.284,0-4.446,0.086-6.484,0.256c-2.041,0.17-4.038,0.342-5.994,0.51c-1.226-1.994-2.367-4.531-3.422-7.602
					c4.567-0.18,9.133-0.492,13.698-0.969c7.341-0.77,14.64-1.576,21.9-2.432c7.254-0.852,14.557-1.66,21.897-2.428
					c7.34-0.77,14.68-1.152,22.021-1.152c0,21.66-0.245,42.941-0.735,63.832c-0.489,20.895-0.735,41.918-0.735,63.064
					c0,4.096,0.815,7.508,2.449,10.232c1.629,2.729,4.238,4.096,7.829,4.096c3.426,0,6.074-1.197,7.953-3.582
					c1.872-2.393,3.302-5.285,4.281-8.699c0.978-3.41,1.591-6.992,1.836-10.746c0.242-3.748,0.365-7.076,0.365-9.977
					c0-4.094,0.082-8.867,0.244-14.326c0.163-5.457,0.285-11.17,0.368-17.143c0.078-5.969,0.201-12.109,0.368-18.42
					c0.158-6.309,0.324-12.447,0.488-18.422c0.324-13.982,0.57-28.396,0.732-43.236l1.957-2.303c0.163-0.168,1.14-0.383,2.939-0.641
					c1.79-0.254,3.872-0.512,6.236-0.766c2.364-0.256,4.809-0.514,7.343-0.77c2.523-0.254,4.604-0.467,6.237-0.639
					c1.305,0,3.629-0.039,6.975-0.127c3.332-0.084,6.875-0.129,10.618-0.129c-1.608,4.418-2.423,9.275-2.423,14.584
					c0,4.094,0.73,8.018,2.201,11.768c1.467,3.754,3.383,7.207,5.75,10.361c2.361,3.158,5.096,6.014,8.195,8.572
					c3.098,2.557,6.28,4.777,9.543,6.65c13.211,8.699,26.305,17.486,39.271,26.352c12.967,8.871,25.812,18.166,38.537,27.887
					c1.468,1.535,2.812,3.158,4.038,4.861c1.222,1.707,2.567,3.242,4.033,4.605c-2.773,1.471-5.627,2.434-8.562,2.895
					c-2.937,0.459-5.873,0.688-8.807,0.688c-3.755,0-7.549-0.129-11.378-0.389c-3.834-0.256-7.627-0.387-11.38-0.387
					c-5.383,0-10.764-0.256-16.147-0.771c-5.382-0.518-10.438-2.234-15.17-5.162c-1.958-1.547-3.301-3.609-4.036-6.193
					c-0.736-2.582-1.555-5.119-2.449-7.613c-0.897-2.494-2.039-4.645-3.424-6.451c-1.389-1.809-3.635-2.711-6.728-2.711
					c-5.062,0-9.341,2.006-12.848,6.012c-3.508,4.01-5.832,8.486-6.974,13.432c-1.307,2.559-1.957,5.373-1.957,8.443
					c0,5.973,2.24,10.834,6.728,14.582c4.485,3.754,9.828,6.652,16.028,8.699c6.197,2.049,12.518,3.492,18.963,4.35
					c6.441,0.85,11.701,1.361,15.78,1.535c4.075,0.34,8.155,0.512,12.233,0.512s8.236,0,12.48,0c6.031,0,12.682-0.385,19.941-1.152
					c7.254-0.766,14.067-2.346,20.43-4.732c6.36-2.387,11.66-5.758,15.906-10.105c4.238-4.35,6.358-10.189,6.358-17.525
					C2017.571,638.53,2016.917,635.714,2015.613,633.155z M1702.186,556.276c-1.958,0.939-4.282,1.75-6.976,2.43
					c-2.689,0.682-5.343,1.195-7.949,1.535c-2.613,0.344-4.65,0.512-6.117,0.512l0.977-7.42c0-0.168,0.202-1.279,0.613-3.326
					c0.403-2.047,0.938-4.35,1.59-6.908c0.648-2.557,1.427-5.072,2.324-7.547c0.896-2.469,1.915-4.389,3.058-5.756
					c0.162-0.168,0.569-0.383,1.226-0.641c0.649-0.256,1.345-0.467,2.08-0.639c0.732-0.168,1.467-0.34,2.199-0.512
					c0.734-0.166,1.183-0.34,1.348-0.51c0.649,1.877,1.504,3.879,2.566,6.01c1.061,2.137,1.999,4.352,2.816,6.652
					c0.814,2.303,1.547,4.605,2.203,6.908c0.648,2.303,0.977,4.393,0.977,6.268C1705.121,554.356,1704.144,555.341,1702.186,556.276
					z"/>
			</g>
		</g>
	</g>
</g>
<g id="Layer_4">
	<g>
		<g>
			<path style="fill:#FFFFFF;stroke:#888888;stroke-width:4;stroke-miterlimit:10;" d="M642.158,596.042
				c-1.632,0-3.51,0.556-5.627,1.661c-2.123,1.112-4.081,2.433-5.874,3.967c-6.526,4.438-12.886,8.999-19.085,13.688
				c-6.2,4.692-12.52,8.915-18.961,12.665c-6.447,3.754-13.214,6.823-20.309,9.21c-7.097,2.391-14.803,3.581-23.123,3.581
				c-6.85,0-13.132-1.15-18.839-3.453c-5.712-2.304-10.644-5.502-14.804-9.595c-4.159-4.093-7.425-9.083-9.787-14.968
				c-2.367-5.883-3.547-12.406-3.547-19.57c0-9.551,1.589-18.845,4.771-27.886c3.181-9.04,7.666-17.015,13.457-23.923
				c5.789-6.908,12.64-12.447,20.554-16.629c7.909-4.177,16.596-6.27,26.057-6.27c4.729,0,9.176,0.514,13.334,1.536
				c4.161,1.023,8.603,1.535,13.335,1.535c5.384,0,9.054-1.705,11.012-5.116c1.957-3.411,2.936-7.76,2.936-13.049
				c0-3.75-0.777-6.735-2.325-8.954c-1.552-2.214-3.59-3.922-6.116-5.116c-2.532-1.191-5.346-1.919-8.442-2.175
				c-3.102-0.256-6.117-0.384-9.053-0.384h-6.605c-14.357,0-27.569,2.813-39.638,8.443c-12.074,5.628-22.43,13.304-31.074,23.025
				c-8.647,9.723-15.414,21.107-20.309,34.156c-4.894,13.046-7.339,26.991-7.339,41.829c0,11.089,1.467,21.361,4.403,30.829
				c2.936,9.464,7.257,17.697,12.97,24.688c5.707,6.996,12.76,12.496,21.162,16.502c8.4,4.005,18.145,6.012,29.241,6.012
				c5.382,0,11.66-0.769,18.839-2.303c7.175-1.536,14.559-3.709,22.143-6.524c7.585-2.814,15.048-6.268,22.39-10.361
				c7.34-4.093,13.902-8.696,19.696-13.815c5.789-5.116,10.477-10.745,14.068-16.885c3.585-6.141,5.384-12.621,5.384-19.444v-1.279
				C646.886,597.92,645.252,596.042,642.158,596.042z"/>
			<path style="fill:#FFFFFF;stroke:#888888;stroke-width:4;stroke-miterlimit:10;" d="M900.653,551.269
				c-1.876-4.433-4.079-8.825-6.605-13.175c-2.53-4.35-5.101-8.826-7.708-13.433c-2.774-4.943-5.382-9.633-7.829-14.071
				c-2.447-4.435-5.223-8.354-8.32-11.769c-3.099-3.409-6.728-6.095-10.888-8.06c-4.158-1.959-9.42-2.941-15.781-2.941
				c-8.972,0-17.004,2.174-24.102,6.523c-7.096,4.35-13.375,10.15-18.839,17.397c-5.467,7.252-10.154,15.439-14.07,24.562
				c-3.915,9.127-7.095,18.466-9.543,28.016c-2.445,9.553-4.242,18.891-5.382,28.014c-1.143,9.126-1.713,17.186-1.713,24.176
				c0,1.339,0.036,2.653,0.088,3.957c-4.493,2.263-9.087,4.277-13.789,6.021c-8.972,3.414-18.148,5.929-27.526,7.548
				c-9.381,1.622-18.802,2.43-28.261,2.43c-1.467,0-2.978-0.041-4.526-0.127c-1.552-0.085-3.06-0.128-4.527-0.128l-3.182-2.559
				l-0.488-1.023v-1.279c-0.82-2.898-1.431-6.053-1.836-9.467c-0.409-3.409-0.611-7.075-0.611-11.001
				c0-8.354,0.648-17.397,1.957-27.119c1.304-9.722,2.773-19.399,4.405-29.038c1.629-9.634,3.096-18.888,4.404-27.759
				c1.304-8.866,1.958-16.629,1.958-23.282c0-6.141-0.778-11-2.325-14.582c-1.552-3.583-4.202-5.372-7.952-5.372
				c-3.754,0-6.935,0.854-9.542,2.559c-2.612,1.707-4.856,3.925-6.728,6.65c-1.878,2.731-3.389,5.717-4.529,8.954
				c-1.143,3.242-2.041,6.486-2.691,9.724c-2.936,23.537-4.404,47.073-4.404,70.613c0,12.112,0.366,24.049,1.102,35.816
				c0.732,11.768,1.995,23.537,3.792,35.307c1.138,3.752,2.894,6.651,5.261,8.697c2.363,2.047,5.095,3.581,8.197,4.605
				c3.096,1.023,6.361,1.619,9.786,1.79c3.426,0.169,6.767,0.256,10.033,0.256c17.775,0,34.903-2.175,51.381-6.522
				c9.951-2.628,19.781-5.968,29.495-9.995c0.507,0.75,1.027,1.485,1.578,2.191c3.587,4.605,8.235,8.231,13.947,10.874
				c5.708,2.642,12.479,3.965,20.308,3.965c11.905,0,23.446-2.174,34.623-6.524c11.169-4.349,20.999-10.444,29.482-18.29
				c8.479-7.847,15.293-17.183,20.431-28.016c5.138-10.83,7.708-22.727,7.708-35.692c0-5.627-0.575-10.827-1.714-15.604
				C904.037,560.312,902.526,555.705,900.653,551.269z M873.738,607.682c-3.508,5.718-8.035,10.579-13.579,14.583
				c-5.547,4.01-11.664,7.125-18.351,9.338c-6.689,2.22-13.213,3.327-19.574,3.327c-3.1,0-6.117-0.64-9.053-1.919
				s-5.506-3.07-7.707-5.374c-2.203-2.301-3.999-4.987-5.383-8.058c-1.388-3.071-2.081-6.307-2.081-9.723
				c0-3.07,0.368-7.331,1.102-12.792c0.735-5.455,1.834-11.385,3.304-17.779c1.467-6.398,3.261-12.834,5.382-19.317
				c2.119-6.48,4.648-12.364,7.584-17.652c2.937-5.285,6.198-9.596,9.787-12.92c3.586-3.327,7.586-4.989,11.989-4.989
				c2.118,0,3.549,0.3,4.282,0.896c0.734,0.599,1.225,1.405,1.468,2.43c0.245,1.023,0.489,2.175,0.734,3.454
				c0.243,1.28,1.017,2.604,2.325,3.966c4.563,4.778,8.887,8.743,12.967,11.896c4.075,3.158,7.586,6.439,10.521,9.85
				c2.938,3.415,5.261,7.509,6.974,12.28c1.713,4.777,2.569,11.173,2.569,19.189C879,595.529,877.245,601.969,873.738,607.682z"/>
			<path style="fill:#FFFFFF;stroke:#888888;stroke-width:4;stroke-miterlimit:10;" d="M1027.76,548.07
				c-0.163-4.004-0.408-8.098-0.732-12.28c-0.33-4.177-0.734-9.337-1.224-15.478c-0.328-2.56-0.573-5.245-0.734-8.06
				c-0.164-2.813-0.611-5.455-1.347-7.931c-0.733-2.471-1.956-4.478-3.669-6.012c-1.713-1.535-4.201-2.304-7.464-2.304
				c-5.382,0-9.381,1.965-11.987,5.884c-2.612,3.927-3.915,8.36-3.915,13.305c0,7.164,0.447,14.115,1.345,20.852
				c0.895,6.739,1.347,13.604,1.347,20.595c0,3.583-0.611,8.188-1.836,13.814c-1.224,5.629-2.856,11.643-4.894,18.037
				c-2.041,6.396-4.445,12.881-7.217,19.445c-2.777,6.567-5.711,12.451-8.809,17.651c-3.1,5.206-6.324,9.467-9.665,12.795
				c-3.346,3.324-6.649,4.988-9.909,4.988c-3.101,0-5.506-1.192-7.219-3.583c-1.711-2.386-3.02-5.158-3.914-8.315
				c-0.9-3.153-1.512-6.352-1.836-9.594c-0.329-3.238-0.489-5.795-0.489-7.675c0-0.338-0.042-1.79-0.122-4.35
				c-0.084-2.558-0.122-5.539-0.122-8.954c0-3.409-0.042-6.818-0.122-10.233c-0.084-3.411-0.123-6.142-0.123-8.188
				c0-6.48,0.283-12.96,0.857-19.443c0.569-6.479,1.223-12.919,1.957-19.316c0.734-6.396,1.383-12.749,1.957-19.061
				c0.569-6.308,0.856-12.702,0.856-19.188c0-1.875-0.207-3.793-0.61-5.757c-0.41-1.959-1.062-3.749-1.959-5.373
				c-0.898-1.617-2.164-2.94-3.792-3.964c-1.633-1.023-3.671-1.536-6.118-1.536h-2.202c-0.653,0.344-1.712,1.151-3.18,2.431
				s-2.979,2.729-4.526,4.349c-1.553,1.625-3.02,3.326-4.405,5.117c-1.387,1.791-2.243,3.455-2.567,4.989
				c-1.309,11.768-2.081,22.686-2.327,32.748c-0.242,10.064-0.366,20.468-0.366,31.211c0,2.731,0.038,6.486,0.124,11.259
				c0.08,4.776,0.121,10.064,0.121,15.861c0,5.801,0.038,11.896,0.121,18.294c0.083,6.395,0.124,12.495,0.124,18.291
				c0.489,5.117,1.426,10.406,2.813,15.862c1.385,5.46,3.463,10.449,6.238,14.968c2.772,4.516,6.279,8.186,10.522,11.002
				c4.24,2.814,9.459,4.219,15.658,4.219c4.895,0,9.581-1.366,14.069-4.092c4.484-2.729,8.603-6.101,12.356-10.105
				c3.75-4.005,7.257-8.229,10.521-12.666c3.262-4.434,6.116-8.441,8.563-12.024v19.445c0,0.345,0.489,0.938,1.469,1.79
				c0.979,0.855,2.118,1.663,3.425,2.432c1.305,0.767,2.527,1.45,3.671,2.047c1.138,0.595,1.873,0.895,2.2,0.895
				c4.077,0,7.502-1.618,10.276-4.859c2.772-3.239,5.055-6.397,6.853-9.467c0.65-7.333,1.139-13.945,1.468-19.828
				c0.325-5.885,0.569-11.598,0.733-17.142c0.162-5.54,0.246-11.17,0.246-16.886c0-5.713,0-12.064,0-19.061
				c0-7.503-0.043-13.688-0.123-18.547C1028.044,556.514,1027.921,552.08,1027.76,548.07z"/>
			<path style="fill:#FFFFFF;stroke:#888888;stroke-width:4;stroke-miterlimit:10;" d="M1316.731,485.967
				c-0.056-0.019-0.119-0.041-0.169-0.057C1316.622,485.93,1316.677,485.949,1316.731,485.967z"/>
			<path style="fill:#FFFFFF;stroke:#888888;stroke-width:4;stroke-miterlimit:10;" d="M1316.88,486.017
				c-0.045-0.015-0.095-0.031-0.149-0.05C1316.778,485.983,1316.829,486,1316.88,486.017z"/>
			<path style="fill:#FFFFFF;stroke:#888888;stroke-width:4;stroke-miterlimit:10;" d="M1317.063,486.079
				c-0.069-0.023-0.12-0.041-0.183-0.062C1316.988,486.054,1317.063,486.079,1317.063,486.079z"/>
			<path style="fill:#FFFFFF;stroke:#888888;stroke-width:4;stroke-miterlimit:10;" d="M1402.041,593.368
				c-6.053-3.346-12.89-5.937-20.576-7.806c-7.655-1.87-15.402-3.28-23.245-4.231c-7.812-0.95-15.402-1.608-22.743-2.033
				c-7.338-0.427-13.708-0.918-19.072-1.411c6.023-2.722,12.046-6.035,18.1-9.873c6.024-3.838,11.481-8.166,16.377-13.021
				c4.892-4.887,8.843-10.201,11.888-16.007c3.011-5.805,4.517-12.2,4.517-19.188c0-7.838-2.197-14.038-6.617-18.532
				c-4.393-4.526-9.853-7.903-16.378-10.135c-6.524-2.198-19.979-2.657-27.227-5.052c-3.138,0,1.704,5.063-3.138,0
				c-6.273-6.56-6.273-13.12-18.819-42.64c-7.749-18.231-28.233-59.04-47.054-78.721c-11.092-11.596-50.191-32.8-84.696,3.281
				c0.013,0.027,0.04,0.051,0.055,0.078c-29.769,14.661-65.025,104.694-72.203,114.722c-2.259,3.149-11.448,5.871-15.685,6.561
				c-4.234,0.688-18.727,3.016-22.303,4.983c-3.607,1.971-6.525,4.593-8.814,7.938c-2.29,3.312-3.418,7.545-3.418,12.661
				c0,1.704,0.029,3.445,0.093,5.247c0.094,1.773,0.407,3.412,1.003,4.854c0.566,1.444,1.412,2.657,2.573,3.577
				c1.129,0.95,2.761,1.409,4.894,1.409c1.945,0,3.701-0.589,5.239-1.804c1.567-1.18,3.073-2.459,4.548-3.805
				c1.442-1.378,2.947-2.657,4.516-3.871c1.539-1.181,3.295-1.77,5.271-1.77h0.972c1.946,6.986,3.138,14.104,3.544,21.353
				c0.409,7.248,0.598,14.562,0.598,21.876c0,6.822-0.064,14.04-0.221,21.617c-0.188,7.608-0.344,15.187-0.501,22.763
				c-0.157,7.608-0.376,15.12-0.628,22.533c-0.221,7.413-0.439,14.269-0.596,20.599h-3.168c-1.819,0-3.64-0.394-5.521-1.148
				c-1.881-0.786-3.794-1.573-5.74-2.459c-1.975-0.821-3.828-1.641-5.647-2.426c-1.787-0.757-3.48-1.149-5.112-1.149
				c-2.949,0-5.082,1.641-6.368,4.854c0,5.806,0.722,10.495,2.196,14.104c1.475,3.574,3.514,6.33,6.117,8.299
				c2.603,1.968,5.741,3.28,9.411,3.969c3.67,0.689,7.716,1.017,12.107,1.017c8.501,0,17.755-0.591,27.792-1.805
				c10.009-1.18,20.17-3.148,30.46-5.871c10.257-2.724,20.17-6.363,29.706-10.857c9.566-4.526,18.007-10.166,25.347-16.892
				c7.34-6.757,13.237-14.629,17.723-23.68c4.485-9.021,6.745-19.451,6.745-31.195c0-10.397-2.166-20.008-6.494-28.797
				c-4.328-8.792-10.068-16.696-17.253-23.781c-7.183-7.084-15.37-13.251-24.593-18.564c-9.222-5.28-33.014-9.855-34.286-20.501
				c-2.965-24.799,31.753-97.517,52.921-118.277c6.813-5.741,26.516-19.662,44.322-6.362c5.707,4.262,21.959,13.118,37.643,55.758
				c9.623,26.157,15.686,49.201,15.686,65.602l-10.666,75.014c-0.439,8.462-1.789,11.086-4.172,12.857
				c-2.354,1.804-4.895,3.442-7.561,4.985c-2.697,1.541-5.144,3.28-7.34,5.248c-2.228,1.967-3.324,4.723-3.324,8.332
				c0,5.442,1.064,9.248,3.198,11.38c2.103,2.132,6.274,3.38,12.484,3.706v30.965l-10.79-10.233h-0.219
				c-0.189,0-0.347-0.066-0.503-0.132c-0.157-0.099-0.344-0.131-0.503-0.131c-0.156,0-0.219,0.032-0.219,0.131
				c0,0.065-0.095,0.132-0.251,0.132h-0.973c-1.316,0-2.885,0.622-4.673,1.901c-1.79,1.279-2.666,2.624-2.666,3.97l0.218,0.523
				c0,0.689-0.03,1.608-0.125,2.789c-0.063,1.213-0.093,2.166-0.093,2.82c0,8.036,2.445,14.333,7.339,18.926
				c4.895,4.625,10.949,8.036,18.226,10.233c7.247,2.231,15.089,3.608,23.465,4.1c8.405,0.525,16.029,0.788,22.897,0.788
				c5.363,0,11.89-0.131,19.575-0.394c7.654-0.264,15.653-0.886,23.965-1.902c8.313-1.05,16.593-2.657,24.844-4.888
				c8.219-2.199,15.56-5.281,22.022-9.184c6.43-3.936,11.698-8.854,15.78-14.728c4.076-5.871,6.114-13.185,6.114-21.878
				c0-7.51-1.882-13.775-5.616-18.795C1412.958,600.848,1408.064,596.682,1402.041,593.368z M1132.833,529.769
				c6.619,2.92,13.113,6.463,19.48,10.628c6.336,4.166,12.016,8.758,17.002,13.677c4.957,4.954,9.003,10.333,12.107,16.138
				c3.076,5.806,4.645,11.841,4.645,18.172c0,6.134-1.507,11.84-4.518,17.122c-3.043,5.28-6.996,10.036-11.891,14.202
				c-4.891,4.166-10.413,7.839-16.623,10.986c-6.212,3.184-12.393,5.808-18.603,7.938c-6.212,2.133-12.235,3.773-18.101,4.857
				c-5.865,1.113-10.854,1.671-14.932,1.671c-0.814,0-1.756-0.131-2.822-0.395c-1.036-0.229-1.568-0.951-1.568-2.163V520.552
				c4.894,0,10.414,0.821,16.625,2.46C1119.847,524.62,1126.247,526.883,1132.833,529.769z M1294.132,537.183
				c1.787-7.84,4.079-15.745,6.84-23.781c0.154-1.18,0.909-1.902,2.195-2.165c1.317-0.263,2.791-0.394,4.424-0.394
				c1.283,0,3.857,0.034,7.683,0.131c3.86,0.1,7.812,0.46,11.889,1.149c4.077,0.688,7.687,1.804,10.888,3.346
				c3.168,1.509,4.767,3.805,4.767,6.888c0,2.066-0.972,4.429-2.95,7.15c-1.942,2.755-4.516,5.577-7.683,8.462
				c-3.201,2.887-6.715,5.739-10.54,8.562c-3.826,2.819-7.656,5.346-11.482,7.542c-3.856,2.232-7.434,4.034-10.791,5.381
				c-3.325,1.376-5.99,2.034-7.936,2.034C1291.435,553.156,1292.314,545.054,1294.132,537.183z M1392.127,636.863
				c-4.013,3.311-8.782,6.101-14.333,8.297c-5.523,2.23-11.169,3.969-16.876,5.248c-5.711,1.28-10.26,2.001-13.709,2.164h-3.67
				c-2.104,0-4.55,0.066-7.343,0.131c-2.76,0.1-5.615,0.132-8.562,0.132h-12.361c-2.509,0-5.175-0.032-7.934-0.132
				c-2.794-0.064-5.429-0.131-7.97-0.131h-5.238c-1.818,0-3.732-0.458-5.771-1.409c-2.038-0.919-3.044-2.592-3.044-4.986v-37.359
				l-0.251-1.279c0.157-0.164,1.099-0.361,2.824-0.623c1.695-0.263,3.671-0.559,5.866-0.886c2.195-0.36,4.394-0.655,6.619-0.918
				c2.194-0.229,3.952-0.36,5.237-0.36h2.572c1.568,0,3.388-0.065,5.521-0.132c2.102-0.1,4.204-0.132,6.243-0.132h10.508
				c2.196,0,4.33,0.032,6.369,0.132c2.039,0.066,3.859,0.132,5.488,0.132h2.699c1.317,0,3.545,0.196,6.742,0.623
				c3.17,0.425,6.715,1.082,10.637,1.936c3.921,0.854,7.998,1.867,12.231,3.05c4.237,1.213,8.128,2.56,11.607,4.101
				c3.513,1.54,6.369,3.215,8.596,4.984c2.195,1.804,3.292,3.707,3.292,5.773C1398.119,629.645,1396.113,633.516,1392.127,636.863z"
				/>
			<path style="fill:#FFFFFF;stroke:#888888;stroke-width:4;stroke-miterlimit:10;" d="M1316.562,485.91
				c-0.035-0.012-0.07-0.024-0.106-0.036C1316.494,485.887,1316.522,485.896,1316.562,485.91z"/>
			<path style="fill:#FFFFFF;stroke:#888888;stroke-width:4;stroke-miterlimit:10;" d="M1315.795,485.651
				C1315.767,485.642,1315.767,485.642,1315.795,485.651L1315.795,485.651z"/>
			<path style="fill:#FFFFFF;stroke:#888888;stroke-width:4;stroke-miterlimit:10;" d="M1316.131,485.765
				c-0.158-0.053-0.284-0.096-0.336-0.114C1315.834,485.665,1315.941,485.701,1316.131,485.765z"/>
			<path style="fill:#FFFFFF;stroke:#888888;stroke-width:4;stroke-miterlimit:10;" d="M1316.456,485.875
				c-0.128-0.043-0.235-0.08-0.324-0.109C1316.234,485.799,1316.345,485.837,1316.456,485.875z"/>
			<path style="fill:#FFFFFF;stroke:#888888;stroke-width:4;stroke-miterlimit:10;" d="M1593.332,610.113
				c-0.244-1.703-0.532-2.559-0.857-2.559h-4.404c-9.46,10.746-19.45,19.275-29.973,25.585c-10.52,6.31-22.877,9.464-37.069,9.464
				c-2.119,0-5.098-0.211-8.929-0.639c-3.836-0.425-7.669-1.279-11.5-2.559c-3.836-1.279-7.14-2.983-9.91-5.116
				c-2.777-2.132-4.158-4.9-4.158-8.316v-57.818c3.75-0.682,7.096-1.191,10.031-1.536c2.938-0.339,5.788-0.596,8.564-0.767
				c2.771-0.168,5.584-0.297,8.439-0.385c2.852-0.083,6.156-0.126,9.91-0.126c2.771,0,5.422,0.269,7.951,0.806
				c2.528,0.536,5.016,1.163,7.464,1.88c2.447,0.719,4.896,1.346,7.34,1.883c2.446,0.534,5.054,0.803,7.828,0.803
				c6.854,0,11.622-1.89,14.316-5.673c2.69-3.781,4.037-9.282,4.037-16.5c0-2.58-0.331-5.198-0.98-7.859
				c-0.652-2.663-2.61-4.25-5.872-4.762h-12.478c-10.767,0-21.495,0.345-32.175,1.024c-10.688,0.684-21.408,1.021-32.177,1.021
				c-3.101,0-4.979-0.767-5.628-2.303c-0.652-1.534-0.977-3.493-0.977-5.885v-7.93c0.324-0.168,0.977-0.383,1.957-0.64
				c0.978-0.256,2.08-0.513,3.303-0.768c1.221-0.256,2.361-0.467,3.426-0.641c1.059-0.168,1.834-0.256,2.324-0.256
				c1.305-0.167,3.464-0.467,6.484-0.896c3.015-0.422,6.36-0.851,10.03-1.276c3.673-0.426,7.584-0.896,11.745-1.409
				c4.16-0.511,8.074-0.98,11.744-1.407c3.67-0.424,6.976-0.808,9.91-1.15c2.935-0.341,5.138-0.596,6.607-0.769
				c0.649,0.173,1.834,0.345,3.547,0.513c1.713,0.171,3.549,0.382,5.506,0.639s3.793,0.473,5.504,0.641
				c1.713,0.171,2.895,0.255,3.548,0.255h2.447c2.445,0,4.442-0.768,5.995-2.303c1.548-1.535,2.689-3.408,3.426-5.629
				c0.731-2.214,1.221-4.517,1.467-6.907c0.245-2.386,0.368-4.433,0.368-6.14c0-0.852-0.086-2.13-0.247-3.839
				c-0.164-1.701-0.244-2.641-0.244-2.813l-4.404-4.604c-0.162-0.168-1.428-0.296-3.792-0.384c-2.364-0.083-4.12-0.127-5.261-0.127
				c-11.096,0-22.141,0.727-33.152,2.174c-11.012,1.451-21.941,3.287-32.786,5.5c-10.851,2.22-21.698,4.778-32.542,7.678
				c-10.85,2.9-21.574,5.715-32.175,8.441c-3.265,0.855-5.59,1.789-6.976,2.814c-1.388,1.023-2.08,3.496-2.08,7.419v1.28
				c0.163,0.343,0.528,1.11,1.104,2.301c0.57,1.197,1.222,2.392,1.957,3.583c0.732,1.195,1.426,2.263,2.08,3.198
				c0.65,0.938,1.222,1.406,1.713,1.406h17.859c0.162,0,0.57,1.28,1.226,3.837c0.649,2.56,1.057,4.695,1.222,6.396
				c0,0.172-0.043,0.385-0.123,0.639c-0.082,0.258-0.122,0.641-0.122,1.152c-2.774,0-4.892-0.083-6.358-0.256
				c-1.471-0.166-2.779-0.383-3.916-0.639c-1.146-0.258-2.324-0.512-3.551-0.768c-1.222-0.257-2.897-0.385-5.014-0.385
				c-4.734,0-8.443,1.209-11.133,3.614c-2.691,2.406-4.038,6.187-4.038,11.344c0,0.864,0.123,2.196,0.368,4.003
				c0.246,1.807,0.65,3.652,1.223,5.545c0.57,1.89,1.304,3.565,2.203,5.029c0.894,1.462,1.993,2.191,3.301,2.191h32.543
				c0,7.997-0.206,15.741-0.609,23.224c-0.411,7.487-0.613,14.803-0.613,21.946c0,8.34,0.613,16.038,1.834,23.098
				c1.224,7.06,3.707,13.184,7.462,18.374c3.751,5.188,9.217,9.229,16.395,12.123c7.177,2.891,16.639,4.338,28.384,4.338
				c4.402,0,9.457-0.383,15.17-1.152c5.707-0.767,11.621-1.962,17.736-3.58c6.117-1.623,12.07-3.711,17.863-6.27
				c5.79-2.558,11.011-5.668,15.66-9.337c4.646-3.667,8.355-7.888,11.132-12.665c2.772-4.773,4.16-10.232,4.16-16.374
				c-0.165-2.898-0.411-5.457-0.734-7.676C1593.859,613.61,1593.578,611.82,1593.332,610.113z"/>
			<path style="fill:#FFFFFF;stroke:#888888;stroke-width:4;stroke-miterlimit:10;" d="M2000.593,627.766
				c-1.308-2.558-2.936-4.944-4.892-7.163c-1.958-2.215-4.122-4.221-6.485-6.014c-2.364-1.791-4.61-3.453-6.726-4.988
				c-12.89-11.084-26.021-21.53-39.396-31.34c-13.377-9.807-27.568-18.55-42.571-26.225c-3.915-2.898-7.506-6.223-10.769-9.977
				c-3.265-3.75-6.034-7.844-8.316-12.282l-0.246-1.022c1.468-2.558,3.303-4.389,5.505-5.5c2.202-1.107,4.607-1.875,7.217-2.303
				c2.607-0.425,5.261-0.68,7.954-0.768c2.689-0.085,5.259-0.298,7.707-0.641c6.85,0,13.046,0.174,18.593,0.513
				c5.546,0.345,10.928,1.535,16.15,3.58c3.426,1.369,6.728,3.199,9.909,5.502c3.182,2.304,6.361,4.521,9.541,6.651
				c3.183,2.135,6.442,3.966,9.788,5.502c3.341,1.535,6.89,2.302,10.645,2.302c2.607,0,4.85-0.723,6.728-2.175
				c1.874-1.446,2.814-4.221,2.814-8.313c0-3.238-0.613-6.311-1.834-9.212c-1.226-2.898-2.775-5.584-4.65-8.059
				c-1.878-2.47-3.958-4.817-6.24-7.036c-2.285-2.214-4.402-4.349-6.359-6.395c-3.756-1.536-7.463-3.367-11.132-5.501
				c-3.671-2.131-7.465-3.795-11.378-4.99c-3.755-1.702-7.506-2.854-11.258-3.453c-3.753-0.596-7.586-0.897-11.5-0.897
				c-8.807,0-17.615,0.941-26.424,2.815c-7.292,1.555-13.93,3.851-19.936,6.864c-0.119-0.276-0.24-0.557-0.372-0.851
				c-0.651-1.448-1.389-2.856-2.198-4.222c-0.822-1.363-1.677-2.514-2.571-3.455c-0.897-0.935-1.835-1.406-2.815-1.406h-1.222
				c-1.798,0.171-4.161,0.427-7.096,0.767c-2.938,0.344-5.836,0.639-8.687,0.896c-2.855,0.256-5.383,0.513-7.585,0.767
				c-2.203,0.256-3.386,0.384-3.549,0.384c-0.327,0-0.977,0.128-1.957,0.383c-0.977,0.256-2.04,0.513-3.18,0.769
				c-1.142,0.255-2.202,0.511-3.183,0.768c-0.977,0.255-1.629,0.384-1.957,0.384c-11.741,1.367-23.53,2.942-35.354,4.733
				c-11.827,1.79-23.652,3.453-35.478,4.988c-11.83,1.534-23.697,2.857-35.602,3.966c-9.539,0.892-19.079,1.404-28.617,1.58
				c-1.41-3.529-2.996-6.795-4.78-9.767c-2.202-3.667-4.895-6.652-8.075-8.955c-3.179-2.303-6.971-3.456-11.377-3.456
				c-5.057,0-9.463,1.24-13.212,3.711c-3.755,2.475-7.058,5.672-9.911,9.593c-2.853,3.926-5.26,8.404-7.217,13.432
				c-1.957,5.033-3.713,10.106-5.258,15.224c-1.554,5.116-2.899,10.021-4.039,14.711c-1.146,4.693-2.289,8.743-3.428,12.152
				c-0.818,2.729-2.2,4.86-4.156,6.395c-12.235,2.392-23.98,4.988-35.235,7.804c-11.255,2.814-22.833,6.013-34.745,9.595
				c-2.605,0.855-4.973,2.43-7.095,4.731c-2.116,2.305-3.18,4.99-3.18,8.06c0,4.949,1.143,8.02,3.426,9.212
				c2.285,1.194,5.382,1.79,9.297,1.79c0.817,0,1.917-0.039,3.302-0.128c1.387-0.083,2.246-0.128,2.57-0.128l53.34-12.793h1.712
				c0,5.463-0.735,10.705-2.202,15.734c-1.467,5.033-3.1,10.106-4.893,15.223c-1.797,5.118-3.424,10.277-4.895,15.48
				c-1.468,5.202-2.203,10.532-2.203,15.988c0,2.391,0.083,4.522,0.244,6.396c0.163,1.879,0.614,3.455,1.349,4.732
				c0.731,1.28,1.835,2.265,3.302,2.945c1.469,0.679,3.506,1.021,6.118,1.021c3.261,0,6.118-2.045,8.563-6.141
				c2.446-4.093,4.648-9.25,6.606-15.479c1.958-6.223,3.75-12.96,5.383-20.211c1.628-7.247,3.342-13.983,5.137-20.211
				c1.796-6.225,3.71-11.425,5.75-15.607c2.037-4.177,4.441-6.352,7.216-6.521c1.141-0.17,3.142-0.469,5.996-0.896
				c2.853-0.425,5.912-0.852,9.178-1.279c3.26-0.425,6.359-0.852,9.298-1.28c2.936-0.422,5.054-0.639,6.359-0.639
				c0.162,0,0.815-0.04,1.957-0.128c1.14-0.083,1.876-0.128,2.204-0.128h2.446c0.815,0,1.546,0.128,2.202,0.384
				c0.649,0.255,1.14,0.896,1.467,1.919l28.628,90.311c0.816,2.215,1.958,3.538,3.426,3.966c1.468,0.425,3.097,0.641,4.895,0.641
				c4.892,0,8.195-1.408,9.907-4.223c1.715-2.813,2.57-6.521,2.57-11.129c0-7.331-1.223-14.454-3.671-21.36
				c-2.446-6.91-5.179-13.774-8.196-20.597c-3.021-6.819-5.751-13.687-8.195-20.595c-2.448-6.908-3.67-14.112-3.67-21.62
				c6.032,0,10.477-1.363,13.336-4.093c2.851-2.726,4.279-7.331,4.279-13.815c0-0.512-0.041-1.746-0.124-3.709
				c-0.082-1.96-0.122-3.282-0.122-3.966l-1.957-2.047c-2.121-1.191-4.402-1.958-6.85-2.304c-2.448-0.339-4.893-0.51-7.341-0.51
				c-2.284,0-4.446,0.087-6.484,0.256c-2.041,0.171-4.038,0.342-5.994,0.511c-1.226-1.994-2.367-4.532-3.422-7.602
				c4.567-0.181,9.133-0.492,13.698-0.969c7.341-0.77,14.64-1.576,21.9-2.432c7.254-0.852,14.557-1.661,21.897-2.429
				c7.34-0.769,14.68-1.152,22.021-1.152c0,21.661-0.245,42.941-0.735,63.833c-0.489,20.895-0.735,41.918-0.735,63.064
				c0,4.095,0.815,7.507,2.449,10.232c1.629,2.729,4.238,4.095,7.829,4.095c3.426,0,6.074-1.196,7.953-3.582
				c1.872-2.392,3.302-5.285,4.281-8.699c0.978-3.409,1.591-6.991,1.836-10.746c0.242-3.748,0.365-7.075,0.365-9.977
				c0-4.094,0.082-8.866,0.244-14.326c0.163-5.456,0.285-11.169,0.368-17.143c0.078-5.969,0.201-12.108,0.368-18.42
				c0.158-6.308,0.324-12.447,0.488-18.422c0.324-13.981,0.57-28.396,0.732-43.235l1.957-2.304c0.163-0.168,1.14-0.383,2.939-0.64
				c1.79-0.255,3.872-0.513,6.236-0.766c2.364-0.257,4.809-0.514,7.343-0.77c2.523-0.255,4.604-0.467,6.237-0.64
				c1.305,0,3.629-0.039,6.975-0.127c3.332-0.084,6.875-0.129,10.618-0.129c-1.608,4.418-2.423,9.275-2.423,14.584
				c0,4.094,0.73,8.019,2.201,11.769c1.467,3.754,3.383,7.206,5.75,10.361c2.361,3.157,5.096,6.014,8.195,8.571
				c3.098,2.557,6.28,4.777,9.543,6.651c13.211,8.698,26.305,17.485,39.271,26.352c12.967,8.87,25.812,18.165,38.537,27.886
				c1.468,1.535,2.812,3.159,4.038,4.862c1.222,1.706,2.567,3.242,4.033,4.605c-2.773,1.471-5.627,2.434-8.562,2.894
				c-2.937,0.46-5.873,0.688-8.807,0.688c-3.755,0-7.549-0.128-11.378-0.388c-3.834-0.256-7.627-0.388-11.38-0.388
				c-5.383,0-10.764-0.256-16.147-0.771c-5.382-0.517-10.438-2.234-15.17-5.161c-1.958-1.547-3.301-3.609-4.036-6.193
				c-0.736-2.582-1.555-5.12-2.449-7.613c-0.897-2.495-2.039-4.646-3.424-6.451c-1.389-1.809-3.635-2.711-6.728-2.711
				c-5.062,0-9.341,2.006-12.848,6.012c-3.508,4.009-5.832,8.486-6.974,13.431c-1.307,2.56-1.957,5.374-1.957,8.443
				c0,5.973,2.24,10.834,6.728,14.582c4.485,3.754,9.828,6.653,16.028,8.7c6.197,2.048,12.518,3.492,18.963,4.349
				c6.441,0.851,11.701,1.362,15.78,1.535c4.075,0.34,8.155,0.512,12.233,0.512s8.236,0,12.48,0c6.031,0,12.682-0.384,19.941-1.151
				c7.254-0.767,14.067-2.347,20.43-4.732c6.36-2.388,11.66-5.758,15.906-10.106c4.238-4.349,6.358-10.189,6.358-17.524
				C2002.551,633.14,2001.898,630.323,2000.593,627.766z M1687.167,550.886c-1.958,0.939-4.282,1.75-6.976,2.431
				c-2.689,0.682-5.343,1.195-7.949,1.534c-2.613,0.344-4.65,0.513-6.117,0.513l0.977-7.42c0-0.168,0.202-1.279,0.613-3.327
				c0.403-2.046,0.938-4.349,1.59-6.907c0.648-2.558,1.427-5.073,2.324-7.547c0.896-2.47,1.915-4.39,3.058-5.756
				c0.162-0.168,0.569-0.384,1.226-0.641c0.649-0.256,1.345-0.467,2.08-0.639c0.732-0.168,1.467-0.34,2.199-0.513
				c0.734-0.166,1.183-0.339,1.348-0.51c0.649,1.878,1.504,3.88,2.566,6.011c1.061,2.136,1.999,4.351,2.816,6.652
				c0.814,2.302,1.547,4.605,2.203,6.908c0.648,2.302,0.977,4.393,0.977,6.268C1690.101,548.967,1689.125,549.95,1687.167,550.886z"
				/>
		</g>
	</g>
</g>
</svg>
